<?xml version="1.0" encoding="utf-8"?>
<!-- Generator: Adobe Illustrator 19.0.0, SVG Export Plug-In . SVG Version: 6.00 Build 0)  -->
<svg version="1.1" id="contact_send" xmlns="http://www.w3.org/2000/svg" xmlns:xlink="http://www.w3.org/1999/xlink" x="0px"
	 y="0px" viewBox="-272 185.1 512 473.8" style="enable-background:new -272 185.1 512 473.8;" xml:space="preserve">
<path fill="#FFFFFF" class="send-hover" d="M237.4,187c-2.3-2-5.5-2.5-8.3-1.2l-496.7,230.8
	c-2.7,1.2-4.4,3.9-4.4,6.9s1.6,5.7,4.3,7l140.6,69c2.6,1.3,5.7,1,8-0.7L17.6,396.7L-89.8,506.8c-1.5,1.6-2.3,3.7-2.1,5.9l10.7,139.1
	c0.2,3.1,2.3,5.7,5.2,6.7c0.8,0.3,1.6,0.4,2.4,0.4c2.2,0,4.3-0.9,5.8-2.7l74.6-86.5L99,613.8c2,1,4.3,1,6.4,0.1
	c2-0.9,3.6-2.6,4.2-4.7l130-414.2C240.6,192.1,239.7,189,237.4,187z"/>
</svg>
