<?xml version="1.0" encoding="utf-8"?>
<!-- Generator: Adobe Illustrator 19.0.0, SVG Export Plug-In . SVG Version: 6.00 Build 0)  -->
<svg version="1.1" id="contact-facebook-icon" xmlns="http://www.w3.org/2000/svg" xmlns:xlink="http://www.w3.org/1999/xlink"
	 x="0px" y="0px" viewBox="-223 12 512 512" style="enable-background:new -223 12 512 512;" xml:space="preserve">
<g>
	<g id="post-facebook">
		<path style="fill:#FFFFFF;" d="M237.8,12h-409.6C-200,12-223,35-223,63.2v409.6c0,28.2,23,51.2,51.2,51.2h409.6
			c28.2,0,51.2-23,51.2-51.2V63.2C289,35,266,12,237.8,12z M212.2,63.2V140H161c-15.4,0-25.6,10.2-25.6,25.6v51.2h76.8v76.8h-76.8
			v179.2H58.6V293.6H7.4v-76.8h51.2v-64c0-48.6,41-89.6,89.6-89.6L212.2,63.2L212.2,63.2z"/>
	</g>
</g>
</svg>
