<?xml version="1.0" encoding="utf-8"?>
<!-- Generator: Adobe Illustrator 19.0.0, SVG Export Plug-In . SVG Version: 6.00 Build 0)  -->
<svg version="1.1" id="sent-mail" xmlns="http://www.w3.org/2000/svg" xmlns:xlink="http://www.w3.org/1999/xlink" x="0px" y="0px"
	 viewBox="-265.1 48 428.8 428.8" style="enable-background:new -265.1 48 428.8 428.8;" xml:space="preserve">
<path id="mail-border" style="fill:#FFFFFF;" d="M47.9,180.8c-1-0.7-2.4-0.9-3.6-0.4l-216.7,80.2c-1.2,0.4-1.9,1.4-1.9,2.4
	c0,1,0.7,2,1.9,2.4l61.3,24c1.1,0.5,2.5,0.3,3.5-0.2l59.6-35.5l-46.9,38.2c-0.7,0.6-1,1.3-0.9,2l4.7,48.3c0.1,1.1,1,2,2.3,2.3
	c0.3,0.1,0.7,0.1,1,0.1c1,0,1.9-0.3,2.5-0.9l32.5-30l40.2,15.3c0.9,0.3,1.9,0.3,2.8,0c0.9-0.3,1.6-0.9,1.8-1.6l56.7-143.9
	C49.3,182.6,48.9,181.5,47.9,180.8z"/>
<path id="mail-icon" style="fill:#FFFFFF;" d="M-50.7,48c-118.7,0-214.3,95.6-214.3,214.3c0,118.8,95.6,214.5,214.3,214.5
	c118.8,0,214.5-95.6,214.5-214.5C163.7,143.6,68,48-50.7,48L-50.7,48z M-50.7,410.8c-82.4,0-148.4-66-148.4-148.4
	s65.9-148.4,148.4-148.4S97.7,179.8,97.7,262.3S31.7,410.8-50.7,410.8L-50.7,410.8z"/>
</svg>
