<?xml version="1.0" encoding="utf-8"?>
<!-- Generator: Adobe Illustrator 19.0.0, SVG Export Plug-In . SVG Version: 6.00 Build 0)  -->
<svg version="1.1" id="gallery_x5F_exit" xmlns="http://www.w3.org/2000/svg" xmlns:xlink="http://www.w3.org/1999/xlink" x="0px"
	 y="0px" viewBox="-223 25 512 512" style="enable-background:new -223 25 512 512;" xml:space="preserve">
<path id="exit" style="fill:#FFFFFF;" d="M106.6,289.2c-4.7-4.7-4.7-11.7,0-16.4L282,97.5c4.7-4.7,7-11.7,7-16.4
	c0-4.7-2.3-11.7-7-16.4L249.3,32c-4.7-4.7-11.7-7-16.4-7c-7,0-11.7,2.3-16.4,7L41.2,207.4c-4.7,4.7-11.7,4.7-16.4,0L-150.5,32
	c-4.7-4.7-11.7-7-16.4-7s-11.7,2.3-16.4,7L-216,64.7c-4.7,4.7-7,11.7-7,16.4c0,4.7,2.3,11.7,7,16.4l175.3,175.3
	c4.7,4.7,4.7,11.7,0,16.4L-216,464.5c-4.7,4.7-7,11.7-7,16.4s2.3,11.7,7,16.4l32.7,32.7c4.7,4.7,11.7,7,16.4,7s11.7-2.3,16.4-7
	L24.8,354.6c4.7-4.7,11.7-4.7,16.4,0L216.5,530c4.7,4.7,11.7,7,16.4,7c4.7,0,11.7-2.3,16.4-7l32.7-32.7c4.7-4.7,7-11.7,7-16.4
	s-2.3-11.7-7-16.4L106.6,289.2z"/>
</svg>
