<?xml version="1.0" encoding="utf-8"?>
<!-- Generator: Adobe Illustrator 19.0.0, SVG Export Plug-In . SVG Version: 6.00 Build 0)  -->
<svg version="1.1" id="fatdogfencing-logo" xmlns="http://www.w3.org/2000/svg" xmlns:xlink="http://www.w3.org/1999/xlink" x="0px"
	 y="0px" viewBox="77.8 131.4 1135.1 281.3" style="enable-background:new 77.8 131.4 1135.1 281.3;" xml:space="preserve">
<g id="logo-group">
	<path id="logo_x5F_dog" style="fill:#F15D22;" d="M474,213.9c5.6-0.5,11.3-0.9,17.3-1.2c6.7-0.4,11.9-1.1,15.5,1.9
		c1.3,1,2.7,3.7,3.1,5.5c1.8,8.6-4.4,23.3-7.3,29.2c-2.6,5.3-10.6,16.5-20,20c-9.5,3.5-20.3,5-31.8,8.1
		c-13.2,3.6-43.4,15.7-55.9,23.3c-9.8,6-18.2,16.6-21.4,24.1c-1.9,4.2-2.1,11.8-2.4,16.7c-0.6,9.1,1.5,22.9,2.1,31.8
		c0.1,1.4,4.7,32.3-2.9,36.7c-5.9,3.4-12.2,2.8-17.4,1.9c-6.9-1.2-8.9-6.7-11.2-29c-1.7-16.1-2.1-23.5-3.3-39.6
		c-1,1.3-30,53.9-75.8,54.3c-70.6,0.7-79.2-58.5-83.9-71.6c-7.5,15-23.1,82.4-35.7,85.5c-5.2,1.3-12.6,0.1-16.1-1.7
		c-3.9-2-6.8-5.9-6.6-11.2c0.5-12.7,32.5-118.8,31.3-123.9c-0.9-4.2-8.1-7.2-12.7-10.8c-8.7-5.3-44.9-36.4-49.8-44.5
		c-2.2-3.7-12.3-14.4-11.2-25.5c0.2-2.6,1.8-4.4,3.8-5.5c1.8-1,4.7-1.7,7.6-0.8c1.2,0.4,2.9,1.1,4,2.3
		c41.4,46.5,91.6,73.4,160.4,69.2c41.3-2.5,69.5-25.1,79.2-32.8c10.7-8.4,25.1-22.5,25-25c-0.4-12.8-2.6-21.8-2-29.1
		c0.4-5,1.5-13.2,2.7-17.3c1.2-4.2,7.9-20.3,10.4-22.6c1-1,2.4-1.2,4-0.2c5.7,3.5,12.1,16.2,15.4,23.1c2,4.1,3.5,9,4.8,14.4
		c0.9,3.6,3.4,14.7,4.6,15.4c1.8,1.1,17.4-2,21.8-2.8c9.9-1.8,24-3.3,32.2,0.9c6,3,10.4,8.7,13.1,13.4
		C468,202.4,471,208.4,474,213.9z"/>
	<g id="logo_x5F_fatdog">
		<path style="fill:#F15D22;" d="M593.6,147.8h78v31.5h-46.4V201h35.6v31.4h-35.6v43.9h-31.5C593.6,276.2,593.6,147.8,593.6,147.8z"
			/>
		<path style="fill:#F15D22;" d="M744.6,276.2l-5.2-15h-39.6l-4.6,15h-31.7L707,147.8h21.9l49.5,128.4H744.6z M708.6,232.5h20.9
			l-11-32.3L708.6,232.5z"/>
		<path style="fill:#F15D22;" d="M768.1,147.8h92.1v31.4h-31v97.1h-31.4v-97.2h-29.7V147.8z"/>
		<path style="fill:#F15D22;" d="M940.3,146.9v5c2.8-1.5,8.3-4.1,14.5-4.1c27.2,0,44.8,20.9,44.8,64.3c0,56.5-28.3,64.3-55.4,64.3
			h-35.4V148.8L940.3,146.9z M940.3,181.2v63.7c21.1,0,27.7-6.8,27.7-32.8c0-20.2-5.5-31.7-16.3-31.7L940.3,181.2z"/>
		<path style="fill:#F15D22;" d="M1012.6,211.8c0-41.3,18-64.8,49-64.8c30.4,0,47.9,23.3,47.9,64.8c0,41.7-15.4,65-47.9,65
			C1030.8,276.8,1012.6,256,1012.6,211.8z M1044.9,211.8c0,21.7,6.1,33.4,16.7,33.4c9.7,0,15.4-11.9,15.4-33.4
			c0-21.7-5.5-33.2-15.4-33.2C1050.6,178.6,1044.9,190.1,1044.9,211.8z"/>
		<path style="fill:#F15D22;" d="M1169.8,200.8h42.8v75.4l-25,0.9v-5.2l-13.2,3.5c-2.2,0.6-4.6,0.9-7.7,0.9
			c-29.5,0-45.9-19.8-45.9-64.4c0-47.9,18.7-65,48.8-65c14.3,0,31.5,3.7,41.1,7.7l-11.4,30.1c-5.4-2-19.3-4.1-28.3-4.1
			c-12.8,0-16.5,8.8-16.5,30.4c0,19.8,4.6,31.2,18.5,31.2l14.5-2.8v-12.8h-17.8L1169.8,200.8L1169.8,200.8z"/>
	</g>
	<g id="logo_x5F_fencing">
		<path style="fill:#F15D22;" d="M603.1,327.5v32.6h41v8.9h-41v42.9h-9.5v-93.3h51.6v8.9H603.1L603.1,327.5z"/>
		<path style="fill:#F15D22;" d="M686.7,327.5v31.8h42.7v8.9h-42.7V403h44.6v8.9h-54.1v-93.3h54.1v8.9L686.7,327.5L686.7,327.5z"/>
		<path style="fill:#F15D22;" d="M840.6,318.6v93.3H825l-35.2-63.5l-5.7-10.4l-2.8-5.2l-2.8-5.2h-0.3l0.1,3.4l0.1,3.5v7v70.3h-9.5
			v-93.3h15.5l30.8,55.6l8,14.6l4,7.2l3.9,7.3h0.3l-0.1-3.4l-0.1-3.5v-7v-70.7H840.6L840.6,318.6z"/>
		<path style="fill:#F15D22;" d="M937,380.6h9.4v3.5c0,12.7-1.9,20.7-5.9,23.8c-3.9,3.2-13.7,4.7-29.5,4.7c-14.1,0-23-2.8-26.8-8.3
			c-3.8-5.6-5.7-18.8-5.7-39.4c0-16.2,0.5-26.4,1.3-30.5c0.8-4.2,3.4-7.9,7.4-11.1c4.8-3.8,15-5.7,30.9-5.7
			c10.7,0,17.9,1.8,21.7,5.5c3.7,3.7,5.5,10.8,5.5,21.4l0.1,2.5H936l-0.1-2.9c0-7.5-1.1-12.3-3.3-14.5c-2.2-2.2-7.2-3.2-14.9-3.2
			c-13.5,0-21.8,1.3-24.8,3.7c-3,2.5-4.5,9.4-4.5,20.8c0,26.2,1,41.6,3,46c2,4.5,8.9,6.8,20.6,6.8c11.2,0,18.1-1,20.9-2.9
			c2.8-2,4.2-6.9,4.2-14.8L937,380.6z"/>
		<path style="fill:#F15D22;" d="M991.9,318.6v93.3h-9.5v-93.3H991.9L991.9,318.6z"/>
		<path style="fill:#F15D22;" d="M1105.2,318.6v93.3h-15.6l-35.3-63.5l-5.7-10.4l-2.8-5.2l-2.8-5.2h-0.3l0.1,3.4l0.1,3.5v7v70.3
			h-9.5v-93.3h15.5l30.8,55.6l8,14.6l4,7.2l3.9,7.3h0.3l-0.1-3.4l-0.1-3.5v-7v-70.7H1105.2L1105.2,318.6z"/>
		<path style="fill:#F15D22;" d="M1176.5,365.4h36.1c0.2,2.4,0.3,5.8,0.3,10.1c0,16.8-1.9,27.2-5.5,31.2c-3.7,4-13.4,6-29.1,6
			c-14.8,0-24.4-2.4-28.6-7.1c-4.3-4.7-6.3-15.3-6.3-31.7l-0.1-13.8l0.1-8.2c0-13.8,2.3-23,7-27.5s14.2-6.8,28.5-6.8
			s23.6,1.4,27.7,4.4s6.2,9.7,6.2,20v3.5h-9.3v-2.4c0-7.6-1.4-12.3-4.2-14.1c-2.8-1.8-10.1-2.7-22.1-2.7c-11,0-17.8,1.4-20.6,4.3
			c-2.8,2.9-4.1,10.1-4.1,21.7l-0.1,12.4l0.1,13.3c0,11.8,1.5,18.9,4.6,21.7c3,2.7,11.2,4.1,24.5,4.1c10.1,0,16.5-1.3,18.8-3.8
			c2.4-2.5,3.6-9.2,3.6-20c0-0.9-0.2-2.8-0.5-5.7h-26.8v-8.9C1176.7,365.4,1176.5,365.4,1176.5,365.4z"/>
	</g>
</g>
</svg>
