<?xml version="1.0" encoding="utf-8"?>
<!-- Generator: Adobe Illustrator 19.0.0, SVG Export Plug-In . SVG Version: 6.00 Build 0)  -->
<svg version="1.1" id="mobile-menu" xmlns="http://www.w3.org/2000/svg" xmlns:xlink="http://www.w3.org/1999/xlink" x="0px"
	 y="0px" viewBox="-223 103.4 512 355.1" style="enable-background:new -223 103.4 512 355.1;" xml:space="preserve">
<g id="menu-group">
	<g id="bottom-menu">
		<g>
			<path style="fill:#FFFFFF;" d="M268.3,260.3h-470.6c-11.4,0-20.7,9.3-20.7,20.7s9.3,20.7,20.7,20.7h470.6
				c11.4,0,20.7-9.3,20.7-20.7C289,269.6,279.7,260.3,268.3,260.3z"/>
		</g>
	</g>
	<g id="middle-menu">
		<g>
			<path style="fill:#FFFFFF;" d="M268.3,103.4h-470.6c-11.4,0-20.7,9.3-20.7,20.7s9.3,20.7,20.7,20.7h470.6
				c11.4,0,20.7-9.3,20.7-20.7S279.7,103.4,268.3,103.4z"/>
		</g>
	</g>
	<g id="top-menu">
		<g>
			<path style="fill:#FFFFFF;" d="M268.3,417.2h-470.6c-11.4,0-20.7,9.3-20.7,20.7s9.3,20.7,20.7,20.7h470.6
				c11.4,0,20.7-9.3,20.7-20.7S279.7,417.2,268.3,417.2z"/>
		</g>
	</g>
</g>
</svg>
