<?xml version="1.0" encoding="utf-8"?>
<!-- Generator: Adobe Illustrator 19.0.0, SVG Export Plug-In . SVG Version: 6.00 Build 0)  -->
<svg version="1.1" id="quote-slider-grass" xmlns="http://www.w3.org/2000/svg" xmlns:xlink="http://www.w3.org/1999/xlink" x="0px"
	 y="0px" viewBox="0 0 1106.4 21.8" style="enable-background:new 0 0 1106.4 21.8;" xml:space="preserve">
<g id="quote-grass-inner">
	<g id="XMLID_483_">
		<path id="XMLID_485_" style="fill:#6BA543;" d="M7.8,21.8c0,0,0.8-15.4-7.8-19.3c0,0,8.6,2.5,10.7,8.6c0,0-3.2-7,8.8-11.1
			c0,0-11,5.9-1.5,14c0,0-3.4-4.5,1.5-7.2c0,0-2.2,5.2,3.4,7.1c0,0,3.4-7.2-1-10.2c0,0,6.2,3.2,6.2,8.9c0,0-0.4-4.2,3.7-5
			c0,0-3.4,1.7,0,5.6c0,0-0.6-7.8,8.7-8.3c0,0-8.5,3.7-3.1,8.3c0,0,8.3-8.1,3.1-13c0,0,7.9,4.6,5.3,11.8c0,0,2.4-6.8,8.2-8.9
			c0,0-5.8,5.4-3.4,8.8c0,0,10.1-6.9,6.3-11.3c0,0,6.9,8.3,0.9,14.1c0,0,8.6-4.5,5.4-8.6c0,0,4.3,3.5,0.7,8.1c0,0,2.3-4,6-3.6
			c0,0-4.9,1.9,0.9,3.8c0,0,5-4.5,0-7.6c0,0,8.1,2.8,4.7,7.2c0,0,7.1-6.3,0.9-10.4c0,0,7.1,3.6,3.9,9.7c0,0,3.7-6.7,9.3-7.9
			c0,0-6.7,3.8-2.8,7.4c0,0,3.2-0.7,2.8-3c0,0,3.2,2.2,1.1,4.8c0,0,6.3-4.6,2.6-7.5c0,0,5.6,3.9,2.8,6.9c0,0,6.9-7.4-1.9-12.2
			c0,0,10.3,5.2,7.1,11.7c0,0,1.1-5.2,5-5.7c0,0-3.2,4.8,0,6c0,0,8.2-5.5,4.5-10.9c0,0,4.5,3.8,1.3,10.3c0,0,0.8-5.3,7.9-6
			c0,0-7.7,2.8-2.3,6.4c0,0,11.2-5.9,2.4-11.8c0,0,9.9,5.4,4.7,12.2c0,0,10.3-5.3,6.3-8.8c0,0,5.1,3.9,1.8,8.4c0,0,2.3-4.2,6.2-5.2
			c0,0-3.7,3.1,2.4,5.7c0,0,3.1-1.6,1.3-3.9c0,0,4.9,2,2.3,4.5c0,0,5.9-7.2-5-12.2c0,0,13,3.9,8.7,11.8c0,0,2.8-7.2,13.2-5
			c0,0-9.9-1.1-7.3,5.3c0,0,5.9-1.3,3.6-3.4c0,0,6.1,0.8,2.7,3.2c0,0,8.7-5.2-1.2-9.8c0,0,9.7,2.8,5.8,9c0,0,3-5,8.4-5.5
			c0,0-4.1,1.3-2.8,4.5c0,0,8-2.8,3.9-6.9c0,0,5.4,2.7,1.2,8c0,0,4-6,11.6-5.5c0,0-8.8,2.7-9.4,13.6H7.8z"/>
		<g id="XMLID_481_">
			<path id="XMLID_484_" style="fill:#6BA543;" d="M178,21.8c0,0,0.9-15.4-8.5-19.3c0,0,9.4,2.5,11.8,8.6c0,0-3.6-7,9.7-11.1
				c0,0-12.1,5.9-1.7,14c0,0-3.8-4.5,1.7-7.2c0,0-2.4,5.2,3.8,7.1c0,0,3.8-7.2-1.1-10.2c0,0,6.8,3.2,6.8,8.9c0,0-0.5-4.2,4-5
				c0,0-3.8,1.7,0,5.6c0,0-0.6-7.8,9.5-8.3c0,0-9.3,3.7-3.4,8.3c0,0,9.1-8.1,3.4-13c0,0,8.7,4.6,5.9,11.8c0,0,2.6-6.8,9-8.9
				c0,0-6.4,5.4-3.8,8.8c0,0,11.1-6.9,6.9-11.3c0,0,7.6,8.3,1,14.1c0,0,9.4-4.5,5.9-8.6c0,0,4.7,3.5,0.8,8.1c0,0,2.5-4,6.5-3.6
				c0,0-5.3,1.9,1,3.8c0,0,5.5-4.5,0-7.6c0,0,8.9,2.8,5.2,7.2c0,0,7.8-6.3,0.9-10.4c0,0,7.8,3.6,4.3,9.7c0,0,4-6.7,10.2-7.9
				c0,0-7.3,3.8-3.1,7.4c0,0,3.6-0.7,3.1-3c0,0,3.5,2.2,1.2,4.8c0,0,6.9-4.6,2.9-7.5c0,0,6.1,3.9,3.1,6.9c0,0,7.6-7.4-2.1-12.2
				c0,0,11.4,5.2,7.8,11.7c0,0,1.2-5.2,5.4-5.7c0,0-3.6,4.8,0,6c0,0,8.9-5.5,5-10.9c0,0,5,3.8,1.4,10.3c0,0,0.8-5.3,8.7-6
				c0,0-8.5,2.8-2.6,6.4c0,0,12.3-5.9,2.6-11.8c0,0,10.9,5.4,5.2,12.2c0,0,11.4-5.3,6.9-8.8c0,0,5.6,3.9,2,8.4c0,0,2.5-4.2,6.8-5.2
				c0,0-4,3.1,2.6,5.7c0,0,3.4-1.6,1.5-3.9c0,0,5.4,2,2.5,4.5c0,0,6.5-7.2-5.5-12.2c0,0,14.3,3.9,9.5,11.8c0,0,3.1-7.2,14.4-5
				c0,0-10.9-1.1-8,5.3c0,0,6.4-1.3,4-3.4c0,0,6.7,0.8,3,3.2c0,0,9.6-5.2-1.3-9.8c0,0,10.7,2.8,6.4,9c0,0,3.3-5,9.2-5.5
				c0,0-4.5,1.3-3.1,4.5c0,0,8.8-2.8,4.3-6.9c0,0,5.9,2.7,1.3,8c0,0,4.4-6,12.7-5.5c0,0-9.6,2.7-10.3,13.6H178z"/>
		</g>
		<g id="XMLID_486_">
			<path id="XMLID_487_" style="fill:#6BA543;" d="M363.4,21.8c0,0,0.9-15.4-8.5-19.3c0,0,9.4,2.5,11.8,8.6c0,0-3.6-7,9.7-11.1
				c0,0-12.1,5.9-1.7,14c0,0-3.8-4.5,1.7-7.2c0,0-2.4,5.2,3.8,7.1c0,0,3.8-7.2-1.1-10.2c0,0,6.8,3.2,6.8,8.9c0,0-0.5-4.2,4-5
				c0,0-3.8,1.7,0,5.6c0,0-0.6-7.8,9.5-8.3c0,0-9.3,3.7-3.4,8.3c0,0,9.1-8.1,3.4-13c0,0,8.7,4.6,5.9,11.8c0,0,2.6-6.8,9-8.9
				c0,0-6.4,5.4-3.8,8.8c0,0,11.1-6.9,6.9-11.3c0,0,7.6,8.3,1,14.1c0,0,9.4-4.5,5.9-8.6c0,0,4.7,3.5,0.8,8.1c0,0,2.5-4,6.5-3.6
				c0,0-5.3,1.9,1,3.8c0,0,5.5-4.5,0-7.6c0,0,8.9,2.8,5.2,7.2c0,0,7.8-6.3,0.9-10.4c0,0,7.8,3.6,4.3,9.7c0,0,4-6.7,10.2-7.9
				c0,0-7.3,3.8-3.1,7.4c0,0,3.6-0.7,3.1-3c0,0,3.5,2.2,1.2,4.8c0,0,6.9-4.6,2.9-7.5c0,0,6.1,3.9,3.1,6.9c0,0,7.6-7.4-2.1-12.2
				c0,0,11.4,5.2,7.8,11.7c0,0,1.2-5.2,5.4-5.7c0,0-3.6,4.8,0,6c0,0,8.9-5.5,5-10.9c0,0,5,3.8,1.4,10.3c0,0,0.8-5.3,8.7-6
				c0,0-8.5,2.8-2.6,6.4c0,0,12.3-5.9,2.6-11.8c0,0,10.9,5.4,5.2,12.2c0,0,11.4-5.3,6.9-8.8c0,0,5.6,3.9,2,8.4c0,0,2.5-4.2,6.8-5.2
				c0,0-4,3.1,2.6,5.7c0,0,3.4-1.6,1.5-3.9c0,0,5.4,2,2.5,4.5c0,0,6.5-7.2-5.5-12.2c0,0,14.3,3.9,9.5,11.8c0,0,3.1-7.2,14.4-5
				c0,0-10.9-1.1-8,5.3c0,0,6.4-1.3,4-3.4c0,0,6.7,0.8,3,3.2c0,0,9.6-5.2-1.3-9.8c0,0,10.7,2.8,6.4,9c0,0,3.3-5,9.2-5.5
				c0,0-4.5,1.3-3.1,4.5c0,0,8.8-2.8,4.3-6.9c0,0,5.9,2.7,1.3,8c0,0,4.4-6,12.7-5.5c0,0-9.6,2.7-10.3,13.6H363.4z"/>
		</g>
		<g id="XMLID_488_">
			<path id="XMLID_489_" style="fill:#6BA543;" d="M546.9,21.8c0,0,0.9-15.4-8.5-19.3c0,0,9.4,2.5,11.8,8.6c0,0-3.6-7,9.7-11.1
				c0,0-12.1,5.9-1.7,14c0,0-3.8-4.5,1.7-7.2c0,0-2.4,5.2,3.8,7.1c0,0,3.8-7.2-1.1-10.2c0,0,6.8,3.2,6.8,8.9c0,0-0.5-4.2,4-5
				c0,0-3.8,1.7,0,5.6c0,0-0.6-7.8,9.5-8.3c0,0-9.3,3.7-3.4,8.3c0,0,9.1-8.1,3.4-13c0,0,8.7,4.6,5.9,11.8c0,0,2.6-6.8,9-8.9
				c0,0-6.4,5.4-3.8,8.8c0,0,11.1-6.9,6.9-11.3c0,0,7.6,8.3,1,14.1c0,0,9.4-4.5,5.9-8.6c0,0,4.7,3.5,0.8,8.1c0,0,2.5-4,6.5-3.6
				c0,0-5.3,1.9,1,3.8c0,0,5.5-4.5,0-7.6c0,0,8.9,2.8,5.2,7.2c0,0,7.8-6.3,0.9-10.4c0,0,7.8,3.6,4.3,9.7c0,0,4-6.7,10.2-7.9
				c0,0-7.3,3.8-3.1,7.4c0,0,3.6-0.7,3.1-3c0,0,3.5,2.2,1.2,4.8c0,0,6.9-4.6,2.9-7.5c0,0,6.1,3.9,3.1,6.9c0,0,7.6-7.4-2.1-12.2
				c0,0,11.4,5.2,7.8,11.7c0,0,1.2-5.2,5.4-5.7c0,0-3.6,4.8,0,6c0,0,8.9-5.5,5-10.9c0,0,5,3.8,1.4,10.3c0,0,0.8-5.3,8.7-6
				c0,0-8.5,2.8-2.6,6.4c0,0,12.3-5.9,2.6-11.8c0,0,10.9,5.4,5.2,12.2c0,0,11.4-5.3,6.9-8.8c0,0,5.6,3.9,2,8.4c0,0,2.5-4.2,6.8-5.2
				c0,0-4,3.1,2.6,5.7c0,0,3.4-1.6,1.5-3.9c0,0,5.4,2,2.5,4.5c0,0,6.5-7.2-5.5-12.2c0,0,14.3,3.9,9.5,11.8c0,0,3.1-7.2,14.4-5
				c0,0-10.9-1.1-8,5.3c0,0,6.4-1.3,4-3.4c0,0,6.7,0.8,3,3.2c0,0,9.6-5.2-1.3-9.8c0,0,10.7,2.8,6.4,9c0,0,3.3-5,9.2-5.5
				c0,0-4.5,1.3-3.1,4.5c0,0,8.8-2.8,4.3-6.9c0,0,5.9,2.7,1.3,8c0,0,4.4-6,12.7-5.5c0,0-9.6,2.7-10.3,13.6H546.9z"/>
		</g>
		<g id="XMLID_490_">
			<path id="XMLID_491_" style="fill:#6BA543;" d="M727.3,21.8c0,0,0.9-15.4-8.5-19.3c0,0,9.4,2.5,11.8,8.6c0,0-3.6-7,9.7-11.1
				c0,0-12.1,5.9-1.7,14c0,0-3.8-4.5,1.7-7.2c0,0-2.4,5.2,3.8,7.1c0,0,3.8-7.2-1.1-10.2c0,0,6.8,3.2,6.8,8.9c0,0-0.5-4.2,4-5
				c0,0-3.8,1.7,0,5.6c0,0-0.6-7.8,9.5-8.3c0,0-9.3,3.7-3.4,8.3c0,0,9.1-8.1,3.4-13c0,0,8.7,4.6,5.9,11.8c0,0,2.6-6.8,9-8.9
				c0,0-6.4,5.4-3.8,8.8c0,0,11.1-6.9,6.9-11.3c0,0,7.6,8.3,1,14.1c0,0,9.4-4.5,5.9-8.6c0,0,4.7,3.5,0.8,8.1c0,0,2.5-4,6.5-3.6
				c0,0-5.3,1.9,1,3.8c0,0,5.5-4.5,0-7.6c0,0,8.9,2.8,5.2,7.2c0,0,7.8-6.3,0.9-10.4c0,0,7.8,3.6,4.3,9.7c0,0,4-6.7,10.2-7.9
				c0,0-7.3,3.8-3.1,7.4c0,0,3.6-0.7,3.1-3c0,0,3.5,2.2,1.2,4.8c0,0,6.9-4.6,2.9-7.5c0,0,6.1,3.9,3.1,6.9c0,0,7.6-7.4-2.1-12.2
				c0,0,11.4,5.2,7.8,11.7c0,0,1.2-5.2,5.4-5.7c0,0-3.6,4.8,0,6c0,0,8.9-5.5,5-10.9c0,0,5,3.8,1.4,10.3c0,0,0.8-5.3,8.7-6
				c0,0-8.5,2.8-2.6,6.4c0,0,12.3-5.9,2.6-11.8c0,0,10.9,5.4,5.2,12.2c0,0,11.4-5.3,6.9-8.8c0,0,5.6,3.9,2,8.4c0,0,2.5-4.2,6.8-5.2
				c0,0-4,3.1,2.6,5.7c0,0,3.4-1.6,1.5-3.9c0,0,5.4,2,2.5,4.5c0,0,6.5-7.2-5.5-12.2c0,0,14.3,3.9,9.5,11.8c0,0,3.1-7.2,14.4-5
				c0,0-10.9-1.1-8,5.3c0,0,6.4-1.3,4-3.4c0,0,6.7,0.8,3,3.2c0,0,9.6-5.2-1.3-9.8c0,0,10.7,2.8,6.4,9c0,0,3.3-5,9.2-5.5
				c0,0-4.5,1.3-3.1,4.5c0,0,8.8-2.8,4.3-6.9c0,0,5.9,2.7,1.3,8c0,0,4.4-6,12.7-5.5c0,0-9.6,2.7-10.3,13.6H727.3z"/>
		</g>
		<g id="XMLID_492_">
			<path id="XMLID_493_" style="fill:#6BA543;" d="M908.8,21.8c0,0,0.9-15.4-8.5-19.3c0,0,9.4,2.5,11.8,8.6c0,0-3.6-7,9.7-11.1
				c0,0-12.1,5.9-1.7,14c0,0-3.8-4.5,1.7-7.2c0,0-2.4,5.2,3.8,7.1c0,0,3.8-7.2-1.1-10.2c0,0,6.8,3.2,6.8,8.9c0,0-0.5-4.2,4-5
				c0,0-3.8,1.7,0,5.6c0,0-0.6-7.8,9.5-8.3c0,0-9.3,3.7-3.4,8.3c0,0,9.1-8.1,3.4-13c0,0,8.7,4.6,5.9,11.8c0,0,2.6-6.8,9-8.9
				c0,0-6.4,5.4-3.8,8.8c0,0,11.1-6.9,6.9-11.3c0,0,7.6,8.3,1,14.1c0,0,9.4-4.5,5.9-8.6c0,0,4.7,3.5,0.8,8.1c0,0,2.5-4,6.5-3.6
				c0,0-5.3,1.9,1,3.8c0,0,5.5-4.5,0-7.6c0,0,8.9,2.8,5.2,7.2c0,0,7.8-6.3,0.9-10.4c0,0,7.8,3.6,4.3,9.7c0,0,4-6.7,10.2-7.9
				c0,0-7.3,3.8-3.1,7.4c0,0,3.6-0.7,3.1-3c0,0,3.5,2.2,1.2,4.8c0,0,6.9-4.6,2.9-7.5c0,0,6.1,3.9,3.1,6.9c0,0,7.6-7.4-2.1-12.2
				c0,0,11.4,5.2,7.8,11.7c0,0,1.2-5.2,5.4-5.7c0,0-3.6,4.8,0,6c0,0,8.9-5.5,5-10.9c0,0,5,3.8,1.4,10.3c0,0,0.8-5.3,8.7-6
				c0,0-8.5,2.8-2.6,6.4c0,0,12.3-5.9,2.6-11.8c0,0,10.9,5.4,5.2,12.2c0,0,11.4-5.3,6.9-8.8c0,0,5.6,3.9,2,8.4c0,0,2.5-4.2,6.8-5.2
				c0,0-4,3.1,2.6,5.7c0,0,3.4-1.6,1.5-3.9c0,0,5.4,2,2.5,4.5c0,0,6.5-7.2-5.5-12.2c0,0,14.3,3.9,9.5,11.8c0,0,3.1-7.2,14.4-5
				c0,0-10.9-1.1-8,5.3c0,0,6.4-1.3,4-3.4c0,0,6.7,0.8,3,3.2c0,0,9.6-5.2-1.3-9.8c0,0,10.7,2.8,6.4,9c0,0,3.3-5,9.2-5.5
				c0,0-4.5,1.3-3.1,4.5c0,0,8.8-2.8,4.3-6.9c0,0,5.9,2.7,1.3,8c0,0,4.4-6,12.7-5.5c0,0-9.6,2.7-10.3,13.6H908.8z"/>
		</g>
	</g>
</g>
</svg>
