<?xml version="1.0" standalone="no"?>
<!DOCTYPE svg PUBLIC "-//W3C//DTD SVG 20010904//EN"
 "http://www.w3.org/TR/2001/REC-SVG-20010904/DTD/svg10.dtd">
<svg version="1.0" xmlns="http://www.w3.org/2000/svg"
 width="600.000000pt" height="600.000000pt" viewBox="0 0 600.000000 600.000000"
 preserveAspectRatio="xMidYMid meet">
<metadata>
Created by potrace 1.11, written by Peter Selinger 2001-2013
</metadata>
<g transform="translate(0.000000,600.000000) scale(0.100000,-0.100000)"
fill="#000000" stroke="none">
<path d="M3679 4857 c-24 -63 -49 -139 -54 -165 -2 -12 -6 -26 -9 -30 -7 -12
-20 -177 -19 -247 0 -33 4 -112 8 -175 7 -104 6 -119 -11 -145 -35 -56 -119
-168 -146 -197 -16 -16 -28 -30 -28 -32 0 -8 -132 -136 -176 -172 -27 -21 -51
-42 -54 -45 -10 -14 -200 -122 -200 -115 0 3 -20 -3 -45 -14 -24 -10 -68 -22
-97 -25 -127 -15 -145 -16 -178 -16 -107 1 -232 19 -304 43 -33 11 -68 20 -78
21 -10 1 -18 5 -18 9 0 4 -7 8 -16 8 -26 0 -215 106 -234 131 -3 3 -10 8 -16
10 -35 13 -258 225 -319 304 -16 21 -35 43 -40 49 -20 21 -115 156 -115 163 0
5 -9 19 -20 33 -20 26 -66 34 -86 15 -31 -30 -17 -128 34 -237 18 -37 32 -70
32 -74 0 -6 108 -159 140 -196 19 -22 47 -57 120 -147 19 -24 79 -88 132 -142
54 -55 100 -110 104 -124 3 -14 3 -42 -2 -63 -4 -20 -8 -46 -9 -57 -1 -11 -7
-45 -13 -75 -6 -30 -14 -67 -16 -83 -3 -15 -7 -36 -11 -46 -3 -11 -7 -35 -9
-53 -2 -18 -13 -80 -25 -138 -12 -58 -24 -118 -27 -135 -2 -16 -7 -38 -10 -48
-3 -10 -7 -31 -9 -47 -2 -16 -8 -46 -14 -67 -5 -21 -12 -57 -15 -80 -3 -22 -8
-52 -10 -65 -3 -12 -8 -34 -11 -48 -2 -14 -9 -45 -14 -70 -5 -25 -12 -64 -15
-88 -3 -24 -8 -46 -10 -50 -4 -7 -14 -81 -22 -162 -5 -54 13 -97 47 -112 16
-7 29 -16 29 -20 0 -4 7 -5 16 -1 9 3 20 0 26 -8 7 -11 11 -11 15 -1 2 6 11
12 18 12 24 0 70 97 100 210 3 8 9 33 15 55 6 22 13 49 16 60 8 29 22 84 33
135 6 25 13 56 16 70 7 31 24 107 31 140 2 14 7 33 10 42 3 9 7 25 9 35 2 10
8 38 14 63 7 25 14 56 17 69 3 13 9 33 15 43 9 16 12 17 24 4 8 -8 15 -25 15
-38 0 -13 14 -72 30 -133 17 -60 32 -115 33 -122 2 -7 6 -16 10 -19 4 -4 7
-14 7 -22 0 -13 46 -110 88 -189 20 -36 132 -153 148 -153 7 0 17 -6 21 -12
10 -16 103 -61 111 -54 3 3 11 1 19 -5 7 -6 13 -9 13 -6 0 4 17 1 38 -6 37
-12 169 -16 187 -5 6 3 28 11 50 18 38 12 117 60 160 98 11 9 49 53 85 97 36
44 67 82 70 85 3 3 12 19 20 35 8 17 19 37 26 45 14 18 55 99 85 163 22 50 44
58 45 16 0 -13 3 -71 7 -129 4 -58 10 -150 13 -205 3 -55 8 -103 10 -106 2 -3
4 -33 4 -65 2 -114 33 -214 66 -214 8 0 14 -4 14 -10 0 -22 66 -10 100 19 l35
29 0 158 c0 88 -4 220 -10 294 -5 74 -9 197 -8 273 2 118 6 149 28 210 13 40
29 73 35 75 5 2 10 12 10 22 0 10 27 50 60 88 67 79 203 178 320 235 14 6 27
14 30 17 12 15 163 80 240 105 147 46 189 67 215 105 11 17 23 30 28 30 4 0 7
5 7 11 0 6 8 23 18 37 32 48 71 164 88 262 4 25 8 47 9 50 1 3 5 17 9 32 4 15
4 33 0 40 -5 7 -10 22 -11 32 -7 41 -28 51 -100 48 -98 -4 -143 -8 -150 -15
-13 -14 -61 72 -67 123 -1 3 -17 41 -35 85 -32 75 -87 144 -115 146 -6 0 -20
3 -31 6 -29 8 -85 7 -125 -1 -19 -4 -42 -7 -50 -7 -8 -1 -35 -7 -60 -14 -64
-19 -115 -26 -133 -20 -14 6 -20 25 -33 105 -6 31 -24 127 -30 158 -3 13 -11
43 -19 65 -8 23 -15 50 -15 60 0 9 -4 17 -8 17 -5 0 -15 23 -22 50 -7 28 -17
50 -22 50 -4 0 -7 3 -6 8 4 13 -41 82 -54 82 -2 0 -10 -19 -19 -43z"/>
</g>
</svg>
