<?xml version="1.0" encoding="utf-8"?>
<!-- Generator: Adobe Illustrator 19.0.0, SVG Export Plug-In . SVG Version: 6.00 Build 0)  -->
<svg version="1.1" id="service_x5F_colourbond" xmlns="http://www.w3.org/2000/svg" xmlns:xlink="http://www.w3.org/1999/xlink"
	 x="0px" y="0px" viewBox="0 0 766 443.5" style="enable-background:new 0 0 766 443.5;" xml:space="preserve">
<g id="service_x5F_colourbond_x5F_back">
	<g id="XMLID_722_">
		<rect id="XMLID_942_" x="235.5" y="345" style="fill:#486380;" width="81" height="71.9"/>
		<rect id="XMLID_939_" x="246.8" y="346" style="fill:#486380;" width="5.7" height="70"/>
		<rect id="XMLID_936_" x="236.1" y="346.1" style="fill:#486380;" width="1" height="69.5"/>
		<path id="XMLID_935_" style="fill:#2F4151;" d="M238.2,346c-0.3,0.1-0.6,0.1-1,0.2v69.5c0.3,0.1,0.7,0.3,1,0.4
			C238.2,392.7,238.2,369.3,238.2,346z"/>
		<rect id="XMLID_932_" x="238.1" y="346" style="fill:#486380;" width="5.7" height="70"/>
		<path id="XMLID_931_" style="fill:#2F4151;" d="M243.8,346c0.4,0.1,0.7,0.1,1.1,0.2v69.5c-0.4,0.1-0.7,0.3-1.1,0.4
			C243.8,392.7,243.8,369.3,243.8,346z"/>
		<rect id="XMLID_928_" x="244.8" y="346.1" style="fill:#486380;" width="1" height="69.5"/>
		<polygon id="XMLID_927_" style="fill:#2F4151;" points="246.9,346 245.9,346.1 245.9,415.6 246.9,416 		"/>
		<path id="XMLID_926_" style="fill:#2F4151;" d="M252.5,346c0.4,0.1,0.7,0.1,1.1,0.2v69.5c-0.3,0.1-0.7,0.3-1,0.4
			C252.6,392.7,252.5,369.3,252.5,346z"/>
		<rect id="XMLID_923_" x="253.5" y="346.1" style="fill:#486380;" width="1" height="69.5"/>
		<path id="XMLID_922_" style="fill:#2F4151;" d="M255.6,346c-0.3,0.1-0.6,0.1-1,0.2v69.5c0.3,0.1,0.7,0.3,1,0.4
			C255.6,392.7,255.6,369.3,255.6,346z"/>
		<rect id="XMLID_919_" x="255.5" y="346" style="fill:#486380;" width="5.7" height="70"/>
		<path id="XMLID_918_" style="fill:#2F4151;" d="M261.2,346c0.4,0.1,0.7,0.1,1.1,0.2v69.5c-0.4,0.1-0.7,0.3-1.1,0.4
			C261.2,392.7,261.2,369.3,261.2,346z"/>
		<rect id="XMLID_915_" x="262.2" y="346.1" style="fill:#486380;" width="1" height="69.5"/>
		<polygon id="XMLID_914_" style="fill:#2F4151;" points="264.3,346 263.3,346.1 263.3,415.6 264.3,416 		"/>
		<rect id="XMLID_911_" x="273" y="346" style="fill:#486380;" width="5.7" height="70"/>
		<rect id="XMLID_908_" x="264.3" y="346" style="fill:#486380;" width="5.7" height="70"/>
		<path id="XMLID_907_" style="fill:#2F4151;" d="M270,346c0.4,0.1,0.7,0.1,1.1,0.2v69.5c-0.4,0.1-0.7,0.3-1.1,0.4
			C270,392.7,270,369.3,270,346z"/>
		<rect id="XMLID_904_" x="271" y="346.1" style="fill:#486380;" width="1" height="69.5"/>
		<polygon id="XMLID_903_" style="fill:#2F4151;" points="273.1,346 272.1,346.1 272.1,415.6 273.1,416 		"/>
		<path id="XMLID_902_" style="fill:#2F4151;" d="M278.7,346c0.4,0.1,0.7,0.1,1.1,0.2v69.5c-0.3,0.1-0.7,0.3-1,0.4
			C278.7,392.7,278.7,369.3,278.7,346z"/>
		<rect id="XMLID_899_" x="279.7" y="346.1" style="fill:#486380;" width="1" height="69.5"/>
		<path id="XMLID_898_" style="fill:#2F4151;" d="M281.7,346c-0.3,0.1-0.6,0.1-1,0.2v69.5c0.3,0.1,0.7,0.3,1,0.4
			C281.8,392.7,281.7,369.3,281.7,346z"/>
		<rect id="XMLID_895_" x="281.7" y="346" style="fill:#486380;" width="5.7" height="70"/>
		<path id="XMLID_894_" style="fill:#2F4151;" d="M287.4,346c0.4,0.1,0.7,0.1,1.1,0.2v69.5c-0.4,0.1-0.7,0.3-1.1,0.4
			C287.4,392.7,287.4,369.3,287.4,346z"/>
		<rect id="XMLID_891_" x="288.4" y="346.1" style="fill:#486380;" width="1" height="69.5"/>
		<polygon id="XMLID_890_" style="fill:#2F4151;" points="290.4,346 289.5,346.1 289.5,415.6 290.4,416 		"/>
		<rect id="XMLID_887_" x="299.2" y="346" style="fill:#486380;" width="5.7" height="70"/>
		<rect id="XMLID_884_" x="290.5" y="346" style="fill:#486380;" width="5.7" height="70"/>
		<path id="XMLID_883_" style="fill:#2F4151;" d="M296.2,346c0.4,0.1,0.7,0.1,1.1,0.2v69.5c-0.4,0.1-0.7,0.3-1.1,0.4
			C296.2,392.7,296.2,369.3,296.2,346z"/>
		<rect id="XMLID_880_" x="297.2" y="346.1" style="fill:#486380;" width="1" height="69.5"/>
		<polygon id="XMLID_879_" style="fill:#2F4151;" points="299.2,346 298.3,346.1 298.3,415.6 299.2,416 		"/>
		<path id="XMLID_878_" style="fill:#2F4151;" d="M304.9,346c0.4,0.1,0.7,0.1,1.1,0.2v69.5c-0.3,0.1-0.7,0.3-1,0.4
			C304.9,392.7,304.9,369.3,304.9,346z"/>
		<rect id="XMLID_875_" x="305.9" y="346.1" style="fill:#486380;" width="1" height="69.5"/>
		<path id="XMLID_874_" style="fill:#2F4151;" d="M307.9,346c-0.3,0.1-0.6,0.1-1,0.2v69.5c0.3,0.1,0.7,0.3,1,0.4
			C307.9,392.7,307.9,369.3,307.9,346z"/>
		<rect id="XMLID_871_" x="307.9" y="346" style="fill:#486380;" width="5.7" height="70"/>
		<path id="XMLID_870_" style="fill:#2F4151;" d="M313.6,346c0.4,0.1,0.7,0.1,1.1,0.2v69.5c-0.4,0.1-0.7,0.3-1.1,0.4
			C313.6,392.7,313.6,369.3,313.6,346z"/>
		<rect id="XMLID_867_" x="314.7" y="346.1" style="fill:#486380;" width="1" height="69.5"/>
		<rect id="XMLID_866_" x="236.1" y="344.1" style="fill:#486380;" width="79.6" height="1.9"/>
		<rect id="XMLID_863_" x="236.1" y="345.7" style="fill:#1F2A33;" width="79.6" height="0.2"/>
		<rect id="XMLID_862_" x="236.1" y="345.4" style="fill:#3E5468;" width="79.6" height="0.1"/>
		<rect id="XMLID_861_" x="236.1" y="344.5" style="fill:#3E5468;" width="79.6" height="0.1"/>
		<g id="XMLID_846_">
			<rect id="XMLID_860_" x="315.7" y="344.1" style="fill:#486380;" width="2.4" height="73.8"/>
			<rect id="XMLID_857_" x="315.7" y="344.1" style="fill:#1F2A33;" width="0.3" height="73.8"/>
			<rect id="XMLID_856_" x="316.3" y="344.1" style="fill:#3E5468;" width="0.1" height="73.8"/>
			<rect id="XMLID_855_" x="317.4" y="344.1" style="fill:#3E5468;" width="0.1" height="73.8"/>
			<rect id="XMLID_852_" x="318" y="344.1" style="fill:#1F2A33;" width="0.3" height="73.8"/>
		</g>
		<g id="XMLID_723_">
			<rect id="XMLID_814_" x="236.2" y="416" style="fill:#486380;" width="79.5" height="1.9"/>
			<rect id="XMLID_726_" x="236.2" y="416" style="fill:#1F2A33;" width="79.5" height="0.2"/>
			<rect id="XMLID_725_" x="236.2" y="416.5" style="fill:#3E5468;" width="79.5" height="0.1"/>
			<rect id="XMLID_724_" x="236.2" y="417.4" style="fill:#3E5468;" width="79.5" height="0.1"/>
		</g>
	</g>
	<g id="XMLID_332_">
		<rect id="XMLID_811_" x="153.5" y="345" style="fill:#486380;" width="81" height="71.9"/>
		<rect id="XMLID_808_" x="164.8" y="346" style="fill:#486380;" width="5.7" height="70"/>
		<rect id="XMLID_805_" x="154.1" y="346.1" style="fill:#486380;" width="1" height="69.5"/>
		<path id="XMLID_804_" style="fill:#2F4151;" d="M156.2,346c-0.3,0.1-0.6,0.1-1,0.2v69.5c0.3,0.1,0.7,0.3,1,0.4
			C156.2,392.7,156.2,369.3,156.2,346z"/>
		<rect id="XMLID_801_" x="156.1" y="346" style="fill:#486380;" width="5.7" height="70"/>
		<path id="XMLID_799_" style="fill:#2F4151;" d="M161.8,346c0.4,0.1,0.7,0.1,1.1,0.2v69.5c-0.4,0.1-0.7,0.3-1.1,0.4
			C161.8,392.7,161.8,369.3,161.8,346z"/>
		<rect id="XMLID_796_" x="162.8" y="346.1" style="fill:#486380;" width="1" height="69.5"/>
		<polygon id="XMLID_795_" style="fill:#2F4151;" points="164.9,346 163.9,346.1 163.9,415.6 164.9,416 		"/>
		<path id="XMLID_794_" style="fill:#2F4151;" d="M170.5,346c0.4,0.1,0.7,0.1,1.1,0.2v69.5c-0.3,0.1-0.7,0.3-1,0.4
			C170.6,392.7,170.5,369.3,170.5,346z"/>
		<rect id="XMLID_791_" x="171.5" y="346.1" style="fill:#486380;" width="1" height="69.5"/>
		<path id="XMLID_790_" style="fill:#2F4151;" d="M173.6,346c-0.3,0.1-0.6,0.1-1,0.2v69.5c0.3,0.1,0.7,0.3,1,0.4
			C173.6,392.7,173.6,369.3,173.6,346z"/>
		<rect id="XMLID_787_" x="173.5" y="346" style="fill:#486380;" width="5.7" height="70"/>
		<path id="XMLID_786_" style="fill:#2F4151;" d="M179.2,346c0.4,0.1,0.7,0.1,1.1,0.2v69.5c-0.4,0.1-0.7,0.3-1.1,0.4
			C179.2,392.7,179.2,369.3,179.2,346z"/>
		<rect id="XMLID_783_" x="180.2" y="346.1" style="fill:#486380;" width="1" height="69.5"/>
		<polygon id="XMLID_782_" style="fill:#2F4151;" points="182.3,346 181.3,346.1 181.3,415.6 182.3,416 		"/>
		<rect id="XMLID_779_" x="191" y="346" style="fill:#486380;" width="5.7" height="70"/>
		<rect id="XMLID_776_" x="182.3" y="346" style="fill:#486380;" width="5.7" height="70"/>
		<path id="XMLID_775_" style="fill:#2F4151;" d="M188,346c0.4,0.1,0.7,0.1,1.1,0.2v69.5c-0.4,0.1-0.7,0.3-1.1,0.4
			C188,392.7,188,369.3,188,346z"/>
		<rect id="XMLID_772_" x="189" y="346.1" style="fill:#486380;" width="1" height="69.5"/>
		<polygon id="XMLID_771_" style="fill:#2F4151;" points="191.1,346 190.1,346.1 190.1,415.6 191.1,416 		"/>
		<path id="XMLID_770_" style="fill:#2F4151;" d="M196.7,346c0.4,0.1,0.7,0.1,1.1,0.2v69.5c-0.3,0.1-0.7,0.3-1,0.4
			C196.7,392.7,196.7,369.3,196.7,346z"/>
		<rect id="XMLID_767_" x="197.7" y="346.1" style="fill:#486380;" width="1" height="69.5"/>
		<path id="XMLID_766_" style="fill:#2F4151;" d="M199.7,346c-0.3,0.1-0.6,0.1-1,0.2v69.5c0.3,0.1,0.7,0.3,1,0.4
			C199.8,392.7,199.7,369.3,199.7,346z"/>
		<rect id="XMLID_763_" x="199.7" y="346" style="fill:#486380;" width="5.7" height="70"/>
		<path id="XMLID_762_" style="fill:#2F4151;" d="M205.4,346c0.4,0.1,0.7,0.1,1.1,0.2v69.5c-0.4,0.1-0.7,0.3-1.1,0.4
			C205.4,392.7,205.4,369.3,205.4,346z"/>
		<rect id="XMLID_759_" x="206.4" y="346.1" style="fill:#486380;" width="1" height="69.5"/>
		<polygon id="XMLID_758_" style="fill:#2F4151;" points="208.4,346 207.5,346.1 207.5,415.6 208.4,416 		"/>
		<rect id="XMLID_755_" x="217.2" y="346" style="fill:#486380;" width="5.7" height="70"/>
		<rect id="XMLID_752_" x="208.5" y="346" style="fill:#486380;" width="5.7" height="70"/>
		<path id="XMLID_751_" style="fill:#2F4151;" d="M214.2,346c0.4,0.1,0.7,0.1,1.1,0.2v69.5c-0.4,0.1-0.7,0.3-1.1,0.4
			C214.2,392.7,214.2,369.3,214.2,346z"/>
		<rect id="XMLID_748_" x="215.2" y="346.1" style="fill:#486380;" width="1" height="69.5"/>
		<polygon id="XMLID_747_" style="fill:#2F4151;" points="217.2,346 216.3,346.1 216.3,415.6 217.2,416 		"/>
		<path id="XMLID_746_" style="fill:#2F4151;" d="M222.9,346c0.4,0.1,0.7,0.1,1.1,0.2v69.5c-0.3,0.1-0.7,0.3-1,0.4
			C222.9,392.7,222.9,369.3,222.9,346z"/>
		<rect id="XMLID_743_" x="223.9" y="346.1" style="fill:#486380;" width="1" height="69.5"/>
		<path id="XMLID_742_" style="fill:#2F4151;" d="M225.9,346c-0.3,0.1-0.6,0.1-1,0.2v69.5c0.3,0.1,0.7,0.3,1,0.4
			C225.9,392.7,225.9,369.3,225.9,346z"/>
		<rect id="XMLID_739_" x="225.9" y="346" style="fill:#486380;" width="5.7" height="70"/>
		<path id="XMLID_738_" style="fill:#2F4151;" d="M231.6,346c0.4,0.1,0.7,0.1,1.1,0.2v69.5c-0.4,0.1-0.7,0.3-1.1,0.4
			C231.6,392.7,231.6,369.3,231.6,346z"/>
		<rect id="XMLID_735_" x="232.7" y="346.1" style="fill:#486380;" width="1" height="69.5"/>
		<rect id="XMLID_734_" x="154.1" y="344.1" style="fill:#486380;" width="79.6" height="1.9"/>
		<rect id="XMLID_731_" x="154.1" y="345.7" style="fill:#1F2A33;" width="79.6" height="0.2"/>
		<rect id="XMLID_730_" x="154.1" y="345.4" style="fill:#3E5468;" width="79.6" height="0.1"/>
		<rect id="XMLID_729_" x="154.1" y="344.5" style="fill:#3E5468;" width="79.6" height="0.1"/>
		<g id="XMLID_509_">
			<rect id="XMLID_721_" x="233.7" y="344.1" style="fill:#486380;" width="2.4" height="73.8"/>
			<rect id="XMLID_679_" x="233.7" y="344.1" style="fill:#1F2A33;" width="0.3" height="73.8"/>
			<rect id="XMLID_678_" x="234.3" y="344.1" style="fill:#3E5468;" width="0.1" height="73.8"/>
			<rect id="XMLID_677_" x="235.4" y="344.1" style="fill:#3E5468;" width="0.1" height="73.8"/>
			<rect id="XMLID_674_" x="236" y="344.1" style="fill:#1F2A33;" width="0.3" height="73.8"/>
		</g>
		<g id="XMLID_448_">
			<rect id="XMLID_505_" x="154.2" y="416" style="fill:#486380;" width="79.5" height="1.9"/>
			<rect id="XMLID_459_" x="154.2" y="416" style="fill:#1F2A33;" width="79.5" height="0.2"/>
			<rect id="XMLID_458_" x="154.2" y="416.5" style="fill:#3E5468;" width="79.5" height="0.1"/>
			<rect id="XMLID_456_" x="154.2" y="417.4" style="fill:#3E5468;" width="79.5" height="0.1"/>
		</g>
	</g>
	<g id="XMLID_83_">
		<rect id="XMLID_663_" x="71.5" y="345" style="fill:#486380;" width="81" height="71.9"/>
		<rect id="XMLID_660_" x="82.8" y="346" style="fill:#486380;" width="5.7" height="70"/>
		<rect id="XMLID_657_" x="72.1" y="346.1" style="fill:#486380;" width="1" height="69.5"/>
		<path id="XMLID_656_" style="fill:#2F4151;" d="M74.2,346c-0.3,0.1-0.6,0.1-1,0.2v69.5c0.3,0.1,0.7,0.3,1,0.4
			C74.2,392.7,74.2,369.3,74.2,346z"/>
		<rect id="XMLID_653_" x="74.1" y="346" style="fill:#486380;" width="5.7" height="70"/>
		<path id="XMLID_652_" style="fill:#2F4151;" d="M79.8,346c0.4,0.1,0.7,0.1,1.1,0.2v69.5c-0.4,0.1-0.7,0.3-1.1,0.4
			C79.8,392.7,79.8,369.3,79.8,346z"/>
		<rect id="XMLID_649_" x="80.8" y="346.1" style="fill:#486380;" width="1" height="69.5"/>
		<polygon id="XMLID_648_" style="fill:#2F4151;" points="82.9,346 81.9,346.1 81.9,415.6 82.9,416 		"/>
		<path id="XMLID_647_" style="fill:#2F4151;" d="M88.5,346c0.4,0.1,0.7,0.1,1.1,0.2v69.5c-0.3,0.1-0.7,0.3-1,0.4
			C88.6,392.7,88.5,369.3,88.5,346z"/>
		<rect id="XMLID_644_" x="89.5" y="346.1" style="fill:#486380;" width="1" height="69.5"/>
		<path id="XMLID_643_" style="fill:#2F4151;" d="M91.6,346c-0.3,0.1-0.6,0.1-1,0.2v69.5c0.3,0.1,0.7,0.3,1,0.4
			C91.6,392.7,91.6,369.3,91.6,346z"/>
		<rect id="XMLID_640_" x="91.5" y="346" style="fill:#486380;" width="5.7" height="70"/>
		<path id="XMLID_639_" style="fill:#2F4151;" d="M97.2,346c0.4,0.1,0.7,0.1,1.1,0.2v69.5c-0.4,0.1-0.7,0.3-1.1,0.4
			C97.2,392.7,97.2,369.3,97.2,346z"/>
		<rect id="XMLID_636_" x="98.2" y="346.1" style="fill:#486380;" width="1" height="69.5"/>
		<polygon id="XMLID_635_" style="fill:#2F4151;" points="100.3,346 99.3,346.1 99.3,415.6 100.3,416 		"/>
		<rect id="XMLID_632_" x="109" y="346" style="fill:#486380;" width="5.7" height="70"/>
		<rect id="XMLID_629_" x="100.3" y="346" style="fill:#486380;" width="5.7" height="70"/>
		<path id="XMLID_628_" style="fill:#2F4151;" d="M106,346c0.4,0.1,0.7,0.1,1.1,0.2v69.5c-0.4,0.1-0.7,0.3-1.1,0.4
			C106,392.7,106,369.3,106,346z"/>
		<rect id="XMLID_625_" x="107" y="346.1" style="fill:#486380;" width="1" height="69.5"/>
		<polygon id="XMLID_624_" style="fill:#2F4151;" points="109.1,346 108.1,346.1 108.1,415.6 109.1,416 		"/>
		<path id="XMLID_623_" style="fill:#2F4151;" d="M114.7,346c0.4,0.1,0.7,0.1,1.1,0.2v69.5c-0.3,0.1-0.7,0.3-1,0.4
			C114.7,392.7,114.7,369.3,114.7,346z"/>
		<rect id="XMLID_620_" x="115.7" y="346.1" style="fill:#486380;" width="1" height="69.5"/>
		<path id="XMLID_619_" style="fill:#2F4151;" d="M117.7,346c-0.3,0.1-0.6,0.1-1,0.2v69.5c0.3,0.1,0.7,0.3,1,0.4
			C117.8,392.7,117.7,369.3,117.7,346z"/>
		<rect id="XMLID_616_" x="117.7" y="346" style="fill:#486380;" width="5.7" height="70"/>
		<path id="XMLID_615_" style="fill:#2F4151;" d="M123.4,346c0.4,0.1,0.7,0.1,1.1,0.2v69.5c-0.4,0.1-0.7,0.3-1.1,0.4
			C123.4,392.7,123.4,369.3,123.4,346z"/>
		<rect id="XMLID_612_" x="124.4" y="346.1" style="fill:#486380;" width="1" height="69.5"/>
		<polygon id="XMLID_611_" style="fill:#2F4151;" points="126.4,346 125.5,346.1 125.5,415.6 126.4,416 		"/>
		<rect id="XMLID_608_" x="135.2" y="346" style="fill:#486380;" width="5.7" height="70"/>
		<rect id="XMLID_605_" x="126.5" y="346" style="fill:#486380;" width="5.7" height="70"/>
		<path id="XMLID_604_" style="fill:#2F4151;" d="M132.2,346c0.4,0.1,0.7,0.1,1.1,0.2v69.5c-0.4,0.1-0.7,0.3-1.1,0.4
			C132.2,392.7,132.2,369.3,132.2,346z"/>
		<rect id="XMLID_601_" x="133.2" y="346.1" style="fill:#486380;" width="1" height="69.5"/>
		<polygon id="XMLID_600_" style="fill:#2F4151;" points="135.2,346 134.3,346.1 134.3,415.6 135.2,416 		"/>
		<path id="XMLID_599_" style="fill:#2F4151;" d="M140.9,346c0.4,0.1,0.7,0.1,1.1,0.2v69.5c-0.3,0.1-0.7,0.3-1,0.4
			C140.9,392.7,140.9,369.3,140.9,346z"/>
		<rect id="XMLID_596_" x="141.9" y="346.1" style="fill:#486380;" width="1" height="69.5"/>
		<path id="XMLID_595_" style="fill:#2F4151;" d="M143.9,346c-0.3,0.1-0.6,0.1-1,0.2v69.5c0.3,0.1,0.7,0.3,1,0.4
			C143.9,392.7,143.9,369.3,143.9,346z"/>
		<rect id="XMLID_592_" x="143.9" y="346" style="fill:#486380;" width="5.7" height="70"/>
		<path id="XMLID_591_" style="fill:#2F4151;" d="M149.6,346c0.4,0.1,0.7,0.1,1.1,0.2v69.5c-0.4,0.1-0.7,0.3-1.1,0.4
			C149.6,392.7,149.6,369.3,149.6,346z"/>
		<rect id="XMLID_588_" x="150.7" y="346.1" style="fill:#486380;" width="1" height="69.5"/>
		<rect id="XMLID_587_" x="72.1" y="344.1" style="fill:#486380;" width="79.6" height="1.9"/>
		<rect id="XMLID_584_" x="72.1" y="345.7" style="fill:#1F2A33;" width="79.6" height="0.2"/>
		<rect id="XMLID_583_" x="72.1" y="345.4" style="fill:#3E5468;" width="79.6" height="0.1"/>
		<rect id="XMLID_582_" x="72.1" y="344.5" style="fill:#3E5468;" width="79.6" height="0.1"/>
		<g id="XMLID_575_">
			<rect id="XMLID_581_" x="69.8" y="344.1" style="fill:#486380;" width="2.4" height="73.9"/>
			<rect id="XMLID_578_" x="71.8" y="344.1" style="fill:#1F2A33;" width="0.3" height="73.9"/>
			<rect id="XMLID_577_" x="71.4" y="344.1" style="fill:#3E5468;" width="0.1" height="73.9"/>
			<rect id="XMLID_576_" x="70.3" y="344.1" style="fill:#3E5468;" width="0.1" height="73.9"/>
		</g>
		<g id="XMLID_529_">
			<rect id="XMLID_574_" x="151.7" y="344.1" style="fill:#486380;" width="2.4" height="73.8"/>
			<rect id="XMLID_571_" x="151.7" y="344.1" style="fill:#1F2A33;" width="0.3" height="73.8"/>
			<rect id="XMLID_570_" x="152.3" y="344.1" style="fill:#3E5468;" width="0.1" height="73.8"/>
			<rect id="XMLID_569_" x="153.4" y="344.1" style="fill:#3E5468;" width="0.1" height="73.8"/>
			<rect id="XMLID_467_" x="154" y="344.1" style="fill:#1F2A33;" width="0.3" height="73.8"/>
		</g>
		<g id="XMLID_86_">
			<rect id="XMLID_103_" x="72.2" y="416" style="fill:#486380;" width="79.5" height="1.9"/>
			<rect id="XMLID_91_" x="72.2" y="416" style="fill:#1F2A33;" width="79.5" height="0.2"/>
			<rect id="XMLID_89_" x="72.2" y="416.5" style="fill:#3E5468;" width="79.5" height="0.1"/>
			<rect id="XMLID_88_" x="72.2" y="417.4" style="fill:#3E5468;" width="79.5" height="0.1"/>
		</g>
	</g>
	<g id="XMLID_2_">
		<rect id="XMLID_1780_" x="632.5" y="345" style="fill:#486380;" width="81" height="71.9"/>
		<rect id="XMLID_1777_" x="643.8" y="346" style="fill:#486380;" width="5.7" height="70"/>
		<rect id="XMLID_1774_" x="633.1" y="346.1" style="fill:#486380;" width="1" height="69.5"/>
		<path id="XMLID_1773_" style="fill:#2F4151;" d="M635.2,346c-0.3,0.1-0.6,0.1-1,0.2v69.5c0.3,0.1,0.7,0.3,1,0.4
			C635.2,392.7,635.2,369.3,635.2,346z"/>
		<rect id="XMLID_1770_" x="635.1" y="346" style="fill:#486380;" width="5.7" height="70"/>
		<path id="XMLID_1769_" style="fill:#2F4151;" d="M640.8,346c0.4,0.1,0.7,0.1,1.1,0.2v69.5c-0.4,0.1-0.7,0.3-1.1,0.4
			C640.8,392.7,640.8,369.3,640.8,346z"/>
		<rect id="XMLID_1766_" x="641.8" y="346.1" style="fill:#486380;" width="1" height="69.5"/>
		<polygon id="XMLID_1765_" style="fill:#2F4151;" points="643.9,346 642.9,346.1 642.9,415.6 643.9,416 		"/>
		<path id="XMLID_1764_" style="fill:#2F4151;" d="M649.5,346c0.4,0.1,0.7,0.1,1.1,0.2v69.5c-0.3,0.1-0.7,0.3-1,0.4
			C649.6,392.7,649.5,369.3,649.5,346z"/>
		<rect id="XMLID_1761_" x="650.5" y="346.1" style="fill:#486380;" width="1" height="69.5"/>
		<path id="XMLID_1760_" style="fill:#2F4151;" d="M652.6,346c-0.3,0.1-0.6,0.1-1,0.2v69.5c0.3,0.1,0.7,0.3,1,0.4
			C652.6,392.7,652.6,369.3,652.6,346z"/>
		<rect id="XMLID_1757_" x="652.5" y="346" style="fill:#486380;" width="5.7" height="70"/>
		<path id="XMLID_1756_" style="fill:#2F4151;" d="M658.2,346c0.4,0.1,0.7,0.1,1.1,0.2v69.5c-0.4,0.1-0.7,0.3-1.1,0.4
			C658.2,392.7,658.2,369.3,658.2,346z"/>
		<rect id="XMLID_1753_" x="659.2" y="346.1" style="fill:#486380;" width="1" height="69.5"/>
		<polygon id="XMLID_1752_" style="fill:#2F4151;" points="661.3,346 660.3,346.1 660.3,415.6 661.3,416 		"/>
		<rect id="XMLID_1749_" x="670" y="346" style="fill:#486380;" width="5.7" height="70"/>
		<rect id="XMLID_1746_" x="661.3" y="346" style="fill:#486380;" width="5.7" height="70"/>
		<path id="XMLID_1745_" style="fill:#2F4151;" d="M667,346c0.4,0.1,0.7,0.1,1.1,0.2v69.5c-0.4,0.1-0.7,0.3-1.1,0.4
			C667,392.7,667,369.3,667,346z"/>
		<rect id="XMLID_1742_" x="668" y="346.1" style="fill:#486380;" width="1" height="69.5"/>
		<polygon id="XMLID_1741_" style="fill:#2F4151;" points="670.1,346 669.1,346.1 669.1,415.6 670.1,416 		"/>
		<path id="XMLID_1740_" style="fill:#2F4151;" d="M675.7,346c0.4,0.1,0.7,0.1,1.1,0.2v69.5c-0.3,0.1-0.7,0.3-1,0.4
			C675.7,392.7,675.7,369.3,675.7,346z"/>
		<rect id="XMLID_1737_" x="676.7" y="346.1" style="fill:#486380;" width="1" height="69.5"/>
		<path id="XMLID_1736_" style="fill:#2F4151;" d="M678.7,346c-0.3,0.1-0.6,0.1-1,0.2v69.5c0.3,0.1,0.7,0.3,1,0.4
			C678.8,392.7,678.8,369.3,678.7,346z"/>
		<rect id="XMLID_1733_" x="678.7" y="346" style="fill:#486380;" width="5.7" height="70"/>
		<path id="XMLID_1732_" style="fill:#2F4151;" d="M684.4,346c0.4,0.1,0.7,0.1,1.1,0.2v69.5c-0.4,0.1-0.7,0.3-1.1,0.4
			C684.4,392.7,684.4,369.3,684.4,346z"/>
		<rect id="XMLID_1729_" x="685.4" y="346.1" style="fill:#486380;" width="1" height="69.5"/>
		<polygon id="XMLID_1728_" style="fill:#2F4151;" points="687.4,346 686.5,346.1 686.5,415.6 687.4,416 		"/>
		<rect id="XMLID_1725_" x="696.2" y="346" style="fill:#486380;" width="5.7" height="70"/>
		<rect id="XMLID_1722_" x="687.5" y="346" style="fill:#486380;" width="5.7" height="70"/>
		<path id="XMLID_1721_" style="fill:#2F4151;" d="M693.2,346c0.4,0.1,0.7,0.1,1.1,0.2v69.5c-0.4,0.1-0.7,0.3-1.1,0.4
			C693.2,392.7,693.2,369.3,693.2,346z"/>
		<rect id="XMLID_1718_" x="694.2" y="346.1" style="fill:#486380;" width="1" height="69.5"/>
		<polygon id="XMLID_1717_" style="fill:#2F4151;" points="696.2,346 695.3,346.1 695.3,415.6 696.2,416 		"/>
		<path id="XMLID_1716_" style="fill:#2F4151;" d="M701.9,346c0.4,0.1,0.7,0.1,1.1,0.2v69.5c-0.3,0.1-0.7,0.3-1,0.4
			C701.9,392.7,701.9,369.3,701.9,346z"/>
		<rect id="XMLID_1713_" x="702.9" y="346.1" style="fill:#486380;" width="1" height="69.5"/>
		<path id="XMLID_1712_" style="fill:#2F4151;" d="M704.9,346c-0.3,0.1-0.6,0.1-1,0.2v69.5c0.3,0.1,0.7,0.3,1,0.4
			C704.9,392.7,704.9,369.3,704.9,346z"/>
		<rect id="XMLID_1709_" x="704.9" y="346" style="fill:#486380;" width="5.7" height="70"/>
		<path id="XMLID_1708_" style="fill:#2F4151;" d="M710.6,346c0.4,0.1,0.7,0.1,1.1,0.2v69.5c-0.4,0.1-0.7,0.3-1.1,0.4
			C710.6,392.7,710.6,369.3,710.6,346z"/>
		<rect id="XMLID_1705_" x="711.7" y="346.1" style="fill:#486380;" width="1" height="69.5"/>
		<rect id="XMLID_1704_" x="633.1" y="344.1" style="fill:#486380;" width="79.6" height="1.9"/>
		<rect id="XMLID_1701_" x="633.1" y="345.7" style="fill:#1F2A33;" width="79.6" height="0.2"/>
		<rect id="XMLID_1700_" x="633.1" y="345.4" style="fill:#3E5468;" width="79.6" height="0.1"/>
		<rect id="XMLID_1699_" x="633.1" y="344.5" style="fill:#3E5468;" width="79.6" height="0.1"/>
		<g id="XMLID_1692_">
			<rect id="XMLID_1698_" x="630.8" y="344.1" style="fill:#486380;" width="2.4" height="73.9"/>
			<rect id="XMLID_1695_" x="632.8" y="344.1" style="fill:#1F2A33;" width="0.3" height="73.9"/>
			<rect id="XMLID_1694_" x="632.4" y="344.1" style="fill:#3E5468;" width="0.1" height="73.9"/>
			<rect id="XMLID_1693_" x="631.3" y="344.1" style="fill:#3E5468;" width="0.1" height="73.9"/>
		</g>
		<g id="XMLID_1122_">
			<rect id="XMLID_1691_" x="712.7" y="344.1" style="fill:#486380;" width="2.4" height="73.8"/>
			<rect id="XMLID_1688_" x="712.7" y="344.1" style="fill:#1F2A33;" width="0.3" height="73.8"/>
			<rect id="XMLID_1687_" x="713.3" y="344.1" style="fill:#3E5468;" width="0.1" height="73.8"/>
			<rect id="XMLID_1686_" x="714.4" y="344.1" style="fill:#3E5468;" width="0.1" height="73.8"/>
			<rect id="XMLID_1409_" x="715" y="344.1" style="fill:#1F2A33;" width="0.3" height="73.8"/>
		</g>
		<g id="XMLID_30_">
			<rect id="XMLID_684_" x="633.2" y="416" style="fill:#486380;" width="79.5" height="1.9"/>
			<rect id="XMLID_681_" x="633.2" y="416" style="fill:#1F2A33;" width="79.5" height="0.2"/>
			<rect id="XMLID_680_" x="633.2" y="416.5" style="fill:#3E5468;" width="79.5" height="0.1"/>
			<rect id="XMLID_526_" x="633.2" y="417.4" style="fill:#3E5468;" width="79.5" height="0.1"/>
		</g>
	</g>
</g>
<g id="service_x5F_colourbond_x5F_foreground">
	<g id="XMLID_397_">
		<path id="XMLID_401_" style="fill:#EAEAEA;" d="M737.1,70.4c0-0.1,0-0.2,0-0.3c0-12-9.7-21.7-21.7-21.7c-5.1,0-9.9,1.8-13.6,4.8
			c-4.9-9.9-15.1-16.7-26.9-16.7c-1.2,0-2.4,0.1-3.5,0.2c-3.3-7.2-10.6-12.3-19.1-12.3c-3.1,0-6,0.7-8.6,1.8
			C637.9,14.9,626.1,7,612.4,7c-19.3,0-35,15.7-35,35c0,2.3,0.2,4.5,0.6,6.6c-10.3,1.9-18.1,11-18.1,21.9H737.1z"/>
		<path id="XMLID_400_" style="fill:#FFFFFF;" d="M729.4,63.4c0-0.1,0-0.2,0-0.3c0-12-9.7-21.7-21.7-21.7c-5.1,0-9.9,1.8-13.6,4.8
			c-4.9-9.9-15.1-16.7-26.9-16.7c-1.2,0-2.4,0.1-3.5,0.2c-3.3-7.2-10.6-12.3-19.1-12.3c-3.1,0-6,0.7-8.6,1.8
			C630.1,7.9,618.3,0,604.6,0c-19.3,0-35,15.7-35,35c0,2.3,0.2,4.5,0.6,6.6c-10.3,1.9-18.1,11-18.1,21.9H729.4z"/>
	</g>
	<rect id="XMLID_25_" x="431.2" y="396.5" style="fill:#97969B;" width="62.9" height="25.6"/>
	<g id="XMLID_50_">
		<path id="XMLID_3_" style="fill:#8ABF3B;" d="M757.5,443.5H8.5c-4.7,0-8.5-3.8-8.5-8.5v-0.6c0-4.7,3.8-8.5,8.5-8.5h749
			c4.7,0,8.5,3.8,8.5,8.5v0.6C766,439.7,762.2,443.5,757.5,443.5z"/>
		<path id="XMLID_1_" style="fill:#97969B;" d="M726.4,425.9H38.5c-2.5,0-4.5-2-4.5-4.5v-0.3c0-2.5,2-4.5,4.5-4.5h687.9
			c2.5,0,4.5,2,4.5,4.5v0.3C730.9,423.9,728.9,425.9,726.4,425.9z"/>
	</g>
	<g id="XMLID_16_">
		<rect id="XMLID_274_" x="503.3" y="298.4" style="fill:#7E8689;" width="25.8" height="5.4"/>
		<g id="XMLID_230_">
			<rect id="XMLID_246_" x="505.2" y="303.9" style="fill:#7E8689;" width="66.6" height="5.8"/>
			<rect id="XMLID_240_" x="505.2" y="309.7" style="fill:#7E8689;" width="89.8" height="5.8"/>
			<rect id="XMLID_234_" x="505.2" y="315.6" style="fill:#7E8689;" width="96" height="5.8"/>
			<rect id="XMLID_226_" x="505.2" y="321.4" style="fill:#7E8689;" width="118.8" height="5.9"/>
			<rect id="XMLID_58_" x="505.2" y="327.3" style="fill:#7E8689;" width="141.5" height="5.8"/>
			<rect id="XMLID_49_" x="505.2" y="333.1" style="fill:#7E8689;" width="141.5" height="5.8"/>
			<rect id="XMLID_44_" x="505.2" y="339" style="fill:#7E8689;" width="141.5" height="6"/>
			<rect id="XMLID_47_" x="505.2" y="338.6" style="fill:#444C4F;" width="141.5" height="0.8"/>
			<rect id="XMLID_53_" x="505.2" y="332.7" style="fill:#444C4F;" width="141.5" height="0.8"/>
			<rect id="XMLID_218_" x="505.2" y="326.9" style="fill:#444C4F;" width="141.5" height="0.8"/>
			<rect id="XMLID_229_" x="505.2" y="321" style="fill:#444C4F;" width="118.8" height="0.8"/>
			<rect id="XMLID_237_" x="505.2" y="315.2" style="fill:#444C4F;" width="96" height="0.8"/>
			<rect id="XMLID_243_" x="505.2" y="309.3" style="fill:#444C4F;" width="79.7" height="0.8"/>
			<rect id="XMLID_249_" x="505.2" y="303.5" style="fill:#444C4F;" width="60.8" height="0.8"/>
		</g>
		<rect id="XMLID_193_" x="448" y="324.6" style="fill:#7E8689;" width="33.7" height="4.4"/>
		<rect id="XMLID_158_" x="448" y="323.8" style="fill:#444C4F;" width="33.7" height="0.9"/>
		<rect id="XMLID_161_" x="448" y="319.4" style="fill:#7E8689;" width="33.7" height="4.4"/>
		<rect id="XMLID_261_" x="448" y="318.5" style="fill:#444C4F;" width="33.7" height="0.9"/>
		<rect id="XMLID_266_" x="453.9" y="314.1" style="fill:#7E8689;" width="27.9" height="4.4"/>
		<rect id="XMLID_269_" x="453.9" y="313.2" style="fill:#444C4F;" width="27.9" height="0.9"/>
		<rect id="XMLID_271_" x="459.6" y="308.9" style="fill:#7E8689;" width="22.2" height="4.4"/>
		<path id="XMLID_56_" style="fill:#B4ABA4;" d="M470.1,415.2v-70.4c-7.4,0-14.8,0.1-22.2,0.1c0.1-5.1,0.1-10.2,0.2-15.4
			c11.2,0,22.4,0,33.6,0c0,28.6-0.1,57.1-0.1,85.7H470.1z"/>
		<rect id="XMLID_300_" x="437.4" y="292.7" style="fill:#7E8689;" width="44.4" height="5.1"/>
		<rect id="XMLID_320_" x="437.4" y="282.6" style="fill:#7E8689;" width="33.5" height="4.6"/>
		<rect id="XMLID_307_" x="437.4" y="287.6" style="fill:#7E8689;" width="44.4" height="5"/>
		<g id="XMLID_228_">
			<rect id="XMLID_223_" x="443.1" y="344.5" style="fill:#612F16;" width="27.3" height="70.4"/>
			<rect id="XMLID_225_" x="463" y="347.9" style="fill:#8A9EA7;" width="4.2" height="61.1"/>
			<ellipse id="XMLID_227_" style="fill:#A5AAAA;" cx="468.7" cy="380.4" rx="1" ry="0.9"/>
		</g>
		<path id="XMLID_145_" style="fill:#7D7C77;" d="M467.6,308.5c-1.6,1.6-3.8,3.8-6.4,6.2c-3,2.8-3.2,2.7-8.1,6.9
			c-5.9,5-7,6.3-7.7,5.9c-0.7-0.4-0.9-2.7,2.5-12.1c0-0.9,0-1.7,0-2.6c-46,1.5-92,2.9-138,4.4v29.4l-29.9-37.8L467.6,308.5z"/>
		<path id="XMLID_141_" style="fill:#7E8689;" d="M445.5,319.6c0-2.3,0-4.6,0-6.8c-43.9,1.4-87.8,2.7-131.7,4.1
			c0.1,0.9,0.1,1.8,0.2,2.7C357.8,319.5,401.7,319.6,445.5,319.6z"/>
		<rect id="XMLID_135_" x="314" y="319.4" style="fill:#7E8689;" width="130.6" height="5.9"/>
		<rect id="XMLID_129_" x="314" y="325.3" style="fill:#7E8689;" width="131.2" height="5.8"/>
		<rect id="XMLID_123_" x="314" y="331.1" style="fill:#7E8689;" width="131.2" height="5.8"/>
		<rect id="XMLID_117_" x="314" y="336.9" style="fill:#7E8689;" width="131.2" height="5.8"/>
		<rect id="XMLID_111_" x="314" y="342.7" style="fill:#7E8689;" width="131.2" height="5.7"/>
		<rect id="XMLID_99_" x="314" y="354.3" style="fill:#7E8689;" width="131.2" height="5.8"/>
		<rect id="XMLID_93_" x="314" y="360.2" style="fill:#7E8689;" width="131.2" height="5.8"/>
		<rect id="XMLID_75_" x="314" y="377.8" style="fill:#7E8689;" width="131.2" height="5.7"/>
		<rect id="XMLID_81_" x="314" y="371.8" style="fill:#7E8689;" width="131.2" height="5.8"/>
		<rect id="XMLID_87_" x="314" y="366" style="fill:#7E8689;" width="131.2" height="5.8"/>
		<rect id="XMLID_69_" x="314" y="383.5" style="fill:#7E8689;" width="131.2" height="5.6"/>
		<rect id="XMLID_51_" x="314" y="389.2" style="fill:#7E8689;" width="131.2" height="5.8"/>
		<rect id="XMLID_43_" x="314" y="395.1" style="fill:#7E8689;" width="131.2" height="5.7"/>
		<rect id="XMLID_45_" x="314" y="400.9" style="fill:#7E8689;" width="131.2" height="5.7"/>
		<rect id="XMLID_39_" x="314" y="406.8" style="fill:#7E8689;" width="131.2" height="5.5"/>
		<rect id="XMLID_41_" x="314" y="412.5" style="fill:#7E8689;" width="131.2" height="5.4"/>
		<path id="XMLID_322_" style="fill:#7E8689;" d="M437.4,298.3c-0.6,0.5-1.2,1.1-1.7,1.6c0.6,0,1.2,0,1.9,0
			C437.5,299.3,437.5,298.8,437.4,298.3z"/>
		<path id="XMLID_321_" style="fill:#444C4F;" d="M437.4,297.5c0,0.3,0,0.6,0.1,0.9c-0.6,0.5-1.1,1-1.7,1.5c-0.3,0-0.7,0-1,0.1
			C435.6,299.1,436.5,298.3,437.4,297.5z"/>
		<path id="XMLID_323_" style="fill:#7E8689;" d="M437.8,297.4c-0.1-1.6-0.1-3.2-0.2-4.8c-2.4,2.5-4.9,4.9-7.3,7.4l4.5-0.1
			C435.8,299,436.8,298.2,437.8,297.4z"/>
		<path id="XMLID_324_" style="fill:#444C4F;" d="M437.5,293.1c0-0.3,0-0.6,0-0.9c-2.7,2.6-5.4,5.2-8,7.8l0.9,0
			C432.7,297.7,435.1,295.4,437.5,293.1z"/>
		<path id="XMLID_325_" style="fill:#7E8689;" d="M437.6,292.1c0.1-1.8,0.2-3.7,0.3-5.5c-4.1,4.5-8.2,9-12.3,13.5
			c1.3,0,2.5-0.1,3.8-0.1C432.1,297.3,434.9,294.7,437.6,292.1z"/>
		<path id="XMLID_326_" style="fill:#444C4F;" d="M437.6,287.6c-4,4.1-7.9,8.3-11.9,12.4l-0.8,0c4.2-4.4,8.4-8.7,12.6-13.1
			C437.5,287.2,437.6,287.4,437.6,287.6z"/>
		<path id="XMLID_272_" style="fill:#7E8689;" d="M437.6,282.5c-5.2,5.9-10.3,11.8-15.5,17.7l2.7,0c4.2-4.4,8.5-8.8,12.7-13.3
			C437.5,285.5,437.6,284,437.6,282.5z"/>
		<rect id="XMLID_313_" x="437.4" y="287" style="fill:#444C4F;" width="44.4" height="0.9"/>
		<rect id="XMLID_238_" x="448.3" y="329" style="fill:#444C4F;" width="33.4" height="0.9"/>
		<rect id="XMLID_277_" x="466.4" y="308" style="fill:#444C4F;" width="15.4" height="0.9"/>
		<rect id="XMLID_291_" x="466.4" y="302.7" style="fill:#444C4F;" width="15.4" height="0.9"/>
		<rect id="XMLID_305_" x="437.4" y="297.5" style="fill:#444C4F;" width="44.4" height="0.9"/>
		<rect id="XMLID_310_" x="437.4" y="292.2" style="fill:#444C4F;" width="44.4" height="0.9"/>
		<rect id="XMLID_278_" x="462.3" y="303.6" style="fill:#7E8689;" width="19.5" height="4.4"/>
		<rect id="XMLID_297_" x="437.4" y="298.4" style="fill:#7E8689;" width="44.4" height="4.4"/>
		<rect id="XMLID_110_" x="505.9" y="402.7" style="fill:#7A7E81;" width="140.2" height="14.4"/>
		<rect id="XMLID_12_" x="505.9" y="401.4" style="fill:#5C6063;" width="140.2" height="1.2"/>
		<rect id="XMLID_13_" x="505.9" y="387.1" style="fill:#7A7E81;" width="140.2" height="14.4"/>
		<rect id="XMLID_15_" x="505.9" y="385.9" style="fill:#5C6063;" width="140.2" height="1.2"/>
		<rect id="XMLID_115_" x="505.9" y="371.5" style="fill:#7A7E81;" width="140.2" height="14.4"/>
		<rect id="XMLID_175_" x="505.9" y="370.3" style="fill:#5C6063;" width="140.2" height="1.2"/>
		<rect id="XMLID_185_" x="505.9" y="355.9" style="fill:#7A7E81;" width="140.2" height="14.4"/>
		<rect id="XMLID_188_" x="505.9" y="354.7" style="fill:#5C6063;" width="140.2" height="1.2"/>
		
			<rect id="XMLID_146_" x="282.7" y="301.2" transform="matrix(0.9998 -2.230210e-002 2.230210e-002 0.9998 -6.6691 8.436)" style="fill:#696863;" width="184.3" height="4.1"/>
		<rect id="XMLID_40_" x="314" y="406.3" style="fill:#444C4F;" width="131.2" height="0.8"/>
		<rect id="XMLID_42_" x="314" y="412.1" style="fill:#444C4F;" width="131.1" height="0.8"/>
		<rect id="XMLID_46_" x="314" y="400.5" style="fill:#444C4F;" width="131.2" height="0.8"/>
		<rect id="XMLID_48_" x="314" y="394.7" style="fill:#444C4F;" width="131.2" height="0.8"/>
		<rect id="XMLID_66_" x="314" y="388.8" style="fill:#444C4F;" width="131.2" height="0.8"/>
		<rect id="XMLID_72_" x="314" y="383" style="fill:#444C4F;" width="131.2" height="0.8"/>
		<rect id="XMLID_78_" x="314" y="377.2" style="fill:#444C4F;" width="131.2" height="0.8"/>
		<rect id="XMLID_84_" x="314" y="371.4" style="fill:#444C4F;" width="131.2" height="0.8"/>
		<rect id="XMLID_90_" x="314" y="365.6" style="fill:#444C4F;" width="131.2" height="0.8"/>
		<rect id="XMLID_96_" x="314" y="359.8" style="fill:#444C4F;" width="131.2" height="0.8"/>
		<rect id="XMLID_105_" x="314" y="348.5" style="fill:#7E8689;" width="131.2" height="5.8"/>
		<rect id="XMLID_102_" x="314" y="353.9" style="fill:#444C4F;" width="131.2" height="0.8"/>
		<rect id="XMLID_108_" x="314" y="348.1" style="fill:#444C4F;" width="131.2" height="0.8"/>
		<rect id="XMLID_114_" x="314" y="342.3" style="fill:#444C4F;" width="131.2" height="0.8"/>
		<rect id="XMLID_120_" x="314" y="336.5" style="fill:#444C4F;" width="131.2" height="0.8"/>
		<rect id="XMLID_126_" x="314" y="330.7" style="fill:#444C4F;" width="131.2" height="0.8"/>
		<rect id="XMLID_132_" x="314" y="324.8" style="fill:#444C4F;" width="131.2" height="0.8"/>
		<rect id="XMLID_138_" x="314" y="319" style="fill:#444C4F;" width="131.2" height="0.8"/>
		<path id="XMLID_4_" style="fill:#8D9D9C;" d="M448.3,417.9h-3.8c0-35.2-0.1-70.4-0.1-105.7c1.3,0,2.6-0.1,3.8-0.1V417.9z"/>
		<g id="XMLID_21_">
			<rect id="XMLID_19_" x="330.8" y="330.1" style="fill:#8A9EA7;" width="38.8" height="72.5"/>
			<rect id="XMLID_6_" x="330.8" y="330.1" style="fill:#C9C9C7;" width="3.9" height="72.5"/>
			<rect id="XMLID_8_" x="365.7" y="330.1" style="fill:#C9C9C7;" width="3.9" height="72.5"/>
			<rect id="XMLID_11_" x="330.8" y="330.1" style="fill:#C9C9C7;" width="38.8" height="3.6"/>
			<rect id="XMLID_14_" x="330.8" y="353.2" style="fill:#C9C9C7;" width="38.8" height="3.6"/>
			<rect id="XMLID_17_" x="330.8" y="399" style="fill:#C9C9C7;" width="38.8" height="3.6"/>
			<rect id="XMLID_18_" x="330.8" y="376" style="fill:#C9C9C7;" width="38.8" height="3.6"/>
		</g>
		<g id="XMLID_9_">
			<rect id="XMLID_36_" x="392.8" y="330.1" style="fill:#8A9EA7;" width="38.8" height="72.5"/>
			<rect id="XMLID_32_" x="392.8" y="330.1" style="fill:#C9C9C7;" width="3.9" height="72.5"/>
			<rect id="XMLID_24_" x="427.7" y="330.1" style="fill:#C9C9C7;" width="3.9" height="72.5"/>
			<rect id="XMLID_23_" x="392.8" y="330.1" style="fill:#C9C9C7;" width="38.8" height="3.6"/>
			<rect id="XMLID_22_" x="392.8" y="353.2" style="fill:#C9C9C7;" width="38.8" height="3.6"/>
			<rect id="XMLID_20_" x="392.8" y="399" style="fill:#C9C9C7;" width="38.8" height="3.6"/>
			<rect id="XMLID_10_" x="392.8" y="376" style="fill:#C9C9C7;" width="38.8" height="3.6"/>
		</g>
		<path id="XMLID_143_" style="fill:#B4B6B3;" d="M283.3,306.4c62.2-1.6,124.5-3.1,186.7-4.7c-0.1,2.3-0.1,4.7-0.2,7l-186.6,5.2
			V306.4z"/>
		<rect id="XMLID_144_" x="279.9" y="306.4" style="fill:#B4B6B3;" width="3.4" height="2.5"/>
		<rect id="XMLID_5_" x="309.7" y="316.4" style="fill:#8D9D9C;" width="4.3" height="101.6"/>
		<path id="XMLID_7_" style="fill:#8D9D9C;" d="M309.8,316.4l138.7-4.2v1.4c-46.2,1.2-92.4,2.4-138.6,3.6
			C309.9,316.9,309.8,316.6,309.8,316.4z"/>
		<rect id="XMLID_191_" x="505.9" y="345" style="fill:#7A7E81;" width="140.2" height="9.7"/>
		<rect id="XMLID_192_" x="505.9" y="344.4" style="fill:#383A39;" width="140.2" height="1.2"/>
		<path id="XMLID_231_" style="fill:#7E8689;" d="M418.5,264.8v6.6c43,12.1,85.7,23.7,131.8,36.3c32.7,9,66.2,14.9,98.8,24.3
			c4,1.2,18.2,5.3,37.2,7.1c1.7,0.2,3.3,0.3,4.3,0.3c0-1.8,0-3.6,0-5.4L418.5,264.8z"/>
		<path id="XMLID_232_" style="fill:#7E8689;" d="M418.5,264.8c-5,11.9-9,23.8-13.4,35.8c0.9,0,2-0.1,2.9-0.1
			c3.4-9.7,6.4-19.4,10.4-29.1C418.5,269.2,418.5,267,418.5,264.8z"/>
		<polygon id="XMLID_109_" style="fill:#D0CFCD;" points="481,417.2 481.5,292.1 507.4,298.5 507.4,417 		"/>
		<path id="XMLID_233_" style="fill:#585D61;" d="M665.7,338.2c-5.7,3.4-8.4,5.7-8,6.8c0.7,2,11.5,0.1,32.3-5.6
			c-90.6-22.7-181.2-45.5-271.8-68.2c-3.5,9.7-7,19.5-10.5,29.2c5.7-0.1,11.4-0.2,17-0.3c4.2-5.8,8.5-11.6,12.7-17.5
			c21,4.8,42,9.7,63,14.6C555.7,310.4,610.8,324,665.7,338.2z"/>
		<polygon id="XMLID_112_" style="fill:#D0CFCD;" points="644.7,332.8 644.7,417 666.3,417 666.3,338.2 		"/>
	</g>
	<g id="XMLID_27_">
		<g id="XMLID_28_">
			<circle id="XMLID_376_" style="fill:#6EB130;" cx="119.7" cy="274.4" r="31.1"/>
			<circle id="XMLID_373_" style="fill:#92C336;" cx="124.3" cy="370.4" r="22.7"/>
			<circle id="XMLID_370_" style="fill:#92C336;" cx="157.2" cy="213.2" r="19.7"/>
			<polygon id="XMLID_367_" style="fill:#603222;" points="154.1,416.6 127.9,416.6 131.1,357.4 150.8,357.4 			"/>
			<path id="XMLID_364_" style="fill:#029344;" d="M180.6,269.6c3.3-6.3,5.2-13.4,5.2-21c0-15.4-7.7-28.9-19.5-37
				c2-3.9,3.1-8.2,3.1-12.8c0-15.7-12.7-28.4-28.4-28.4c-15.7,0-28.4,12.7-28.4,28.4c0,4.6,1.1,9,3.1,12.8
				c-11.8,8.1-19.5,21.6-19.5,37c0,7.6,1.9,14.7,5.2,21c-15.6,11.9-25.7,30.8-25.7,52c0,36.1,29.3,65.4,65.4,65.4
				c36.1,0,65.4-29.3,65.4-65.4C206.3,300.4,196.3,281.6,180.6,269.6z"/>
			<circle id="XMLID_361_" style="fill:#92C336;" cx="141" cy="261.4" r="24.8"/>
			<circle id="XMLID_358_" style="fill:#6EB130;" cx="137.5" cy="301.6" r="34.7"/>
			<circle id="XMLID_33_" style="fill:#6EB130;" cx="157.2" cy="336.3" r="31.1"/>
			<circle id="XMLID_29_" style="fill:#92C336;" cx="172.5" cy="365.3" r="20.5"/>
		</g>
	</g>
	<g id="XMLID_379_">
		<path id="XMLID_387_" style="fill:#006738;" d="M295,400c-10.1,0-18.3,8.2-18.3,18.3h36.5C313.3,408.1,305.1,400,295,400z"/>
		<path id="XMLID_384_" style="fill:#029344;" d="M279.7,407.2c-6.1,0-11,4.9-11,11h22C290.7,412.1,285.7,407.2,279.7,407.2z"/>
		<path id="XMLID_381_" style="fill:#029344;" d="M290.3,410.5c-4.3,0-7.8,3.5-7.8,7.8h15.5C298.1,413.9,294.6,410.5,290.3,410.5z"
			/>
		<path id="XMLID_380_" style="fill:#006738;" d="M312.1,411c-4,0-7.2,3.2-7.2,7.2h14.4C319.3,414.2,316.1,411,312.1,411z"/>
	</g>
	<g id="XMLID_392_">
		<g id="XMLID_417_">
			<path id="XMLID_418_" style="fill:#C98E6A;" d="M245.3,412.1c1.8,3,0.4,5.2-2.7,6.6c-0.4,0.2-0.6,0.6-0.4,1l0,0
				c0.1,0.4,0.6,0.6,1,0.5c1.8-0.5,6-2.3,5.8-6.9c-0.2-3.5-2.7-5.4-5.1-5.1C242.8,408.4,244.6,411,245.3,412.1z"/>
		</g>
		<path id="XMLID_416_" style="fill:#A07258;" d="M225.8,406.3c0,0-2.8,1.6-2.8,6.4c0,1.6-0.7,2.8-2.7,2.8l-2-0.4
			c-0.4-0.1-0.8-0.1-1.2,0.1c-0.9,0.3-1.6,1.2-1.6,2.3l0,0c0,0.5,0.4,0.9,0.9,0.9h12.9v-10.9L225.8,406.3z"/>
		<path id="XMLID_415_" style="fill:#FCEAD0;" d="M231.6,418.4h-6.7v-2.1c0-1.9,1.5-3.4,3.4-3.4h0c1.9,0,3.4,1.5,3.4,3.4V418.4z"/>
		<path id="XMLID_414_" style="fill:#C98E6A;" d="M229.3,404.2c0,0,2.3,0,8.9,0c6.2,0,9.3,2.9,9.3,7.5s-3.4,6.7-7.3,6.7
			c-4,0-10.1,0-10.1,0L229.3,404.2z"/>
		<path id="XMLID_413_" style="fill:#C98E6A;" d="M231.4,406.3c0,0-2.8,1.6-2.8,6.4c0,1.6-0.7,2.8-2.7,2.8l-2-0.4
			c-0.4-0.1-0.8-0.1-1.2,0.1c-0.9,0.3-1.6,1.2-1.6,2.3l0,0c0,0.5,0.4,0.9,0.9,0.9h8.9c2.2,0,4-1.8,4-4v-3.3
			C234.9,408.9,233.5,407,231.4,406.3L231.4,406.3z"/>
		<path id="XMLID_412_" style="fill:#FCEAD0;" d="M244.9,417.2c-0.6,0.6-1.4,1.1-2.3,1.6c-0.4,0.2-0.6,0.6-0.4,1
			c0.1,0.4,0.6,0.6,1,0.5c0.8-0.2,2.2-0.8,3.4-1.7C246.4,417.8,245.7,417.1,244.9,417.2z"/>
		<g id="XMLID_408_">
			<path id="XMLID_411_" style="fill:#885E46;" d="M222.5,397.2l-0.7-0.3c-0.9-0.3-1.8-0.2-2.6,0.3l0,0c-0.5,0.3-0.9,0.8-1.1,1.4
				l-1.1,2.8c-0.4,0.9-0.8,1.8-1.4,2.6l0,0c-0.5,0.7-0.6,1.5-0.3,2.3v0c0.4,1,1.1,1.9,2.1,2.4l0.4,0.2c0.6,0.4,1.2,0.9,1.6,1.5l0,0
				c0.2,0.3,0.6,0.5,1.1,0.5l0,0c0.6,0,1.1-0.4,1.2-0.9l0,0c0.4-1.4,0.7-2.9,0.7-4.4v-4.4L222.5,397.2z"/>
			<path id="XMLID_410_" style="fill:#885E46;" d="M231.6,397.2l0.7-0.3c0.9-0.3,1.8-0.2,2.6,0.3l0,0c0.5,0.3,0.9,0.8,1.1,1.4
				l1.1,2.8c0.4,0.9,0.8,1.8,1.4,2.6l0,0c0.5,0.7,0.6,1.5,0.3,2.3v0c-0.4,1-1.1,1.9-2.1,2.4l-0.4,0.2c-0.6,0.4-1.2,0.9-1.6,1.5l0,0
				c-0.2,0.3-0.6,0.5-1.1,0.5l0,0c-0.6,0-1.1-0.4-1.2-0.9l0,0c-0.4-1.4-0.7-2.9-0.7-4.4v-4.4L231.6,397.2z"/>
			<path id="XMLID_409_" style="fill:#C98E6A;" d="M231.8,396.5L231.8,396.5c-0.8-0.6-1.8-1-2.8-1l-0.5,0c-0.9-0.1-1.8-0.1-2.7,0
				l-0.5,0c-1,0.1-2,0.4-2.8,1l0,0c-1.1,0.8-1.8,1.9-2,3.2l0,0c-0.4,2,0,4,1,5.8l0,0c0.4,0.7,0.6,1.4,0.8,2.2l0.2,1.1
				c0.1,0.7,0.4,1.4,0.8,1.9l0,0c0.7,0.9,1.7,1.5,2.9,1.6l0.7,0.1c0.3,0,0.5,0,0.8,0l0.7-0.1c1.1-0.1,2.2-0.7,2.9-1.6l0,0
				c0.4-0.6,0.7-1.2,0.8-1.9l0.2-1.1c0.1-0.8,0.4-1.5,0.8-2.2l0,0c1-1.7,1.3-3.8,1-5.8l0,0C233.5,398.5,232.8,397.3,231.8,396.5z"/>
		</g>
		<path id="XMLID_407_" style="fill:#FCEAD0;" d="M229.6,404.3l-0.5-0.3c-0.9-0.5-1.4-1.5-1.2-2.5l0,0c0.2-1,0.4-1.9,0.8-2.8l0,0
			c0.2-0.5,0.1-1.1-0.3-1.5l0,0c-0.2-0.2-0.5-0.3-0.8-0.3H227h-0.5c-0.3,0-0.6,0.1-0.8,0.3l0,0c-0.4,0.4-0.5,1-0.3,1.5h0
			c0.4,0.9,0.7,1.8,0.8,2.8l0,0c0.2,1-0.3,2-1.2,2.5l-0.5,0.3c-0.4,0.2-0.9,0.6-1.2,0.9v0c-0.9,1-1.4,2.3-1.2,3.6l0.1,1.2
			c0.1,0.7,0.4,1.3,1,1.6h0c0.7,0.4,1.5,0.5,2.2,0.1l1.7-1l1.7,1c0.7,0.4,1.5,0.4,2.2-0.1l0,0c0.6-0.4,0.9-1,1-1.6l0.1-1.2
			c0.1-1.3-0.3-2.7-1.2-3.6h0C230.5,404.9,230.1,404.6,229.6,404.3z"/>
		<path id="XMLID_406_" d="M227.6,406.1L227.6,406.1c-0.4-0.1-0.8-0.1-1.2,0l0,0c-0.5,0.1-1.1,0.4-1.5,0.7v0
			c-0.2,0.2-0.3,0.4-0.3,0.6l0,0c0,0.7,0.4,1.4,1,1.7l0.5,0.3c0.5,0.3,1.2,0.3,1.7,0l0.5-0.3c0.6-0.4,1-1,1-1.7l0,0
			c0-0.2-0.1-0.5-0.3-0.6l0,0C228.7,406.5,228.2,406.2,227.6,406.1z"/>
		<path id="XMLID_391_" d="M227,408.7c0.2,0.7,0.2,1.4,0.2,2.1l0,0.2l-0.1,0.1l-1,0.5c-0.1,0-0.3,0.1-0.5,0
			c-0.5-0.1-0.7-0.7-0.7-0.7c0.1,0.1,0.4,0.4,1,0.4c0.6-0.1,0.9-0.5,1-0.6l-0.1,0.2C226.8,410.1,226.8,409.4,227,408.7z"/>
		<path id="XMLID_26_" d="M227.3,408.7c-0.2,0.7-0.2,1.4-0.2,2.1l0,0.2l0.1,0.1l1,0.5c0.1,0,0.3,0.1,0.5,0c0.5-0.1,0.7-0.7,0.7-0.7
			c-0.1,0.1-0.4,0.4-1,0.4c-0.6-0.1-0.9-0.5-1-0.6l0.1,0.2C227.5,410.1,227.5,409.4,227.3,408.7z"/>
		<g id="XMLID_398_">
			<g id="XMLID_422_">
				<circle id="XMLID_395_" cx="230.8" cy="402.8" r="1.1"/>
				<circle id="XMLID_390_" style="fill:#F1EDEC;" cx="230.4" cy="402.3" r="0.3"/>
			</g>
			<g id="XMLID_419_">
				<circle id="XMLID_389_" cx="223.3" cy="402.8" r="1.1"/>
				<circle id="XMLID_388_" style="fill:#F1EDEC;" cx="223" cy="402.3" r="0.3"/>
			</g>
		</g>
	</g>
	<g id="XMLID_399_">
		<path id="XMLID_396_" style="fill:#EAEAEA;" d="M408.7,103.8c2.4-0.4,4.8-0.1,7,0.6c0.9-6.3,5.8-11.5,12.5-12.6
			c3.8-0.6,7.5,0.3,10.5,2.3c1.6-1.6,3.8-2.8,6.2-3.2c4.4-0.7,8.6,1.3,10.9,4.7c0.3-0.1,0.7-0.1,1-0.2c8.7-1.3,16.8,4,19.2,12.2
			c5.1,0.3,9.5,4.1,10.3,9.3c0.9,6-3.2,11.6-9.2,12.6c-0.5,0.1-0.9,0.1-1.4,0.1c0,0.2,0.1,0.4,0.1,0.6c0.9,6-3.2,11.6-9.2,12.6
			c-4.5,0.7-8.8-1.5-11.1-5.1c-2.2,3.7-5.9,6.4-10.5,7.1c-4.3,0.7-8.5-0.6-11.7-3.2c-0.8,0.3-1.6,0.5-2.5,0.6
			c-7,1.1-13.7-3-16.1-9.4c-0.5,0.1-1,0.2-1.5,0.3c-8.1,1.2-15.7-4.3-16.9-12.4C395,112.7,400.5,105.1,408.7,103.8z"/>
		<path id="XMLID_394_" style="fill:#FFFFFF;" d="M412.3,100.5c2.4-0.4,4.8-0.1,7,0.6c0.9-6.3,5.8-11.5,12.5-12.6
			c3.8-0.6,7.5,0.3,10.5,2.3c1.6-1.6,3.8-2.8,6.2-3.2c4.4-0.7,8.6,1.3,10.9,4.7c0.3-0.1,0.7-0.1,1-0.2c8.7-1.3,16.8,4,19.2,12.2
			c5.1,0.3,9.5,4.1,10.3,9.3c0.9,6-3.2,11.6-9.2,12.6c-0.5,0.1-0.9,0.1-1.4,0.1c0,0.2,0.1,0.4,0.1,0.6c0.9,6-3.2,11.6-9.2,12.6
			c-4.5,0.7-8.8-1.5-11.1-5.1c-2.2,3.7-5.9,6.4-10.5,7.1c-4.3,0.7-8.5-0.6-11.7-3.2c-0.8,0.3-1.6,0.5-2.5,0.6
			c-7,1.1-13.7-3-16.1-9.4c-0.5,0.1-1,0.2-1.5,0.3c-8.1,1.2-15.7-4.3-16.9-12.4C398.6,109.4,404.2,101.8,412.3,100.5z"/>
	</g>
	<g id="XMLID_393_">
		<path id="XMLID_404_" style="fill:#EAEAEA;" d="M264.1,53.4c0-0.5,0-1,0-1.5v-0.4l-0.3,0c-2.7-15.8-16.5-27.8-33.1-27.8
			c-2.3,0-4.5,0.2-6.7,0.7c-7.2-10.9-19.6-18.1-33.7-18.1c-21.2,0-38.6,16.4-40.3,37.2c-3.7-2.1-7.9-3.3-12.4-3.3
			c-14,0-25.4,11.4-25.4,25.4v0.3c0,13.9,11.2,25.1,25.1,25.1h87.8c1,0,1.9,0,2.9-0.1c0.9,0.1,1.8,0.1,2.7,0.1
			c18.5,0,33.6-15,33.6-33.6C264.3,56,264.2,54.7,264.1,53.4z"/>
		<path id="XMLID_403_" style="fill:#FFFFFF;" d="M257.1,47.1c0-0.5,0-1,0-1.5v-0.4l-0.3,0c-2.7-15.8-16.5-27.8-33.1-27.8
			c-2.3,0-4.5,0.2-6.7,0.7C209.8,7.2,197.4,0,183.3,0c-21.2,0-38.6,16.4-40.3,37.2c-3.7-2.1-7.9-3.3-12.4-3.3
			c-14,0-25.4,11.4-25.4,25.4v0.3c0,13.9,11.2,25.1,25.1,25.1h87.8c1,0,1.9,0,2.9-0.1c0.9,0.1,1.8,0.1,2.7,0.1
			c18.5,0,33.6-15,33.6-33.6C257.4,49.7,257.3,48.4,257.1,47.1z"/>
	</g>
</g>
<g id="service_x5F_colourbond_x5F_front">
	<g id="service_x5F_front_x5F_colourbond-inner">
		<g id="XMLID_1394_">
			<rect id="XMLID_1637_" x="361.5" y="340.6" style="fill:#486380;" width="81" height="87.1"/>
			<rect id="XMLID_1634_" x="372.8" y="341.8" style="fill:#486380;" width="5.7" height="84.9"/>
			<rect id="XMLID_1631_" x="362.1" y="341.9" style="fill:#486380;" width="1" height="84.2"/>
			<path id="XMLID_1630_" style="fill:#2F4151;" d="M364.2,341.7c-0.3,0.1-0.6,0.1-1,0.2v84.2c0.3,0.2,0.7,0.3,1,0.5
				C364.2,398.3,364.2,370,364.2,341.7z"/>
			<rect id="XMLID_1627_" x="364.1" y="341.7" style="fill:#486380;" width="5.7" height="84.9"/>
			<path id="XMLID_1626_" style="fill:#2F4151;" d="M369.8,341.7c0.4,0.1,0.7,0.1,1.1,0.2v84.2c-0.4,0.2-0.7,0.3-1.1,0.5
				C369.8,398.3,369.8,370,369.8,341.7z"/>
			<rect id="XMLID_1623_" x="370.8" y="341.9" style="fill:#486380;" width="1" height="84.2"/>
			<polygon id="XMLID_1622_" style="fill:#2F4151;" points="372.9,341.8 371.9,341.9 371.9,426.1 372.9,426.6 			"/>
			<path id="XMLID_1621_" style="fill:#2F4151;" d="M378.5,341.8c0.4,0.1,0.7,0.1,1.1,0.2v84.2c-0.3,0.2-0.7,0.3-1,0.5
				C378.6,398.3,378.5,370,378.5,341.8z"/>
			<rect id="XMLID_1618_" x="379.5" y="342" style="fill:#486380;" width="1" height="84.2"/>
			<path id="XMLID_1617_" style="fill:#2F4151;" d="M381.6,341.8c-0.3,0.1-0.6,0.1-1,0.2v84.2c0.3,0.2,0.7,0.3,1,0.5
				C381.6,398.3,381.6,370,381.6,341.8z"/>
			<rect id="XMLID_1614_" x="381.5" y="341.8" style="fill:#486380;" width="5.7" height="84.9"/>
			<path id="XMLID_1613_" style="fill:#2F4151;" d="M387.2,341.8c0.4,0.1,0.7,0.1,1.1,0.2v84.2c-0.4,0.2-0.7,0.3-1.1,0.5
				C387.2,398.3,387.2,370,387.2,341.8z"/>
			<rect id="XMLID_1610_" x="388.2" y="342" style="fill:#486380;" width="1" height="84.2"/>
			<polygon id="XMLID_1609_" style="fill:#2F4151;" points="390.3,341.8 389.3,342 389.3,426.1 390.3,426.6 			"/>
			<rect id="XMLID_1606_" x="399" y="341.8" style="fill:#486380;" width="5.7" height="84.9"/>
			<rect id="XMLID_1603_" x="390.3" y="341.7" style="fill:#486380;" width="5.7" height="84.9"/>
			<path id="XMLID_1602_" style="fill:#2F4151;" d="M396,341.7c0.4,0.1,0.7,0.1,1.1,0.2v84.2c-0.4,0.2-0.7,0.3-1.1,0.5
				C396,398.3,396,370,396,341.7z"/>
			<rect id="XMLID_1599_" x="397" y="341.9" style="fill:#486380;" width="1" height="84.2"/>
			<polygon id="XMLID_1598_" style="fill:#2F4151;" points="399.1,341.8 398.1,341.9 398.1,426.1 399.1,426.6 			"/>
			<path id="XMLID_1597_" style="fill:#2F4151;" d="M404.7,341.8c0.4,0.1,0.7,0.1,1.1,0.2v84.2c-0.3,0.2-0.7,0.3-1,0.5
				C404.7,398.3,404.7,370,404.7,341.8z"/>
			<rect id="XMLID_1594_" x="405.7" y="342" style="fill:#486380;" width="1" height="84.2"/>
			<path id="XMLID_1593_" style="fill:#2F4151;" d="M407.7,341.8c-0.3,0.1-0.6,0.1-1,0.2v84.2c0.3,0.2,0.7,0.3,1,0.5
				C407.8,398.3,407.7,370,407.7,341.8z"/>
			<rect id="XMLID_1590_" x="407.7" y="341.8" style="fill:#486380;" width="5.7" height="84.9"/>
			<path id="XMLID_1589_" style="fill:#2F4151;" d="M413.4,341.8c0.4,0.1,0.7,0.1,1.1,0.2v84.2c-0.4,0.2-0.7,0.3-1.1,0.5
				C413.4,398.3,413.4,370,413.4,341.8z"/>
			<rect id="XMLID_1586_" x="414.4" y="342" style="fill:#486380;" width="1" height="84.2"/>
			<polygon id="XMLID_1585_" style="fill:#2F4151;" points="416.4,341.8 415.5,342 415.5,426.1 416.4,426.6 			"/>
			<rect id="XMLID_1582_" x="425.2" y="341.8" style="fill:#486380;" width="5.7" height="84.9"/>
			<rect id="XMLID_1579_" x="416.5" y="341.7" style="fill:#486380;" width="5.7" height="84.9"/>
			<path id="XMLID_1578_" style="fill:#2F4151;" d="M422.2,341.7c0.4,0.1,0.7,0.1,1.1,0.2v84.2c-0.4,0.2-0.7,0.3-1.1,0.5
				C422.2,398.3,422.2,370,422.2,341.7z"/>
			<rect id="XMLID_1575_" x="423.2" y="341.9" style="fill:#486380;" width="1" height="84.2"/>
			<polygon id="XMLID_1574_" style="fill:#2F4151;" points="425.2,341.8 424.3,341.9 424.3,426.1 425.2,426.6 			"/>
			<path id="XMLID_1573_" style="fill:#2F4151;" d="M430.9,341.8c0.4,0.1,0.7,0.1,1.1,0.2v84.2c-0.3,0.2-0.7,0.3-1,0.5
				C430.9,398.3,430.9,370,430.9,341.8z"/>
			<rect id="XMLID_1570_" x="431.9" y="341.9" style="fill:#486380;" width="1" height="84.2"/>
			<path id="XMLID_1569_" style="fill:#2F4151;" d="M433.9,341.8c-0.3,0.1-0.6,0.1-1,0.2v84.2c0.3,0.2,0.7,0.3,1,0.5
				C433.9,398.3,433.9,370,433.9,341.8z"/>
			<rect id="XMLID_1566_" x="433.9" y="341.7" style="fill:#486380;" width="5.7" height="84.9"/>
			<path id="XMLID_1565_" style="fill:#2F4151;" d="M439.6,341.8c0.4,0.1,0.7,0.1,1.1,0.2v84.2c-0.4,0.2-0.7,0.3-1.1,0.5
				C439.6,398.3,439.6,370,439.6,341.8z"/>
			<rect id="XMLID_1562_" x="440.7" y="342" style="fill:#486380;" width="1" height="84.2"/>
			<rect id="XMLID_1561_" x="362.1" y="339.5" style="fill:#486380;" width="79.6" height="2.3"/>
			<rect id="XMLID_1558_" x="362.1" y="341.5" style="fill:#1F2A33;" width="79.6" height="0.3"/>
			<rect id="XMLID_1557_" x="362.1" y="341" style="fill:#3E5468;" width="79.6" height="0.1"/>
			<rect id="XMLID_1556_" x="362.1" y="340" style="fill:#3E5468;" width="79.6" height="0.1"/>
			<g id="XMLID_1535_">
				<rect id="XMLID_1555_" x="441.7" y="339.5" style="fill:#486380;" width="2.4" height="89.4"/>
				<rect id="XMLID_1552_" x="441.7" y="339.5" style="fill:#1F2A33;" width="0.3" height="89.4"/>
				<rect id="XMLID_1551_" x="442.3" y="339.5" style="fill:#3E5468;" width="0.1" height="89.4"/>
				<rect id="XMLID_1550_" x="443.4" y="339.5" style="fill:#3E5468;" width="0.1" height="89.4"/>
				<rect id="XMLID_1547_" x="444" y="339.5" style="fill:#1F2A33;" width="0.3" height="89.4"/>
			</g>
			<g id="XMLID_1395_">
				<rect id="XMLID_1401_" x="362.2" y="426.6" style="fill:#486380;" width="79.5" height="2.3"/>
				<rect id="XMLID_1398_" x="362.2" y="426.6" style="fill:#1F2A33;" width="79.5" height="0.3"/>
				<rect id="XMLID_1397_" x="362.2" y="427.2" style="fill:#3E5468;" width="79.5" height="0.1"/>
				<rect id="XMLID_1396_" x="362.2" y="428.3" style="fill:#3E5468;" width="79.5" height="0.1"/>
			</g>
		</g>
		<g id="XMLID_1292_">
			<rect id="XMLID_1391_" x="279.5" y="340.6" style="fill:#486380;" width="81" height="87.1"/>
			<rect id="XMLID_1388_" x="290.8" y="341.8" style="fill:#486380;" width="5.7" height="84.9"/>
			<rect id="XMLID_1385_" x="280.1" y="341.9" style="fill:#486380;" width="1" height="84.2"/>
			<path id="XMLID_1384_" style="fill:#2F4151;" d="M282.2,341.7c-0.3,0.1-0.6,0.1-1,0.2v84.2c0.3,0.2,0.7,0.3,1,0.5
				C282.2,398.3,282.2,370,282.2,341.7z"/>
			<rect id="XMLID_1381_" x="282.1" y="341.7" style="fill:#486380;" width="5.7" height="84.9"/>
			<path id="XMLID_1380_" style="fill:#2F4151;" d="M287.8,341.7c0.4,0.1,0.7,0.1,1.1,0.2v84.2c-0.4,0.2-0.7,0.3-1.1,0.5
				C287.8,398.3,287.8,370,287.8,341.7z"/>
			<rect id="XMLID_1377_" x="288.8" y="341.9" style="fill:#486380;" width="1" height="84.2"/>
			<polygon id="XMLID_1376_" style="fill:#2F4151;" points="290.9,341.8 289.9,341.9 289.9,426.1 290.9,426.6 			"/>
			<path id="XMLID_1375_" style="fill:#2F4151;" d="M296.5,341.8c0.4,0.1,0.7,0.1,1.1,0.2v84.2c-0.3,0.2-0.7,0.3-1,0.5
				C296.6,398.3,296.5,370,296.5,341.8z"/>
			<rect id="XMLID_1372_" x="297.5" y="342" style="fill:#486380;" width="1" height="84.2"/>
			<path id="XMLID_1371_" style="fill:#2F4151;" d="M299.6,341.8c-0.3,0.1-0.6,0.1-1,0.2v84.2c0.3,0.2,0.7,0.3,1,0.5
				C299.6,398.3,299.6,370,299.6,341.8z"/>
			<rect id="XMLID_1368_" x="299.5" y="341.8" style="fill:#486380;" width="5.7" height="84.9"/>
			<path id="XMLID_1367_" style="fill:#2F4151;" d="M305.2,341.8c0.4,0.1,0.7,0.1,1.1,0.2v84.2c-0.4,0.2-0.7,0.3-1.1,0.5
				C305.2,398.3,305.2,370,305.2,341.8z"/>
			<rect id="XMLID_1364_" x="306.2" y="342" style="fill:#486380;" width="1" height="84.2"/>
			<polygon id="XMLID_1363_" style="fill:#2F4151;" points="308.3,341.8 307.3,342 307.3,426.1 308.3,426.6 			"/>
			<rect id="XMLID_1360_" x="317" y="341.8" style="fill:#486380;" width="5.7" height="84.9"/>
			<rect id="XMLID_1357_" x="308.3" y="341.7" style="fill:#486380;" width="5.7" height="84.9"/>
			<path id="XMLID_1356_" style="fill:#2F4151;" d="M314,341.7c0.4,0.1,0.7,0.1,1.1,0.2v84.2c-0.4,0.2-0.7,0.3-1.1,0.5
				C314,398.3,314,370,314,341.7z"/>
			<rect id="XMLID_1353_" x="315" y="341.9" style="fill:#486380;" width="1" height="84.2"/>
			<polygon id="XMLID_1352_" style="fill:#2F4151;" points="317.1,341.8 316.1,341.9 316.1,426.1 317.1,426.6 			"/>
			<path id="XMLID_1351_" style="fill:#2F4151;" d="M322.7,341.8c0.4,0.1,0.7,0.1,1.1,0.2v84.2c-0.3,0.2-0.7,0.3-1,0.5
				C322.7,398.3,322.7,370,322.7,341.8z"/>
			<rect id="XMLID_1348_" x="323.7" y="342" style="fill:#486380;" width="1" height="84.2"/>
			<path id="XMLID_1347_" style="fill:#2F4151;" d="M325.7,341.8c-0.3,0.1-0.6,0.1-1,0.2v84.2c0.3,0.2,0.7,0.3,1,0.5
				C325.8,398.3,325.7,370,325.7,341.8z"/>
			<rect id="XMLID_1344_" x="325.7" y="341.8" style="fill:#486380;" width="5.7" height="84.9"/>
			<path id="XMLID_1343_" style="fill:#2F4151;" d="M331.4,341.8c0.4,0.1,0.7,0.1,1.1,0.2v84.2c-0.4,0.2-0.7,0.3-1.1,0.5
				C331.4,398.3,331.4,370,331.4,341.8z"/>
			<rect id="XMLID_1340_" x="332.4" y="342" style="fill:#486380;" width="1" height="84.2"/>
			<polygon id="XMLID_1339_" style="fill:#2F4151;" points="334.4,341.8 333.5,342 333.5,426.1 334.4,426.6 			"/>
			<rect id="XMLID_1336_" x="343.2" y="341.8" style="fill:#486380;" width="5.7" height="84.9"/>
			<rect id="XMLID_1333_" x="334.5" y="341.7" style="fill:#486380;" width="5.7" height="84.9"/>
			<path id="XMLID_1332_" style="fill:#2F4151;" d="M340.2,341.7c0.4,0.1,0.7,0.1,1.1,0.2v84.2c-0.4,0.2-0.7,0.3-1.1,0.5
				C340.2,398.3,340.2,370,340.2,341.7z"/>
			<rect id="XMLID_1329_" x="341.2" y="341.9" style="fill:#486380;" width="1" height="84.2"/>
			<polygon id="XMLID_1328_" style="fill:#2F4151;" points="343.2,341.8 342.3,341.9 342.3,426.1 343.2,426.6 			"/>
			<path id="XMLID_1327_" style="fill:#2F4151;" d="M348.9,341.8c0.4,0.1,0.7,0.1,1.1,0.2v84.2c-0.3,0.2-0.7,0.3-1,0.5
				C348.9,398.3,348.9,370,348.9,341.8z"/>
			<rect id="XMLID_1324_" x="349.9" y="341.9" style="fill:#486380;" width="1" height="84.2"/>
			<path id="XMLID_1323_" style="fill:#2F4151;" d="M351.9,341.8c-0.3,0.1-0.6,0.1-1,0.2v84.2c0.3,0.2,0.7,0.3,1,0.5
				C351.9,398.3,351.9,370,351.9,341.8z"/>
			<rect id="XMLID_1320_" x="351.9" y="341.7" style="fill:#486380;" width="5.7" height="84.9"/>
			<path id="XMLID_1319_" style="fill:#2F4151;" d="M357.6,341.8c0.4,0.1,0.7,0.1,1.1,0.2v84.2c-0.4,0.2-0.7,0.3-1.1,0.5
				C357.6,398.3,357.6,370,357.6,341.8z"/>
			<rect id="XMLID_1316_" x="358.7" y="342" style="fill:#486380;" width="1" height="84.2"/>
			<rect id="XMLID_1315_" x="280.1" y="339.5" style="fill:#486380;" width="79.6" height="2.3"/>
			<rect id="XMLID_1312_" x="280.1" y="341.5" style="fill:#1F2A33;" width="79.6" height="0.3"/>
			<rect id="XMLID_1311_" x="280.1" y="341" style="fill:#3E5468;" width="79.6" height="0.1"/>
			<rect id="XMLID_1310_" x="280.1" y="340" style="fill:#3E5468;" width="79.6" height="0.1"/>
			<g id="XMLID_1300_">
				<rect id="XMLID_1309_" x="359.7" y="339.5" style="fill:#486380;" width="2.4" height="89.4"/>
				<rect id="XMLID_1306_" x="359.7" y="339.5" style="fill:#1F2A33;" width="0.3" height="89.4"/>
				<rect id="XMLID_1305_" x="360.3" y="339.5" style="fill:#3E5468;" width="0.1" height="89.4"/>
				<rect id="XMLID_1304_" x="361.4" y="339.5" style="fill:#3E5468;" width="0.1" height="89.4"/>
				<rect id="XMLID_1301_" x="362" y="339.5" style="fill:#1F2A33;" width="0.3" height="89.4"/>
			</g>
			<g id="XMLID_1293_">
				<rect id="XMLID_1299_" x="280.2" y="426.6" style="fill:#486380;" width="79.5" height="2.3"/>
				<rect id="XMLID_1296_" x="280.2" y="426.6" style="fill:#1F2A33;" width="79.5" height="0.3"/>
				<rect id="XMLID_1295_" x="280.2" y="427.2" style="fill:#3E5468;" width="79.5" height="0.1"/>
				<rect id="XMLID_1294_" x="280.2" y="428.3" style="fill:#3E5468;" width="79.5" height="0.1"/>
			</g>
		</g>
		<g id="XMLID_1190_">
			<rect id="XMLID_1289_" x="197.5" y="340.6" style="fill:#486380;" width="81" height="87.1"/>
			<rect id="XMLID_1286_" x="208.8" y="341.8" style="fill:#486380;" width="5.7" height="84.9"/>
			<rect id="XMLID_1283_" x="198.1" y="341.9" style="fill:#486380;" width="1" height="84.2"/>
			<path id="XMLID_1282_" style="fill:#2F4151;" d="M200.2,341.7c-0.3,0.1-0.6,0.1-1,0.2v84.2c0.3,0.2,0.7,0.3,1,0.5
				C200.2,398.3,200.2,370,200.2,341.7z"/>
			<rect id="XMLID_1279_" x="200.1" y="341.7" style="fill:#486380;" width="5.7" height="84.9"/>
			<path id="XMLID_1278_" style="fill:#2F4151;" d="M205.8,341.7c0.4,0.1,0.7,0.1,1.1,0.2v84.2c-0.4,0.2-0.7,0.3-1.1,0.5
				C205.8,398.3,205.8,370,205.8,341.7z"/>
			<rect id="XMLID_1275_" x="206.8" y="341.9" style="fill:#486380;" width="1" height="84.2"/>
			<polygon id="XMLID_1274_" style="fill:#2F4151;" points="208.9,341.8 207.9,341.9 207.9,426.1 208.9,426.6 			"/>
			<path id="XMLID_1273_" style="fill:#2F4151;" d="M214.5,341.8c0.4,0.1,0.7,0.1,1.1,0.2v84.2c-0.3,0.2-0.7,0.3-1,0.5
				C214.6,398.3,214.5,370,214.5,341.8z"/>
			<rect id="XMLID_1270_" x="215.5" y="342" style="fill:#486380;" width="1" height="84.2"/>
			<path id="XMLID_1269_" style="fill:#2F4151;" d="M217.6,341.8c-0.3,0.1-0.6,0.1-1,0.2v84.2c0.3,0.2,0.7,0.3,1,0.5
				C217.6,398.3,217.6,370,217.6,341.8z"/>
			<rect id="XMLID_1266_" x="217.5" y="341.8" style="fill:#486380;" width="5.7" height="84.9"/>
			<path id="XMLID_1265_" style="fill:#2F4151;" d="M223.2,341.8c0.4,0.1,0.7,0.1,1.1,0.2v84.2c-0.4,0.2-0.7,0.3-1.1,0.5
				C223.2,398.3,223.2,370,223.2,341.8z"/>
			<rect id="XMLID_1262_" x="224.2" y="342" style="fill:#486380;" width="1" height="84.2"/>
			<polygon id="XMLID_1261_" style="fill:#2F4151;" points="226.3,341.8 225.3,342 225.3,426.1 226.3,426.6 			"/>
			<rect id="XMLID_1258_" x="235" y="341.8" style="fill:#486380;" width="5.7" height="84.9"/>
			<rect id="XMLID_1255_" x="226.3" y="341.7" style="fill:#486380;" width="5.7" height="84.9"/>
			<path id="XMLID_1254_" style="fill:#2F4151;" d="M232,341.7c0.4,0.1,0.7,0.1,1.1,0.2v84.2c-0.4,0.2-0.7,0.3-1.1,0.5
				C232,398.3,232,370,232,341.7z"/>
			<rect id="XMLID_1251_" x="233" y="341.9" style="fill:#486380;" width="1" height="84.2"/>
			<polygon id="XMLID_1250_" style="fill:#2F4151;" points="235.1,341.8 234.1,341.9 234.1,426.1 235.1,426.6 			"/>
			<path id="XMLID_1249_" style="fill:#2F4151;" d="M240.7,341.8c0.4,0.1,0.7,0.1,1.1,0.2v84.2c-0.3,0.2-0.7,0.3-1,0.5
				C240.7,398.3,240.7,370,240.7,341.8z"/>
			<rect id="XMLID_1246_" x="241.7" y="342" style="fill:#486380;" width="1" height="84.2"/>
			<path id="XMLID_1245_" style="fill:#2F4151;" d="M243.7,341.8c-0.3,0.1-0.6,0.1-1,0.2v84.2c0.3,0.2,0.7,0.3,1,0.5
				C243.8,398.3,243.7,370,243.7,341.8z"/>
			<rect id="XMLID_1242_" x="243.7" y="341.8" style="fill:#486380;" width="5.7" height="84.9"/>
			<path id="XMLID_1241_" style="fill:#2F4151;" d="M249.4,341.8c0.4,0.1,0.7,0.1,1.1,0.2v84.2c-0.4,0.2-0.7,0.3-1.1,0.5
				C249.4,398.3,249.4,370,249.4,341.8z"/>
			<rect id="XMLID_1238_" x="250.4" y="342" style="fill:#486380;" width="1" height="84.2"/>
			<polygon id="XMLID_1237_" style="fill:#2F4151;" points="252.4,341.8 251.5,342 251.5,426.1 252.4,426.6 			"/>
			<rect id="XMLID_1234_" x="261.2" y="341.8" style="fill:#486380;" width="5.7" height="84.9"/>
			<rect id="XMLID_1231_" x="252.5" y="341.7" style="fill:#486380;" width="5.7" height="84.9"/>
			<path id="XMLID_1230_" style="fill:#2F4151;" d="M258.2,341.7c0.4,0.1,0.7,0.1,1.1,0.2v84.2c-0.4,0.2-0.7,0.3-1.1,0.5
				C258.2,398.3,258.2,370,258.2,341.7z"/>
			<rect id="XMLID_1227_" x="259.2" y="341.9" style="fill:#486380;" width="1" height="84.2"/>
			<polygon id="XMLID_1226_" style="fill:#2F4151;" points="261.2,341.8 260.3,341.9 260.3,426.1 261.2,426.6 			"/>
			<path id="XMLID_1225_" style="fill:#2F4151;" d="M266.9,341.8c0.4,0.1,0.7,0.1,1.1,0.2v84.2c-0.3,0.2-0.7,0.3-1,0.5
				C266.9,398.3,266.9,370,266.9,341.8z"/>
			<rect id="XMLID_1222_" x="267.9" y="341.9" style="fill:#486380;" width="1" height="84.2"/>
			<path id="XMLID_1221_" style="fill:#2F4151;" d="M269.9,341.8c-0.3,0.1-0.6,0.1-1,0.2v84.2c0.3,0.2,0.7,0.3,1,0.5
				C269.9,398.3,269.9,370,269.9,341.8z"/>
			<rect id="XMLID_1218_" x="269.9" y="341.7" style="fill:#486380;" width="5.7" height="84.9"/>
			<path id="XMLID_1217_" style="fill:#2F4151;" d="M275.6,341.8c0.4,0.1,0.7,0.1,1.1,0.2v84.2c-0.4,0.2-0.7,0.3-1.1,0.5
				C275.6,398.3,275.6,370,275.6,341.8z"/>
			<rect id="XMLID_1214_" x="276.7" y="342" style="fill:#486380;" width="1" height="84.2"/>
			<rect id="XMLID_1213_" x="198.1" y="339.5" style="fill:#486380;" width="79.6" height="2.3"/>
			<rect id="XMLID_1210_" x="198.1" y="341.5" style="fill:#1F2A33;" width="79.6" height="0.3"/>
			<rect id="XMLID_1209_" x="198.1" y="341" style="fill:#3E5468;" width="79.6" height="0.1"/>
			<rect id="XMLID_1208_" x="198.1" y="340" style="fill:#3E5468;" width="79.6" height="0.1"/>
			<g id="XMLID_1198_">
				<rect id="XMLID_1207_" x="277.7" y="339.5" style="fill:#486380;" width="2.4" height="89.4"/>
				<rect id="XMLID_1204_" x="277.7" y="339.5" style="fill:#1F2A33;" width="0.3" height="89.4"/>
				<rect id="XMLID_1203_" x="278.3" y="339.5" style="fill:#3E5468;" width="0.1" height="89.4"/>
				<rect id="XMLID_1202_" x="279.4" y="339.5" style="fill:#3E5468;" width="0.1" height="89.4"/>
				<rect id="XMLID_1199_" x="280" y="339.5" style="fill:#1F2A33;" width="0.3" height="89.4"/>
			</g>
			<g id="XMLID_1191_">
				<rect id="XMLID_1197_" x="198.2" y="426.6" style="fill:#486380;" width="79.5" height="2.3"/>
				<rect id="XMLID_1194_" x="198.2" y="426.6" style="fill:#1F2A33;" width="79.5" height="0.3"/>
				<rect id="XMLID_1193_" x="198.2" y="427.2" style="fill:#3E5468;" width="79.5" height="0.1"/>
				<rect id="XMLID_1192_" x="198.2" y="428.3" style="fill:#3E5468;" width="79.5" height="0.1"/>
			</g>
		</g>
		<g id="XMLID_557_">
			<rect id="XMLID_1187_" x="115.5" y="340.6" style="fill:#486380;" width="81" height="87.1"/>
			<rect id="XMLID_1184_" x="126.8" y="341.8" style="fill:#486380;" width="5.7" height="84.9"/>
			<rect id="XMLID_1181_" x="116.1" y="341.9" style="fill:#486380;" width="1" height="84.2"/>
			<path id="XMLID_1180_" style="fill:#2F4151;" d="M118.2,341.7c-0.3,0.1-0.6,0.1-1,0.2v84.2c0.3,0.2,0.7,0.3,1,0.5
				C118.2,398.3,118.2,370,118.2,341.7z"/>
			<rect id="XMLID_1177_" x="118.1" y="341.7" style="fill:#486380;" width="5.7" height="84.9"/>
			<path id="XMLID_1176_" style="fill:#2F4151;" d="M123.8,341.7c0.4,0.1,0.7,0.1,1.1,0.2v84.2c-0.4,0.2-0.7,0.3-1.1,0.5
				C123.8,398.3,123.8,370,123.8,341.7z"/>
			<rect id="XMLID_1173_" x="124.8" y="341.9" style="fill:#486380;" width="1" height="84.2"/>
			<polygon id="XMLID_1172_" style="fill:#2F4151;" points="126.9,341.8 125.9,341.9 125.9,426.1 126.9,426.6 			"/>
			<path id="XMLID_1171_" style="fill:#2F4151;" d="M132.5,341.8c0.4,0.1,0.7,0.1,1.1,0.2v84.2c-0.3,0.2-0.7,0.3-1,0.5
				C132.6,398.3,132.5,370,132.5,341.8z"/>
			<rect id="XMLID_1168_" x="133.5" y="342" style="fill:#486380;" width="1" height="84.2"/>
			<path id="XMLID_1167_" style="fill:#2F4151;" d="M135.6,341.8c-0.3,0.1-0.6,0.1-1,0.2v84.2c0.3,0.2,0.7,0.3,1,0.5
				C135.6,398.3,135.6,370,135.6,341.8z"/>
			<rect id="XMLID_1164_" x="135.5" y="341.8" style="fill:#486380;" width="5.7" height="84.9"/>
			<path id="XMLID_1163_" style="fill:#2F4151;" d="M141.2,341.8c0.4,0.1,0.7,0.1,1.1,0.2v84.2c-0.4,0.2-0.7,0.3-1.1,0.5
				C141.2,398.3,141.2,370,141.2,341.8z"/>
			<rect id="XMLID_1160_" x="142.2" y="342" style="fill:#486380;" width="1" height="84.2"/>
			<polygon id="XMLID_1159_" style="fill:#2F4151;" points="144.3,341.8 143.3,342 143.3,426.1 144.3,426.6 			"/>
			<rect id="XMLID_1156_" x="153" y="341.8" style="fill:#486380;" width="5.7" height="84.9"/>
			<rect id="XMLID_1153_" x="144.3" y="341.7" style="fill:#486380;" width="5.7" height="84.9"/>
			<path id="XMLID_1152_" style="fill:#2F4151;" d="M150,341.7c0.4,0.1,0.7,0.1,1.1,0.2v84.2c-0.4,0.2-0.7,0.3-1.1,0.5
				C150,398.3,150,370,150,341.7z"/>
			<rect id="XMLID_1149_" x="151" y="341.9" style="fill:#486380;" width="1" height="84.2"/>
			<polygon id="XMLID_1148_" style="fill:#2F4151;" points="153.1,341.8 152.1,341.9 152.1,426.1 153.1,426.6 			"/>
			<path id="XMLID_1147_" style="fill:#2F4151;" d="M158.7,341.8c0.4,0.1,0.7,0.1,1.1,0.2v84.2c-0.3,0.2-0.7,0.3-1,0.5
				C158.7,398.3,158.7,370,158.7,341.8z"/>
			<rect id="XMLID_1144_" x="159.7" y="342" style="fill:#486380;" width="1" height="84.2"/>
			<path id="XMLID_1143_" style="fill:#2F4151;" d="M161.7,341.8c-0.3,0.1-0.6,0.1-1,0.2v84.2c0.3,0.2,0.7,0.3,1,0.5
				C161.8,398.3,161.7,370,161.7,341.8z"/>
			<rect id="XMLID_1140_" x="161.7" y="341.8" style="fill:#486380;" width="5.7" height="84.9"/>
			<path id="XMLID_1139_" style="fill:#2F4151;" d="M167.4,341.8c0.4,0.1,0.7,0.1,1.1,0.2v84.2c-0.4,0.2-0.7,0.3-1.1,0.5
				C167.4,398.3,167.4,370,167.4,341.8z"/>
			<rect id="XMLID_1136_" x="168.4" y="342" style="fill:#486380;" width="1" height="84.2"/>
			<polygon id="XMLID_1135_" style="fill:#2F4151;" points="170.4,341.8 169.5,342 169.5,426.1 170.4,426.6 			"/>
			<rect id="XMLID_1132_" x="179.2" y="341.8" style="fill:#486380;" width="5.7" height="84.9"/>
			<rect id="XMLID_1129_" x="170.5" y="341.7" style="fill:#486380;" width="5.7" height="84.9"/>
			<path id="XMLID_1128_" style="fill:#2F4151;" d="M176.2,341.7c0.4,0.1,0.7,0.1,1.1,0.2v84.2c-0.4,0.2-0.7,0.3-1.1,0.5
				C176.2,398.3,176.2,370,176.2,341.7z"/>
			<rect id="XMLID_1089_" x="177.2" y="341.9" style="fill:#486380;" width="1" height="84.2"/>
			<polygon id="XMLID_1088_" style="fill:#2F4151;" points="179.2,341.8 178.3,341.9 178.3,426.1 179.2,426.6 			"/>
			<path id="XMLID_1087_" style="fill:#2F4151;" d="M184.9,341.8c0.4,0.1,0.7,0.1,1.1,0.2v84.2c-0.3,0.2-0.7,0.3-1,0.5
				C184.9,398.3,184.9,370,184.9,341.8z"/>
			<rect id="XMLID_1084_" x="185.9" y="341.9" style="fill:#486380;" width="1" height="84.2"/>
			<path id="XMLID_1083_" style="fill:#2F4151;" d="M187.9,341.8c-0.3,0.1-0.6,0.1-1,0.2v84.2c0.3,0.2,0.7,0.3,1,0.5
				C187.9,398.3,187.9,370,187.9,341.8z"/>
			<rect id="XMLID_951_" x="187.9" y="341.7" style="fill:#486380;" width="5.7" height="84.9"/>
			<path id="XMLID_950_" style="fill:#2F4151;" d="M193.6,341.8c0.4,0.1,0.7,0.1,1.1,0.2v84.2c-0.4,0.2-0.7,0.3-1.1,0.5
				C193.6,398.3,193.6,370,193.6,341.8z"/>
			<rect id="XMLID_947_" x="194.7" y="342" style="fill:#486380;" width="1" height="84.2"/>
			<rect id="XMLID_946_" x="116.1" y="339.5" style="fill:#486380;" width="79.6" height="2.3"/>
			<rect id="XMLID_703_" x="116.1" y="341.5" style="fill:#1F2A33;" width="79.6" height="0.3"/>
			<rect id="XMLID_673_" x="116.1" y="341" style="fill:#3E5468;" width="79.6" height="0.1"/>
			<rect id="XMLID_672_" x="116.1" y="340" style="fill:#3E5468;" width="79.6" height="0.1"/>
			<g id="XMLID_565_">
				<rect id="XMLID_671_" x="195.7" y="339.5" style="fill:#486380;" width="2.4" height="89.4"/>
				<rect id="XMLID_668_" x="195.7" y="339.5" style="fill:#1F2A33;" width="0.3" height="89.4"/>
				<rect id="XMLID_667_" x="196.3" y="339.5" style="fill:#3E5468;" width="0.1" height="89.4"/>
				<rect id="XMLID_666_" x="197.4" y="339.5" style="fill:#3E5468;" width="0.1" height="89.4"/>
				<rect id="XMLID_566_" x="198" y="339.5" style="fill:#1F2A33;" width="0.3" height="89.4"/>
			</g>
			<g id="XMLID_558_">
				<rect id="XMLID_564_" x="116.2" y="426.6" style="fill:#486380;" width="79.5" height="2.3"/>
				<rect id="XMLID_561_" x="116.2" y="426.6" style="fill:#1F2A33;" width="79.5" height="0.3"/>
				<rect id="XMLID_560_" x="116.2" y="427.2" style="fill:#3E5468;" width="79.5" height="0.1"/>
				<rect id="XMLID_559_" x="116.2" y="428.3" style="fill:#3E5468;" width="79.5" height="0.1"/>
			</g>
		</g>
		<g id="XMLID_31_">
			<rect id="XMLID_554_" x="33.5" y="340.6" style="fill:#486380;" width="81" height="87.1"/>
			<rect id="XMLID_551_" x="44.8" y="341.8" style="fill:#486380;" width="5.7" height="84.9"/>
			<rect id="XMLID_548_" x="34.1" y="341.9" style="fill:#486380;" width="1" height="84.2"/>
			<path id="XMLID_547_" style="fill:#2F4151;" d="M36.2,341.7c-0.3,0.1-0.6,0.1-1,0.2v84.2c0.3,0.2,0.7,0.3,1,0.5
				C36.2,398.3,36.2,370,36.2,341.7z"/>
			<rect id="XMLID_544_" x="36.1" y="341.7" style="fill:#486380;" width="5.7" height="84.9"/>
			<path id="XMLID_543_" style="fill:#2F4151;" d="M41.8,341.7c0.4,0.1,0.7,0.1,1.1,0.2v84.2c-0.4,0.2-0.7,0.3-1.1,0.5
				C41.8,398.3,41.8,370,41.8,341.7z"/>
			<rect id="XMLID_540_" x="42.8" y="341.9" style="fill:#486380;" width="1" height="84.2"/>
			<polygon id="XMLID_539_" style="fill:#2F4151;" points="44.9,341.8 43.9,341.9 43.9,426.1 44.9,426.6 			"/>
			<path id="XMLID_538_" style="fill:#2F4151;" d="M50.5,341.8c0.4,0.1,0.7,0.1,1.1,0.2v84.2c-0.3,0.2-0.7,0.3-1,0.5
				C50.6,398.3,50.5,370,50.5,341.8z"/>
			<rect id="XMLID_535_" x="51.5" y="342" style="fill:#486380;" width="1" height="84.2"/>
			<path id="XMLID_534_" style="fill:#2F4151;" d="M53.6,341.8c-0.3,0.1-0.6,0.1-1,0.2v84.2c0.3,0.2,0.7,0.3,1,0.5
				C53.6,398.3,53.6,370,53.6,341.8z"/>
			<rect id="XMLID_531_" x="53.5" y="341.8" style="fill:#486380;" width="5.7" height="84.9"/>
			<path id="XMLID_530_" style="fill:#2F4151;" d="M59.2,341.8c0.4,0.1,0.7,0.1,1.1,0.2v84.2c-0.4,0.2-0.7,0.3-1.1,0.5
				C59.2,398.3,59.2,370,59.2,341.8z"/>
			<rect id="XMLID_525_" x="60.2" y="342" style="fill:#486380;" width="1" height="84.2"/>
			<polygon id="XMLID_524_" style="fill:#2F4151;" points="62.3,341.8 61.3,342 61.3,426.1 62.3,426.6 			"/>
			<rect id="XMLID_521_" x="71" y="341.8" style="fill:#486380;" width="5.7" height="84.9"/>
			<rect id="XMLID_518_" x="62.3" y="341.7" style="fill:#486380;" width="5.7" height="84.9"/>
			<path id="XMLID_517_" style="fill:#2F4151;" d="M68,341.7c0.4,0.1,0.7,0.1,1.1,0.2v84.2c-0.4,0.2-0.7,0.3-1.1,0.5
				C68,398.3,68,370,68,341.7z"/>
			<rect id="XMLID_513_" x="69" y="341.9" style="fill:#486380;" width="1" height="84.2"/>
			<polygon id="XMLID_512_" style="fill:#2F4151;" points="71.1,341.8 70.1,341.9 70.1,426.1 71.1,426.6 			"/>
			<path id="XMLID_511_" style="fill:#2F4151;" d="M76.7,341.8c0.4,0.1,0.7,0.1,1.1,0.2v84.2c-0.3,0.2-0.7,0.3-1,0.5
				C76.7,398.3,76.7,370,76.7,341.8z"/>
			<rect id="XMLID_507_" x="77.7" y="342" style="fill:#486380;" width="1" height="84.2"/>
			<path id="XMLID_506_" style="fill:#2F4151;" d="M79.7,341.8c-0.3,0.1-0.6,0.1-1,0.2v84.2c0.3,0.2,0.7,0.3,1,0.5
				C79.8,398.3,79.7,370,79.7,341.8z"/>
			<rect id="XMLID_502_" x="79.7" y="341.8" style="fill:#486380;" width="5.7" height="84.9"/>
			<path id="XMLID_501_" style="fill:#2F4151;" d="M85.4,341.8c0.4,0.1,0.7,0.1,1.1,0.2v84.2c-0.4,0.2-0.7,0.3-1.1,0.5
				C85.4,398.3,85.4,370,85.4,341.8z"/>
			<rect id="XMLID_498_" x="86.4" y="342" style="fill:#486380;" width="1" height="84.2"/>
			<polygon id="XMLID_496_" style="fill:#2F4151;" points="88.4,341.8 87.5,342 87.5,426.1 88.4,426.6 			"/>
			<rect id="XMLID_493_" x="97.2" y="341.8" style="fill:#486380;" width="5.7" height="84.9"/>
			<rect id="XMLID_490_" x="88.5" y="341.7" style="fill:#486380;" width="5.7" height="84.9"/>
			<path id="XMLID_489_" style="fill:#2F4151;" d="M94.2,341.7c0.4,0.1,0.7,0.1,1.1,0.2v84.2c-0.4,0.2-0.7,0.3-1.1,0.5
				C94.2,398.3,94.2,370,94.2,341.7z"/>
			<rect id="XMLID_484_" x="95.2" y="341.9" style="fill:#486380;" width="1" height="84.2"/>
			<polygon id="XMLID_483_" style="fill:#2F4151;" points="97.2,341.8 96.3,341.9 96.3,426.1 97.2,426.6 			"/>
			<path id="XMLID_482_" style="fill:#2F4151;" d="M102.9,341.8c0.4,0.1,0.7,0.1,1.1,0.2v84.2c-0.3,0.2-0.7,0.3-1,0.5
				C102.9,398.3,102.9,370,102.9,341.8z"/>
			<rect id="XMLID_477_" x="103.9" y="341.9" style="fill:#486380;" width="1" height="84.2"/>
			<path id="XMLID_476_" style="fill:#2F4151;" d="M105.9,341.8c-0.3,0.1-0.6,0.1-1,0.2v84.2c0.3,0.2,0.7,0.3,1,0.5
				C105.9,398.3,105.9,370,105.9,341.8z"/>
			<rect id="XMLID_469_" x="105.9" y="341.7" style="fill:#486380;" width="5.7" height="84.9"/>
			<path id="XMLID_468_" style="fill:#2F4151;" d="M111.6,341.8c0.4,0.1,0.7,0.1,1.1,0.2v84.2c-0.4,0.2-0.7,0.3-1.1,0.5
				C111.6,398.3,111.6,370,111.6,341.8z"/>
			<rect id="XMLID_463_" x="112.7" y="342" style="fill:#486380;" width="1" height="84.2"/>
			<rect id="XMLID_462_" x="34.1" y="339.5" style="fill:#486380;" width="79.6" height="2.3"/>
			<rect id="XMLID_457_" x="34.1" y="341.5" style="fill:#1F2A33;" width="79.6" height="0.3"/>
			<rect id="XMLID_455_" x="34.1" y="341" style="fill:#3E5468;" width="79.6" height="0.1"/>
			<rect id="XMLID_454_" x="34.1" y="340" style="fill:#3E5468;" width="79.6" height="0.1"/>
			<g id="XMLID_446_">
				<rect id="XMLID_453_" x="31.8" y="339.5" style="fill:#486380;" width="2.4" height="89.5"/>
				<rect id="XMLID_450_" x="33.8" y="339.5" style="fill:#1F2A33;" width="0.3" height="89.5"/>
				<rect id="XMLID_449_" x="33.4" y="339.5" style="fill:#3E5468;" width="0.1" height="89.5"/>
				<rect id="XMLID_447_" x="32.3" y="339.5" style="fill:#3E5468;" width="0.1" height="89.5"/>
			</g>
			<g id="XMLID_204_">
				<rect id="XMLID_443_" x="113.7" y="339.5" style="fill:#486380;" width="2.4" height="89.4"/>
				<rect id="XMLID_440_" x="113.7" y="339.5" style="fill:#1F2A33;" width="0.3" height="89.4"/>
				<rect id="XMLID_439_" x="114.3" y="339.5" style="fill:#3E5468;" width="0.1" height="89.4"/>
				<rect id="XMLID_438_" x="115.4" y="339.5" style="fill:#3E5468;" width="0.1" height="89.4"/>
				<rect id="XMLID_207_" x="116" y="339.5" style="fill:#1F2A33;" width="0.3" height="89.4"/>
			</g>
			<g id="XMLID_34_">
				<rect id="XMLID_201_" x="34.2" y="426.6" style="fill:#486380;" width="79.5" height="2.3"/>
				<rect id="XMLID_197_" x="34.2" y="426.6" style="fill:#1F2A33;" width="79.5" height="0.3"/>
				<rect id="XMLID_196_" x="34.2" y="427.2" style="fill:#3E5468;" width="79.5" height="0.1"/>
				<rect id="XMLID_195_" x="34.2" y="428.3" style="fill:#3E5468;" width="79.5" height="0.1"/>
			</g>
		</g>
		<g id="XMLID_94_">
			<rect id="XMLID_1918_" x="667.5" y="340.6" style="fill:#486380;" width="81" height="87.1"/>
			<rect id="XMLID_1915_" x="678.8" y="341.8" style="fill:#486380;" width="5.7" height="84.8"/>
			<rect id="XMLID_1912_" x="668.1" y="342" style="fill:#486380;" width="1" height="84.1"/>
			<path id="XMLID_1911_" style="fill:#2F4151;" d="M670.2,341.8c-0.3,0.1-0.6,0.1-1,0.2v84.1c0.3,0.2,0.7,0.3,1,0.5
				C670.2,398.3,670.2,370,670.2,341.8z"/>
			<rect id="XMLID_1908_" x="670.1" y="341.8" style="fill:#486380;" width="5.7" height="84.8"/>
			<path id="XMLID_1907_" style="fill:#2F4151;" d="M675.8,341.8c0.4,0.1,0.7,0.1,1.1,0.2v84.1c-0.4,0.2-0.7,0.3-1.1,0.5
				C675.8,398.3,675.8,370.1,675.8,341.8z"/>
			<rect id="XMLID_1904_" x="676.8" y="342" style="fill:#486380;" width="1" height="84.1"/>
			<polygon id="XMLID_1903_" style="fill:#2F4151;" points="678.9,341.8 677.9,342 677.9,426.1 678.9,426.6 			"/>
			<path id="XMLID_1902_" style="fill:#2F4151;" d="M684.5,341.8c0.4,0.1,0.7,0.1,1.1,0.2v84.1c-0.3,0.2-0.7,0.3-1,0.5
				C684.6,398.3,684.5,370.1,684.5,341.8z"/>
			<rect id="XMLID_1899_" x="685.5" y="342" style="fill:#486380;" width="1" height="84.1"/>
			<path id="XMLID_1898_" style="fill:#2F4151;" d="M687.6,341.8c-0.3,0.1-0.6,0.1-1,0.2v84.1c0.3,0.2,0.7,0.3,1,0.5
				C687.6,398.3,687.6,370.1,687.6,341.8z"/>
			<rect id="XMLID_1895_" x="687.5" y="341.8" style="fill:#486380;" width="5.7" height="84.8"/>
			<path id="XMLID_1894_" style="fill:#2F4151;" d="M693.2,341.8c0.4,0.1,0.7,0.1,1.1,0.2v84.1c-0.4,0.2-0.7,0.3-1.1,0.5
				C693.2,398.3,693.2,370.1,693.2,341.8z"/>
			<rect id="XMLID_1891_" x="694.2" y="342" style="fill:#486380;" width="1" height="84.1"/>
			<polygon id="XMLID_1890_" style="fill:#2F4151;" points="696.3,341.8 695.3,342 695.3,426.1 696.3,426.6 			"/>
			<rect id="XMLID_1887_" x="705" y="341.8" style="fill:#486380;" width="5.7" height="84.8"/>
			<rect id="XMLID_1884_" x="696.3" y="341.8" style="fill:#486380;" width="5.7" height="84.8"/>
			<path id="XMLID_1883_" style="fill:#2F4151;" d="M702,341.8c0.4,0.1,0.7,0.1,1.1,0.2v84.1c-0.4,0.2-0.7,0.3-1.1,0.5
				C702,398.3,702,370.1,702,341.8z"/>
			<rect id="XMLID_1880_" x="703" y="342" style="fill:#486380;" width="1" height="84.1"/>
			<polygon id="XMLID_1879_" style="fill:#2F4151;" points="705.1,341.8 704.1,342 704.1,426.1 705.1,426.6 			"/>
			<path id="XMLID_1878_" style="fill:#2F4151;" d="M710.7,341.8c0.4,0.1,0.7,0.1,1.1,0.2v84.1c-0.3,0.2-0.7,0.3-1,0.5
				C710.7,398.3,710.7,370.1,710.7,341.8z"/>
			<rect id="XMLID_1875_" x="711.7" y="342" style="fill:#486380;" width="1" height="84.1"/>
			<path id="XMLID_1874_" style="fill:#2F4151;" d="M713.7,341.8c-0.3,0.1-0.6,0.1-1,0.2v84.1c0.3,0.2,0.7,0.3,1,0.5
				C713.8,398.3,713.8,370.1,713.7,341.8z"/>
			<rect id="XMLID_1871_" x="713.7" y="341.8" style="fill:#486380;" width="5.7" height="84.8"/>
			<path id="XMLID_1870_" style="fill:#2F4151;" d="M719.4,341.8c0.4,0.1,0.7,0.1,1.1,0.2v84.1c-0.4,0.2-0.7,0.3-1.1,0.5
				C719.4,398.3,719.4,370.1,719.4,341.8z"/>
			<rect id="XMLID_1867_" x="720.4" y="342" style="fill:#486380;" width="1" height="84.1"/>
			<polygon id="XMLID_1866_" style="fill:#2F4151;" points="722.4,341.8 721.5,342 721.5,426.1 722.4,426.6 			"/>
			<rect id="XMLID_1863_" x="731.2" y="341.8" style="fill:#486380;" width="5.7" height="84.8"/>
			<rect id="XMLID_1860_" x="722.5" y="341.8" style="fill:#486380;" width="5.7" height="84.8"/>
			<path id="XMLID_1859_" style="fill:#2F4151;" d="M728.2,341.8c0.4,0.1,0.7,0.1,1.1,0.2v84.1c-0.4,0.2-0.7,0.3-1.1,0.5
				C728.2,398.3,728.2,370.1,728.2,341.8z"/>
			<rect id="XMLID_1856_" x="729.2" y="342" style="fill:#486380;" width="1" height="84.1"/>
			<polygon id="XMLID_1855_" style="fill:#2F4151;" points="731.2,341.8 730.3,342 730.3,426.1 731.2,426.6 			"/>
			<path id="XMLID_1854_" style="fill:#2F4151;" d="M736.9,341.8c0.4,0.1,0.7,0.1,1.1,0.2v84.1c-0.3,0.2-0.7,0.3-1,0.5
				C736.9,398.3,736.9,370.1,736.9,341.8z"/>
			<rect id="XMLID_1851_" x="737.9" y="341.9" style="fill:#486380;" width="1" height="84.1"/>
			<path id="XMLID_1850_" style="fill:#2F4151;" d="M739.9,341.8c-0.3,0.1-0.6,0.1-1,0.2v84.1c0.3,0.2,0.7,0.3,1,0.5
				C739.9,398.3,739.9,370.1,739.9,341.8z"/>
			<rect id="XMLID_1847_" x="739.9" y="341.8" style="fill:#486380;" width="5.7" height="84.8"/>
			<path id="XMLID_1846_" style="fill:#2F4151;" d="M745.6,341.8c0.4,0.1,0.7,0.1,1.1,0.2v84.1c-0.4,0.2-0.7,0.3-1.1,0.5
				C745.6,398.3,745.6,370.1,745.6,341.8z"/>
			<rect id="XMLID_1843_" x="746.7" y="342" style="fill:#486380;" width="1" height="84.1"/>
			<rect id="XMLID_1842_" x="668.1" y="339.5" style="fill:#486380;" width="79.6" height="2.3"/>
			<rect id="XMLID_1839_" x="668.1" y="341.5" style="fill:#1F2A33;" width="79.6" height="0.3"/>
			<rect id="XMLID_1838_" x="668.1" y="341.1" style="fill:#3E5468;" width="79.6" height="0.1"/>
			<rect id="XMLID_1837_" x="668.1" y="340" style="fill:#3E5468;" width="79.6" height="0.1"/>
			<g id="XMLID_1830_">
				<rect id="XMLID_1836_" x="665.8" y="339.5" style="fill:#486380;" width="2.4" height="89.4"/>
				<rect id="XMLID_1833_" x="667.8" y="339.5" style="fill:#1F2A33;" width="0.3" height="89.4"/>
				<rect id="XMLID_1832_" x="667.4" y="339.5" style="fill:#3E5468;" width="0.1" height="89.4"/>
				<rect id="XMLID_1831_" x="666.3" y="339.5" style="fill:#3E5468;" width="0.1" height="89.4"/>
			</g>
			<g id="XMLID_1596_">
				<rect id="XMLID_1829_" x="747.7" y="339.5" style="fill:#486380;" width="2.4" height="89.4"/>
				<rect id="XMLID_1684_" x="747.7" y="339.5" style="fill:#1F2A33;" width="0.3" height="89.4"/>
				<rect id="XMLID_1683_" x="748.3" y="339.5" style="fill:#3E5468;" width="0.1" height="89.4"/>
				<rect id="XMLID_1682_" x="749.4" y="339.5" style="fill:#3E5468;" width="0.1" height="89.4"/>
				<rect id="XMLID_1678_" x="750" y="339.5" style="fill:#1F2A33;" width="0.3" height="89.4"/>
			</g>
			<g id="XMLID_95_">
				<rect id="XMLID_198_" x="668.2" y="426.6" style="fill:#486380;" width="79.5" height="2.3"/>
				<rect id="XMLID_100_" x="668.2" y="426.6" style="fill:#1F2A33;" width="79.5" height="0.3"/>
				<rect id="XMLID_98_" x="668.2" y="427.2" style="fill:#3E5468;" width="79.5" height="0.1"/>
				<rect id="XMLID_97_" x="668.2" y="428.3" style="fill:#3E5468;" width="79.5" height="0.1"/>
			</g>
		</g>
	</g>
</g>
</svg>
