<?xml version="1.0" encoding="utf-8"?>
<!-- Generator: Adobe Illustrator 19.0.0, SVG Export Plug-In . SVG Version: 6.00 Build 0)  -->
<svg version="1.1" id="services_x5F_decking" xmlns="http://www.w3.org/2000/svg" xmlns:xlink="http://www.w3.org/1999/xlink"
	 x="0px" y="0px" viewBox="0 0 758.2 673.9" style="enable-background:new 0 0 758.2 673.9;" xml:space="preserve">
<g id="services_x5F_decking_x5F_foreground">
	<path id="XMLID_84_" style="fill:#3F291C;" d="M16.2,660.1c5-34.2,20.1-101,72.7-130.7c26.1-14.7,51.3-14.7,68-14.7
		c115.6,0.1,231.1,2.2,346.7,0.7c95.5-1.3,121.3-9.7,158,13.3c50.5,31.6,70.1,90.4,78.7,131.3C498.9,660.1,257.5,660.1,16.2,660.1z"
		/>
	<polygon id="XMLID_557_" style="fill-rule:evenodd;clip-rule:evenodd;fill:#C6C5C4;" points="148.2,305 223.8,242.1 519.2,242.1 
		519.2,305.8 	"/>
	<rect id="XMLID_51_" x="120.2" y="494.5" style="fill:#3C5211;" width="510.9" height="21.5"/>
	<path id="XMLID_1_" style="fill:#3F291C;" d="M751.3,673.9H6.9c-3.8,0-6.9-3.1-6.9-6.9l0,0c0-3.8,3.1-6.9,6.9-6.9h744.4
		c3.8,0,6.9,3.1,6.9,6.9l0,0C758.2,670.8,755.1,673.9,751.3,673.9z"/>
	<path id="XMLID_274_" style="fill:#3C5211;" d="M636.1,519.1H113.8c-2.9,0-5.3-2.4-5.3-5.3v0c0-2.9,2.4-5.3,5.3-5.3h522.3
		c2.9,0,5.3,2.4,5.3,5.3v0C641.4,516.7,639,519.1,636.1,519.1z"/>
	<rect id="XMLID_48_" x="114.5" y="489.6" style="fill:#A96D48;" width="520.6" height="7.7"/>
	<polygon id="XMLID_47_" style="fill:#A96D48;" points="431.2,498.3 431.2,509.1 444.2,509.1 444.2,491.1 431.2,491.1 	"/>
	<polygon id="XMLID_46_" style="fill:#A96D48;" points="622.2,498.3 622.2,509.1 635.2,509.1 635.2,491.1 622.2,491.1 	"/>
	<polygon id="XMLID_45_" style="fill:#A96D48;" points="526.2,498.3 526.2,509.1 539.2,509.1 539.2,491.1 526.2,491.1 	"/>
	<polygon id="XMLID_44_" style="fill:#A96D48;" points="325.2,498.3 325.2,509.1 338.2,509.1 338.2,491.1 325.2,491.1 	"/>
	<polygon id="XMLID_43_" style="fill:#A96D48;" points="228.2,498.3 228.2,509.1 241.2,509.1 241.2,491.1 228.2,491.1 	"/>
	<polygon id="XMLID_42_" style="fill:#A96D48;" points="114.2,498.3 114.2,509.1 127.2,509.1 127.2,491.1 114.2,491.1 	"/>
	<path id="XMLID_52_" style="fill:#11721F;" d="M259,449.1"/>
	<path id="XMLID_18_" style="fill:#B28064;" d="M113.8,490.5c13.2-13.1,26.3-26.4,39.5-39.4h482v39.5
		C461.2,490.6,287.5,490.5,113.8,490.5z"/>
	<rect id="XMLID_22_" x="458.6" y="287.6" style="fill:#FDF9F8;" width="176.7" height="177.6"/>
	<rect id="XMLID_24_" x="153" y="309.8" style="fill:#EAEAEA;" width="308.3" height="141.9"/>
	<rect id="XMLID_25_" x="458.2" y="287.6" style="fill:#FDF9F8;" width="176.7" height="8.5"/>
	<rect id="XMLID_27_" x="458.2" y="295.6" style="fill:#404042;" width="176.7" height="1"/>
	<rect id="XMLID_28_" x="458.2" y="296.5" style="fill:#FDF9F8;" width="176.7" height="8.5"/>
	<rect id="XMLID_88_" x="458.2" y="305" style="fill:#404042;" width="176.7" height="1"/>
	<rect id="XMLID_90_" x="458.2" y="306" style="fill:#FDF9F8;" width="176.7" height="8.5"/>
	<rect id="XMLID_94_" x="458.2" y="314.4" style="fill:#404042;" width="176.7" height="1"/>
	<rect id="XMLID_96_" x="458.2" y="315.4" style="fill:#FDF9F8;" width="176.7" height="8.5"/>
	<rect id="XMLID_368_" x="458.2" y="323.9" style="fill:#404042;" width="176.7" height="1"/>
	<rect id="XMLID_369_" x="458.2" y="324.8" style="fill:#FDF9F8;" width="176.7" height="8.5"/>
	<rect id="XMLID_372_" x="458.2" y="333.3" style="fill:#404042;" width="176.7" height="1"/>
	<rect id="XMLID_373_" x="458.2" y="334.1" style="fill:#FDF9F8;" width="176.7" height="8.5"/>
	<rect id="XMLID_376_" x="458.2" y="342.6" style="fill:#404042;" width="176.7" height="1"/>
	<rect id="XMLID_377_" x="458.2" y="343.5" style="fill:#FDF9F8;" width="176.7" height="8.5"/>
	<rect id="XMLID_380_" x="458.2" y="352" style="fill:#404042;" width="176.7" height="1"/>
	<rect id="XMLID_381_" x="458.2" y="353" style="fill:#FDF9F8;" width="176.7" height="8.5"/>
	<rect id="XMLID_384_" x="458.2" y="361.4" style="fill:#404042;" width="176.7" height="1"/>
	<rect id="XMLID_388_" x="458.2" y="370.9" style="fill:#404042;" width="176.7" height="1"/>
	<rect id="XMLID_389_" x="458.2" y="371.8" style="fill:#FDF9F8;" width="176.7" height="8.5"/>
	<rect id="XMLID_392_" x="458.2" y="380.3" style="fill:#404042;" width="176.7" height="1"/>
	<rect id="XMLID_393_" x="458.2" y="381.3" style="fill:#FDF9F8;" width="176.7" height="8.5"/>
	<rect id="XMLID_396_" x="458.2" y="389.7" style="fill:#404042;" width="176.7" height="1"/>
	<rect id="XMLID_397_" x="458.2" y="390.7" style="fill:#FDF9F8;" width="176.7" height="8.5"/>
	<rect id="XMLID_400_" x="458.2" y="399.2" style="fill:#404042;" width="176.7" height="1"/>
	<rect id="XMLID_401_" x="458.2" y="400.1" style="fill:#FDF9F8;" width="176.7" height="8.5"/>
	<rect id="XMLID_404_" x="458.2" y="408.6" style="fill:#404042;" width="176.7" height="1"/>
	<rect id="XMLID_405_" x="458.2" y="409.6" style="fill:#FDF9F8;" width="176.7" height="8.5"/>
	<rect id="XMLID_408_" x="458.2" y="418" style="fill:#404042;" width="176.7" height="1"/>
	<rect id="XMLID_409_" x="458.2" y="419" style="fill:#FDF9F8;" width="176.7" height="8.5"/>
	<rect id="XMLID_412_" x="458.2" y="427.5" style="fill:#404042;" width="176.7" height="1"/>
	<rect id="XMLID_413_" x="458.2" y="428.4" style="fill:#FDF9F8;" width="176.7" height="8.5"/>
	<rect id="XMLID_416_" x="458.2" y="436.9" style="fill:#404042;" width="176.7" height="1"/>
	<rect id="XMLID_417_" x="458.2" y="437.9" style="fill:#FDF9F8;" width="176.7" height="8.5"/>
	<rect id="XMLID_420_" x="458.3" y="446.3" style="fill:#404042;" width="176.7" height="1"/>
	<rect id="XMLID_421_" x="458.2" y="447.3" style="fill:#FDF9F8;" width="176.7" height="8.5"/>
	<rect id="XMLID_424_" x="458.2" y="455.8" style="fill:#404042;" width="176.7" height="1"/>
	<rect id="XMLID_425_" x="458.3" y="456.7" style="fill:#FDF9F8;" width="176.7" height="8.5"/>
	<rect id="XMLID_473_" x="317.6" y="316.7" style="fill:#EAEAEA;" width="139.1" height="8.5"/>
	<rect id="XMLID_474_" x="317.6" y="325.2" style="fill:#404042;" width="139.1" height="0.5"/>
	<rect id="XMLID_475_" x="317.6" y="325.7" style="fill:#EAEAEA;" width="139.1" height="8.5"/>
	<rect id="XMLID_492_" x="317.6" y="334.8" style="fill:#EAEAEA;" width="139.1" height="8.5"/>
	<rect id="XMLID_495_" x="317.6" y="334.2" style="fill:#404042;" width="139.1" height="0.5"/>
	<rect id="XMLID_497_" x="317.6" y="343.3" style="fill:#404042;" width="139.1" height="0.5"/>
	<rect id="XMLID_499_" x="317.6" y="343.9" style="fill:#EAEAEA;" width="139.1" height="8.5"/>
	<rect id="XMLID_502_" x="317.6" y="353" style="fill:#EAEAEA;" width="139.1" height="8.5"/>
	<rect id="XMLID_505_" x="317.6" y="352.5" style="fill:#404042;" width="139.1" height="0.5"/>
	<rect id="XMLID_506_" x="317.6" y="361.4" style="fill:#404042;" width="139.1" height="0.5"/>
	<rect id="XMLID_507_" x="317.6" y="362" style="fill:#EAEAEA;" width="139.1" height="8.5"/>
	<rect id="XMLID_510_" x="317.6" y="370.4" style="fill:#404042;" width="139.1" height="0.5"/>
	<rect id="XMLID_438_" x="458.2" y="362.4" style="fill:#FDF9F8;" width="176.7" height="8.5"/>
	<rect id="XMLID_513_" x="317.6" y="370.9" style="fill:#EAEAEA;" width="139.1" height="8.5"/>
	<rect id="XMLID_516_" x="317.6" y="379.4" style="fill:#404042;" width="139.1" height="0.5"/>
	<rect id="XMLID_518_" x="317.6" y="380.1" style="fill:#EAEAEA;" width="139.1" height="8.5"/>
	<rect id="XMLID_522_" x="317.6" y="388.6" style="fill:#404042;" width="139.1" height="0.5"/>
	<rect id="XMLID_523_" x="317.6" y="389.1" style="fill:#EAEAEA;" width="139.1" height="8.5"/>
	<rect id="XMLID_526_" x="317.6" y="397.6" style="fill:#404042;" width="139.1" height="0.5"/>
	<rect id="XMLID_527_" x="317.6" y="398.1" style="fill:#EAEAEA;" width="139.1" height="8.5"/>
	<rect id="XMLID_530_" x="317.6" y="406.6" style="fill:#404042;" width="139.1" height="0.5"/>
	<rect id="XMLID_531_" x="317.6" y="407.2" style="fill:#EAEAEA;" width="139.1" height="8.5"/>
	<rect id="XMLID_534_" x="317.6" y="415.6" style="fill:#404042;" width="139.1" height="0.5"/>
	<rect id="XMLID_535_" x="317.6" y="416.2" style="fill:#EAEAEA;" width="139.1" height="8.5"/>
	<rect id="XMLID_538_" x="317.6" y="424.6" style="fill:#404042;" width="139.1" height="0.5"/>
	<rect id="XMLID_539_" x="317.6" y="425.2" style="fill:#EAEAEA;" width="139.1" height="8.5"/>
	<rect id="XMLID_542_" x="317.6" y="433.7" style="fill:#404042;" width="139.1" height="0.5"/>
	<rect id="XMLID_543_" x="317.6" y="434.2" style="fill:#EAEAEA;" width="139.1" height="8.5"/>
	<rect id="XMLID_546_" x="317.6" y="442.7" style="fill:#404042;" width="139.1" height="0.5"/>
	<rect id="XMLID_547_" x="317.6" y="443.2" style="fill:#EAEAEA;" width="139.1" height="8.5"/>
	<rect id="XMLID_550_" x="317.6" y="309.8" style="fill:#EAEAEA;" width="139.1" height="6.5"/>
	<rect id="XMLID_553_" x="317.6" y="316.3" style="fill:#404042;" width="139.1" height="0.5"/>
	<g id="XMLID_436_">
		<rect id="XMLID_11_" x="477.2" y="323.9" style="fill:#ADD8E6;" width="138.6" height="84.7"/>
		<rect id="XMLID_428_" x="477.2" y="323.9" style="fill:#DBDAD9;" width="6.7" height="84.7"/>
		<rect id="XMLID_429_" x="609.9" y="323.9" style="fill:#DBDAD9;" width="6.7" height="84.7"/>
		<rect id="XMLID_432_" x="477.9" y="323.9" style="fill:#DBDAD9;" width="138.6" height="6.7"/>
		<rect id="XMLID_433_" x="477.9" y="401.9" style="fill:#DBDAD9;" width="138.6" height="6.7"/>
		<rect id="XMLID_437_" x="516.2" y="323.9" style="fill:#DBDAD9;" width="3.3" height="84.7"/>
		<rect id="XMLID_440_" x="574.8" y="323.9" style="fill:#DBDAD9;" width="3.3" height="84.7"/>
		<rect id="XMLID_444_" x="477.9" y="353.9" style="fill:#DBDAD9;" width="41.6" height="1.7"/>
		<rect id="XMLID_446_" x="477.9" y="378.5" style="fill:#DBDAD9;" width="41.6" height="1.7"/>
		<rect id="XMLID_450_" x="574.8" y="353.9" style="fill:#DBDAD9;" width="41.6" height="1.7"/>
		<rect id="XMLID_455_" x="574.8" y="378.5" style="fill:#DBDAD9;" width="41.6" height="1.7"/>
	</g>
	<rect id="XMLID_619_" x="153" y="316.7" style="fill:#EAEAEA;" width="84.4" height="8.5"/>
	<rect id="XMLID_618_" x="153" y="325.2" style="fill:#404042;" width="84.4" height="0.5"/>
	<rect id="XMLID_615_" x="153" y="325.7" style="fill:#EAEAEA;" width="84.4" height="8.5"/>
	<rect id="XMLID_612_" x="153" y="334.8" style="fill:#EAEAEA;" width="84.4" height="8.5"/>
	<rect id="XMLID_611_" x="153" y="334.2" style="fill:#404042;" width="84.4" height="0.5"/>
	<rect id="XMLID_610_" x="153" y="343.3" style="fill:#404042;" width="84.4" height="0.5"/>
	<rect id="XMLID_607_" x="153" y="343.9" style="fill:#EAEAEA;" width="84.4" height="8.5"/>
	<rect id="XMLID_604_" x="153" y="353" style="fill:#EAEAEA;" width="84.4" height="8.5"/>
	<rect id="XMLID_603_" x="153" y="352.5" style="fill:#404042;" width="84.4" height="0.5"/>
	<rect id="XMLID_602_" x="153" y="361.4" style="fill:#404042;" width="84.4" height="0.5"/>
	<rect id="XMLID_599_" x="153" y="362" style="fill:#EAEAEA;" width="84.4" height="8.5"/>
	<rect id="XMLID_598_" x="153" y="370.4" style="fill:#404042;" width="84.4" height="0.5"/>
	<rect id="XMLID_595_" x="153" y="370.9" style="fill:#EAEAEA;" width="84.4" height="8.5"/>
	<rect id="XMLID_594_" x="153" y="379.4" style="fill:#404042;" width="84.4" height="0.5"/>
	<rect id="XMLID_591_" x="153" y="380.1" style="fill:#EAEAEA;" width="84.4" height="8.5"/>
	<rect id="XMLID_590_" x="153" y="388.6" style="fill:#404042;" width="84.4" height="0.5"/>
	<rect id="XMLID_587_" x="153" y="389.1" style="fill:#EAEAEA;" width="84.4" height="8.5"/>
	<rect id="XMLID_586_" x="153" y="397.6" style="fill:#404042;" width="84.4" height="0.5"/>
	<rect id="XMLID_583_" x="153" y="398.1" style="fill:#EAEAEA;" width="84.4" height="8.5"/>
	<rect id="XMLID_582_" x="153" y="406.6" style="fill:#404042;" width="84.4" height="0.5"/>
	<rect id="XMLID_579_" x="153" y="407.2" style="fill:#EAEAEA;" width="84.4" height="8.5"/>
	<rect id="XMLID_578_" x="153" y="415.6" style="fill:#404042;" width="84.4" height="0.5"/>
	<rect id="XMLID_575_" x="153" y="416.2" style="fill:#EAEAEA;" width="84.4" height="8.5"/>
	<rect id="XMLID_574_" x="153" y="424.6" style="fill:#404042;" width="84.4" height="0.5"/>
	<rect id="XMLID_571_" x="153" y="425.2" style="fill:#EAEAEA;" width="84.4" height="8.5"/>
	<rect id="XMLID_570_" x="153" y="433.7" style="fill:#404042;" width="84.4" height="0.5"/>
	<rect id="XMLID_566_" x="153" y="434.2" style="fill:#EAEAEA;" width="84.4" height="8.5"/>
	<rect id="XMLID_551_" x="153" y="442.7" style="fill:#404042;" width="84.4" height="0.5"/>
	<rect id="XMLID_485_" x="153" y="443.2" style="fill:#EAEAEA;" width="84.4" height="8.5"/>
	<rect id="XMLID_481_" x="153" y="309.8" style="fill:#EAEAEA;" width="84.4" height="6.5"/>
	<rect id="XMLID_480_" x="153" y="316.3" style="fill:#404042;" width="84.4" height="0.5"/>
	<g id="XMLID_479_">
		<rect id="XMLID_463_" x="185.9" y="309.8" style="fill:#B7B6B6;" width="132.2" height="3.8"/>
		<g id="XMLID_478_">
			<rect id="XMLID_462_" x="315" y="309.8" style="fill:#B7B6B6;" width="4" height="141.9"/>
			<rect id="XMLID_470_" x="183.7" y="309.8" style="fill:#B7B6B6;" width="4.1" height="141.9"/>
			<g id="XMLID_477_">
				<rect id="XMLID_472_" x="183.7" y="448" style="fill:#B7B6B6;" width="135.4" height="3.7"/>
				<g id="XMLID_469_">
					<rect id="XMLID_13_" x="186.8" y="312.2" style="fill:#ADD8E6;" width="129.1" height="135.8"/>
					<rect id="XMLID_460_" x="313.2" y="312" style="fill:#DBDAD9;" width="2.7" height="135.8"/>
					<rect id="XMLID_461_" x="186.8" y="312.2" style="fill:#DBDAD9;" width="2.7" height="135.8"/>
					<rect id="XMLID_464_" x="186.8" y="312" style="fill:#DBDAD9;" width="129.1" height="3"/>
					<rect id="XMLID_465_" x="186.9" y="445" style="fill:#DBDAD9;" width="129" height="3"/>
					<rect id="XMLID_468_" x="272.9" y="312" style="fill:#DBDAD9;" width="2.7" height="135.8"/>
					<rect id="XMLID_471_" x="229.4" y="312" style="fill:#DBDAD9;" width="2.7" height="135.8"/>
					<rect id="XMLID_466_" x="272.9" y="398.4" style="fill:#DBDAD9;" width="43" height="3"/>
					<path id="XMLID_467_" style="fill:#E5E5E5;" d="M230.8,380.1L230.8,380.1c-0.7,0-1.3-0.6-1.3-1.3v-8.8c0-0.7,0.6-1.3,1.3-1.3
						l0,0c0.7,0,1.3,0.6,1.3,1.3v8.8C232.1,379.5,231.5,380.1,230.8,380.1z"/>
				</g>
			</g>
		</g>
	</g>
	<path id="XMLID_7473_" style="fill-rule:evenodd;clip-rule:evenodd;fill:#FFFFFF;" d="M462,305.2H146.6c-2.2,0-3.9,0.5-3.9,1v2.6
		c0,0.6,1.8,1,3.9,1H462c2.2,0,3.9-0.5,3.9-1v-2.6C465.9,305.6,464.1,305.2,462,305.2z"/>
	<path id="XMLID_7472_" style="fill-rule:evenodd;clip-rule:evenodd;fill:#E7E5E4;" d="M462,305.2H146.6c-2.2,0-3.9,0.5-3.9,1v0.8
		c0,0.6,1.8,1,3.9,1H462c2.2,0,3.9-0.5,3.9-1v-0.8C465.9,305.6,464.1,305.2,462,305.2z"/>
	<path id="XMLID_7470_" style="fill-rule:evenodd;clip-rule:evenodd;fill:#FFFFFF;" d="M470.2,305.2H138.4c-0.9,0-1.6,0.2-1.6,0.4
		v1.1c0,0.2,0.7,0.4,1.6,0.4h331.8c0.9,0,1.6-0.2,1.6-0.4v-1.1C471.8,305.4,471.1,305.2,470.2,305.2z"/>
	<path id="XMLID_91_" style="fill-rule:evenodd;clip-rule:evenodd;fill:#FFFFFF;" d="M641.4,285.2H450.7c-1.3,0-2.4,0.5-2.4,1.1v2.7
		c0,0.6,1.1,1.1,2.4,1.1h190.7c1.3,0,2.4-0.5,2.4-1.1v-2.7C643.8,285.6,642.7,285.2,641.4,285.2z"/>
	<path id="XMLID_89_" style="fill-rule:evenodd;clip-rule:evenodd;fill:#E7E5E4;" d="M641.4,285.2H450.7c-1.3,0-2.4,0.5-2.4,1.1v0.8
		c0,0.6,1.1,1.1,2.4,1.1h190.7c1.3,0,2.4-0.5,2.4-1.1v-0.8C643.8,285.6,642.7,285.2,641.4,285.2z"/>
	<path id="XMLID_78_" style="fill-rule:evenodd;clip-rule:evenodd;fill:#FFFFFF;" d="M646.4,285.2H445.8c-0.5,0-1,0.2-1,0.4v1.1
		c0,0.2,0.4,0.4,1,0.4h200.6c0.5,0,1-0.2,1-0.4v-1.1C647.4,285.4,646.9,285.2,646.4,285.2z"/>
	<polygon id="XMLID_620_" style="fill-rule:evenodd;clip-rule:evenodd;fill:#DDDDDD;" points="453.3,285.1 547.2,223.8 641.4,285.1 
			"/>
	<g id="XMLID_35_">
		<path id="XMLID_38_" style="fill:#898989;" d="M218.5,117.5c-1.4,0-2.8,0.1-4.2,0.3c-4.9-16.7-20.4-28.8-38.6-28.8
			c-16.6,0-30.9,10.1-37.1,24.4c-3.6-1.4-7.6-2.2-11.7-2.2c-12.8,0-23.8,7.6-28.9,18.4c-3.3-1.6-7.1-2.5-11-2.5
			c-11.1,0-20.5,6.9-24.2,16.7c-2.5-1.1-5.2-1.8-8.1-1.8c-10.8,0-19.5,8.8-19.5,19.5c0,10.8,8.8,19.5,19.5,19.5h163.8
			c17.6,0,31.8-14.2,31.8-31.8C250.3,131.7,236,117.5,218.5,117.5z"/>
		<path id="XMLID_36_" style="fill:#C6C6C6;" d="M209.5,109.4c-1.4,0-2.8,0.1-4.2,0.3c-4.9-16.7-20.4-28.8-38.6-28.8
			c-16.6,0-30.9,10.1-37.1,24.4c-3.6-1.4-7.6-2.2-11.7-2.2c-12.8,0-23.8,7.6-28.9,18.4c-3.3-1.6-7.1-2.5-11-2.5
			c-11.1,0-20.5,6.9-24.2,16.7c-2.5-1.1-5.2-1.8-8.1-1.8c-10.8,0-19.5,8.8-19.5,19.5c0,10.8,8.8,19.5,19.5,19.5h163.8
			c17.6,0,31.8-14.2,31.8-31.8C241.3,123.6,227,109.4,209.5,109.4z"/>
	</g>
	<g id="XMLID_49_">
		<path id="XMLID_53_" style="fill:#898989;" d="M681.4,72.5c-0.8-19.5-16.9-35.1-36.6-35.1c-5.7,0-11,1.3-15.8,3.6
			c-4.9-18.4-21.6-32-41.6-32c-14.3,0-26.9,7-34.7,17.7c-5.8-2.9-12.3-4.5-19.2-4.5c-23.8,0-43,19.3-43,43c0,0,0,0,0,0
			c-1.1-0.1-2.3-0.2-3.5-0.2c-16.6,0-30.1,13.5-30.1,30.1c0,16.6,13.5,30.1,30.1,30.1c4.1,0,7.9-0.8,11.5-2.3
			c4.7,10.6,15.2,18,27.5,18c7.2,0,13.8-2.5,18.9-6.7c10.5,11.4,25.6,18.5,42.3,18.5c13.5,0,25.9-4.6,35.7-12.4
			c4.5,2.7,9.8,4.2,15.4,4.2c11.2,0,20.9-6.1,26.1-15.1c4,2,8.5,3.1,13.3,3.1c16.6,0,30.1-13.5,30.1-30.1
			C707.7,87,696.3,74.4,681.4,72.5z"/>
		<path id="XMLID_50_" style="fill:#C6C6C6;" d="M671.5,63.5c-0.8-19.5-16.9-35.1-36.6-35.1c-5.7,0-11,1.3-15.8,3.6
			c-4.9-18.4-21.6-32-41.6-32c-14.3,0-26.9,7-34.7,17.7c-5.8-2.9-12.3-4.5-19.2-4.5c-23.8,0-43,19.3-43,43c0,0,0,0,0,0
			c-1.1-0.1-2.3-0.2-3.5-0.2c-16.6,0-30.1,13.5-30.1,30.1c0,16.6,13.5,30.1,30.1,30.1c4.1,0,7.9-0.8,11.5-2.3
			c4.7,10.6,15.2,18,27.5,18c7.2,0,13.8-2.5,18.9-6.7c10.5,11.4,25.6,18.5,42.3,18.5c13.5,0,25.9-4.6,35.7-12.4
			c4.5,2.7,9.8,4.2,15.4,4.2c11.2,0,20.9-6.1,26.1-15.1c4,2,8.5,3.1,13.3,3.1c16.6,0,30.1-13.5,30.1-30.1
			C697.8,78,686.3,65.4,671.5,63.5z"/>
	</g>
	<g id="XMLID_735_">
		<g id="XMLID_855_">
			<ellipse id="XMLID_733_" style="fill:#8A5D33;" cx="392.1" cy="439.3" rx="13" ry="5.1"/>
			<g id="XMLID_856_">
				<g id="XMLID_863_">
					<path id="XMLID_732_" style="fill:#E08D53;" d="M402.7,459.3c-7,0-14,0-21.1,0c-1.5-7.3-3.1-14.5-4.6-21.8
						c10.1,0,20.2,0,30.3,0C405.8,444.8,404.2,452,402.7,459.3z"/>
				</g>
				<g id="XMLID_861_">
					<path id="XMLID_731_" style="fill:#CC7C3A;" d="M392.3,437.5H377c1.5,7.3,3.1,14.5,4.6,21.8h10.7V437.5z"/>
				</g>
				<g id="XMLID_859_">
					<path id="XMLID_730_" style="fill:#CECECE;" d="M377,437.5c1.2,5.6,2.4,11.2,3.6,16.8c5.4-8.3,15.8-13,25.9-12.7
						c0.3-1.3,0.6-2.7,0.9-4C397.2,437.5,387.1,437.5,377,437.5z"/>
				</g>
				<rect id="XMLID_729_" x="376.4" y="437.1" style="fill:#E08D53;" width="31.4" height="4"/>
				<rect id="XMLID_728_" x="376.4" y="437.1" style="fill:#CC7C3A;" width="15.8" height="4"/>
			</g>
		</g>
		<g id="XMLID_736_">
			<g id="XMLID_848_">
				<path id="XMLID_727_" style="fill:#377705;" d="M381.2,418.2c-0.1,0.3-0.1,0.5-0.1,0.5S381.2,418.5,381.2,418.2z"/>
				<path id="XMLID_849_" style="fill:#377705;" d="M404.9,412.1c3-0.2,5.2,0.6,6.1,1.9c0-2.1-0.5-5.1-2.6-5.2
					c-2.1-0.1-3.5-0.3-6,1.5c-2.5,1.8-5.1,0.7-2.6-0.3c2.5-1,8.3-2.5,9.2-1.6c0.1-2.2-1.4-4.4-4-3.5c-2.6,0.9-2.1,2.6-3.6,3.4
					c-1.5,0.7-5,2.5-4.3,0.6c0.7-1.9,6.2-4.8,8.3-4.6c-1.3-1.9-5.4-4-7.8-3c-2.4,0.9-4.8,2.2-4.1,4c0.7,1.8,1.9,4.2,1.5,4.4
					c-0.4,0.3-0.4,0.3-0.4,0.3s0,0,0,0c0,0,0,0,0,0c0,0,0,0,0,0c0,0,0,0,0,0c0,0,0,0,0,0c0-0.1,0-0.1,0-0.2c0-0.2,0-0.3,0-0.3
					l-0.4-0.1c0,0,0,0.1,0,0.3c0,0.1,0,0.2,0,0.3c-0.3,0-0.7-0.3-0.9-1.3c-0.3-1.9-2.4-6.9-6.9-4.4c-4.6,2.5-3.8,6-3.8,6
					s1.8-1.8,4.2-1.7c2.4,0.1,3.9,2.4,1.3,2.1c-2.6-0.4-5.1-0.6-5.7,1.1c-0.5,1.4-0.9,5.1-1,6.4c0.2-0.6,0.8-1.6,2.7-3.1
					c3.1-2.4,6.7-2.5,5.5-1.2c-1.2,1.3-5,2.3-6.4,3.8c-1.4,1.5-0.9,5.1-1.1,6.9c1.8-2.9,2.9-3.9,4.8-5.6c1.9-1.7,4.9-2.6,2.7-0.5
					c-2.3,2.1-6.6,5.9-5.6,9.3c2.3,1.7,3.2,3.6,3.2,3.6s0.9-5,1.2-6.5c0.2-1.5,3-5.1,3.8-4.9c0.9,0.2-1.8,3.9-3,5.4
					c-1.2,1.5-1,7,0.2,8.4c0.7-5.9,2.7-10.8,4.9-10.9c2.1-0.1-0.4,3.6-1.9,5.6c-1.4,2-1.8,3.8-0.6,6.9c0.9-3.7,1-4.3,2.6-6.7
					c1.7-2.4,1.4-3.9,2.6-4.1c1.2-0.2,0,3-1.2,5.8c-1.2,2.7,0.4,5.5,1.6,5.6c1,0.1,5.6-1.1,6.3-1.3l0,0c0,0,0.1,0,0.1,0c0,0,0,0,0,0
					l2.4-3.1c0,0-1.2-2.3-2.8-2.8c-1.7-0.5,1.9-2.1,4,1.8c1.4-2.4,1-3.4,1-3.4s-1.9-2.2-4.5-2c-2.6,0.2-3.1-2.9-1-1.9
					c2.1,1,5.9,3.9,5.9,3.9l1.2-2.5c0,0-2.4-3-5.2-3.3c-2.8-0.3-4.3,0.1-4.3-0.7c0-0.8,2.5-1.5,5.2-0.1c2.7,1.4,4,3.4,4,3.4l0.9-4.4
					c0,0-4.6-2.4-6.5-2.5c-1.9-0.2-1.5-1.9,0.8-1.5c2.3,0.4,4.8,1.8,5.6,3.2c0.7-2,0.4-4.3-0.5-4.7c-0.9-0.4-3.9-1-5.7-0.7
					C402.4,413.6,401.8,412.3,404.9,412.1z M392,413.8c0.4-0.2,0.2,0.4,0.5,0.5c-0.4,0.7-1.6,0.9-1.6,0.7
					C389.9,413.9,391.5,414.2,392,413.8z M397.9,415.2c-0.1-0.2-0.2-0.4-0.3-0.6c0.7-1.2,3.2-2,3.9-0.4
					C400.5,415.1,399.2,415.4,397.9,415.2z M399.7,429.1c-1.1,1.4-0.4,2.6-0.2,4.2c0,0.7-1.3,1-1.7,0.5c-1.5-1.6-0.8-4,0.6-5.6
					c0.7-0.8,0.8-0.7,1-0.6C399.7,427.9,400.1,428.4,399.7,429.1z"/>
			</g>
			<g id="XMLID_841_">
				<path id="XMLID_722_" style="fill:#377705;" d="M373.2,427.9c-0.1,0.2,0,0.4,0,0.4S373.2,428.1,373.2,427.9z"/>
				<path id="XMLID_842_" style="fill:#377705;" d="M390.4,423.5c2.2-0.2,3.8,0.4,4.4,1.4c0-1.5-0.3-3.7-1.9-3.8
					c-1.5-0.1-2.5-0.2-4.3,1.1c-1.8,1.3-3.7,0.5-1.9-0.2c1.8-0.7,6-1.8,6.7-1.2c0.1-1.6-1-3.2-2.9-2.5c-1.9,0.7-1.5,1.9-2.6,2.5
					c-1.1,0.5-3.6,1.8-3.1,0.4c0.5-1.4,4.5-3.5,6.1-3.4c-0.9-1.4-4-2.9-5.7-2.2c-1.7,0.7-3.5,1.6-3,2.9c0.5,1.3,1.4,3,1.1,3.2
					c-0.3,0.2-0.3,0.2-0.3,0.2s0,0,0,0c0,0,0,0,0,0c0,0,0,0,0,0c0,0,0,0,0,0c0,0,0,0,0,0c0-0.1,0-0.1,0-0.1c0-0.1,0-0.2,0-0.2
					l-0.3,0c0,0,0,0.1,0,0.2c0,0.1,0,0.1,0,0.2c-0.2,0-0.5-0.2-0.6-0.9c-0.2-1.4-1.7-5.1-5.1-3.2c-3.3,1.8-2.7,4.4-2.7,4.4
					s1.3-1.3,3-1.2c1.7,0.1,2.9,1.8,0.9,1.5c-1.9-0.3-3.7-0.4-4.2,0.8c-0.3,1-0.7,3.7-0.8,4.7c0.1-0.4,0.6-1.2,2-2.3
					c2.3-1.7,4.9-1.8,4-0.9c-0.9,1-3.6,1.7-4.7,2.8c-1,1.1-0.6,3.7-0.8,5c1.3-2.1,2.1-2.8,3.5-4.1c1.4-1.2,3.6-1.9,1.9-0.4
					c-1.7,1.5-4.8,4.3-4.1,6.7c1.7,1.2,2.4,2.6,2.4,2.6s0.7-3.6,0.8-4.8c0.2-1.1,2.2-3.7,2.8-3.6s-1.3,2.9-2.2,4
					c-0.9,1.1-0.7,5.1,0.1,6.1c0.5-4.3,2-7.8,3.5-7.9c1.6-0.1-0.3,2.6-1.4,4.1c-1,1.5-1.3,2.7-0.5,5c0.7-2.7,0.7-3.1,1.9-4.9
					c1.2-1.8,1-2.9,1.9-3c0.9-0.1,0,2.2-0.9,4.2c-0.9,2,0.3,4,1.1,4.1c0.8,0.1,4.1-0.8,4.6-0.9l0,0c0,0,0,0,0.1,0c0,0,0,0,0,0
					l1.8-2.3c0,0-0.8-1.7-2.1-2c-1.2-0.4,1.4-1.6,2.9,1.3c1-1.8,0.7-2.5,0.7-2.5s-1.4-1.6-3.3-1.5c-1.9,0.1-2.3-2.1-0.7-1.4
					c1.6,0.7,4.3,2.8,4.3,2.8l0.9-1.8c0,0-1.7-2.2-3.8-2.4c-2-0.2-3.1,0.1-3.1-0.5c0-0.6,1.8-1.1,3.8-0.1c2,1,2.9,2.4,2.9,2.4
					l0.7-3.2c0,0-3.3-1.7-4.7-1.8c-1.4-0.1-1.1-1.4,0.6-1.1c1.7,0.3,3.5,1.3,4.1,2.4c0.5-1.4,0.3-3.1-0.4-3.4
					c-0.7-0.3-2.8-0.7-4.2-0.5C388.6,424.6,388.2,423.7,390.4,423.5z M381.1,424.7c0.3-0.1,0.1,0.3,0.3,0.4
					c-0.3,0.5-1.1,0.6-1.2,0.5C379.5,424.8,380.7,425,381.1,424.7z M385.3,425.7c-0.1-0.1-0.1-0.3-0.2-0.4c0.5-0.9,2.4-1.5,2.8-0.3
					C387.2,425.7,386.3,425.9,385.3,425.7z M386.6,435.8c-0.8,1-0.3,1.9-0.2,3c0,0.5-0.9,0.7-1.3,0.3c-1.1-1.2-0.6-2.9,0.4-4
					c0.5-0.6,0.6-0.5,0.7-0.4C386.6,435,387,435.3,386.6,435.8z"/>
			</g>
			<g id="XMLID_822_">
				<g id="XMLID_823_">
					<path id="XMLID_717_" style="fill:#459B06;" d="M378.3,407.2c-0.1-0.1-0.1-0.2-0.1-0.2S378.2,407.1,378.3,407.2z"/>
					<g id="XMLID_829_">
						<g id="XMLID_834_">
							<path id="XMLID_835_" style="fill:#5AB502;" d="M393.2,402.1c1.1-0.6,2.2-2.8,2.3-3.6c0.1-0.9-1.5-3-3.4-4
								c1.1,1.6,1.3,3.8,0.4,5.5c-0.8,1.4-1.9,0.3-1.2-0.8c0.7-1.1,0.1-5.3,0.1-5.3c-1.7-1-2.6-1.4-4.5-2.1c0,0,2.1,1.8,2.5,4.1
								c0.4,2.3-1.2,3.1-1.7,2.6c-0.5-0.5,0.4-1,0.8-2.6c0.4-1.7-2.4-4.5-2.4-4.5c-1.1-0.2-1.7-0.3-2.8-0.4c1.5,1.2,2.9,2.9,3.2,4.8
								c0.3,1.6-2-0.2-1.4-1.5c0.5-1.3-1.8-3.2-1.8-3.2s-1.2-0.6-3.9-0.5c5,1.9,2.7,3.5,2.2,2.5c-0.5-1-3.2-2.1-3.2-2.1
								c-1.3,0.2-2,0.3-3.2,0.6c0,0-0.7,2.2-0.4,2.7c0.2,0.5,2.5,1.7,4.7,2c2.3,0.3,4.9,1.2,4.5,1.8c-0.5,0.5-1.4-0.4-3.5-0.5
								c-2.1-0.1-2.4-0.3-5.2-0.6c2.2,1.1,3.1,1.5,4.8,1.6c1.7,0.1,4.8,1.2,3.9,1.7c-1.7,0.9-5.6-1.2-8-1.9c1.3,1.2,3.1,2.5,4.6,2.9
								c1.1,0.3,4.1,1.1,3.7,1.6c-0.4,0.5-3.1-0.4-3.9-1c-0.8-0.6-3.6-1.9-3.6-1.9s0.8,1,0.4,2.5c1.2,1.8,4.2,1.9,6.1,2.3
								c1.9,0.4-0.1,0.9-1.7,0.6c-1.5-0.3-2.4-0.5-4.2-1c0.6,0.6,1,2.4,2.1,2.8c1.1,0.4,3.7,0,4.7,0.5c0.9,0.6-1.6,1.4-3.8,0.7
								c-1.4-0.4-1.9-0.8-2.1-1.1c0.3,0.6,0.6,2.6,0.8,3.3c0.3,0.9,2.1,0.5,4.1-0.3c1.9-0.8,0.6,1.3-1.2,1.8
								c-1.8,0.5-2.8-0.6-2.8-0.6s-1.3,2.4,1.2,3.8c2.8,1.6,5.9-2.3,6.6-4.8c0.4-1.7,1.1-1.4,1.1-1.4s0,0,0.3,0.1
								c0.3,0.1-0.7,2.5-1.8,4.3c-1.1,1.8,0.3,2.8,1.7,3c2.7,0.5,6.1-3.3,7.3-5.8c-1.8,0.9-5.1,0.1-5.8-1.6c-0.5-1.3,1.9-1.2,3-1
								c1.1,0.1,0.8,2.2,2.5,2.1c2.4-0.2,2.9-3.7,2.4-5.6c-1,1.9-4.2,2.5-6.1,2.6c-1.7,0.1-0.3-2,1.6-1.4c1.9,0.6,2.9-0.2,4-1.3
								c1.5-1.7,0-4.9-1.2-6.5c0.6,1.9-0.3,3.8-1.8,4.9C392.3,404.1,392.1,402.8,393.2,402.1z M386.1,406.3
								c-0.2,0.2,0.1,0.5-0.2,0.5c-0.4-0.2-1.3,0.6-0.9-0.5C385,406.2,385.7,405.9,386.1,406.3z M382.2,395.5
								c0.1,0.1,0.2,0.3-0.6,0.3c-1.5,0.1-3.4-0.3-4.8-1.4c-0.5-0.3-0.3-0.9,0.4-0.7c1.5,0.4,2.5,1.1,3.8,1
								C381.6,394.8,382,395.2,382.2,395.5z M391.4,402.6c0.3,1.7-1.5,2.1-2.3,1.4c0-0.2,0-0.4-0.1-0.6
								C389.7,402.7,390.5,402.4,391.4,402.6z"/>
						</g>
						<g id="XMLID_830_">
							<path id="XMLID_831_" style="fill:#459B06;" d="M393.2,402.1c1.1-0.6,2.2-2.8,2.3-3.6c0.1-0.9-1.5-3-3.4-4
								c1.1,1.6,1.3,3.8,0.4,5.5c-0.8,1.4-1.9,0.3-1.2-0.8c0.7-1.1,0.1-5.3,0.1-5.3c-1.7-1-2.6-1.4-4.5-2.1c0,0,2.1,1.8,2.5,4.1
								c0.4,2.3-1.2,3.1-1.7,2.6c-0.5-0.5,0.4-1,0.8-2.6c0.4-1.7-2.4-4.5-2.4-4.5c-1.1-0.2-1.7-0.3-2.8-0.4c1.5,1.2,2.9,2.9,3.2,4.8
								c0.3,1.6-2-0.2-1.4-1.5c0.5-1.3-1.8-3.2-1.8-3.2s-1.2-0.6-3.9-0.5c5,1.9,2.7,3.5,2.2,2.5c-0.5-1-3.2-2.1-3.2-2.1
								c-1.3,0.2-2,0.3-3.2,0.6c0,0,0,0,0,0c1.9,0.3,3.7,0.7,5.1,1.4c6.1,3.9,7.4,9.2,7.5,16.1c0.1,0,0.2,0,0.2,0s0,0,0.3,0.1
								c0.3,0.1-0.7,2.5-1.8,4.3c-1.1,1.8,0.3,2.8,1.7,3c2.7,0.5,6.1-3.3,7.3-5.8c-1.8,0.9-5.1,0.1-5.8-1.6c-0.5-1.3,1.9-1.2,3-1
								c1.1,0.1,0.8,2.2,2.5,2.1c2.4-0.2,2.9-3.7,2.4-5.6c-1,1.9-4.2,2.5-6.1,2.6c-1.7,0.1-0.3-2,1.6-1.4c1.9,0.6,2.9-0.2,4-1.3
								c1.5-1.7,0-4.9-1.2-6.5c0.6,1.9-0.3,3.8-1.8,4.9C392.3,404.1,392.1,402.8,393.2,402.1z M391.4,402.6c0.3,1.7-1.5,2.1-2.3,1.4
								c0-0.2,0-0.4-0.1-0.6C389.7,402.7,390.5,402.4,391.4,402.6z"/>
						</g>
					</g>
					<path id="XMLID_710_" style="fill:#86DD2A;" d="M375.5,391.6c-0.2,0-0.3,0-0.3,0S375.3,391.6,375.5,391.6c0.2,0,0.6,0,1,0.1
						c0.8,0.1,2,0.4,3.3,1c2.7,1.2,4.9,3.2,6.3,5.7c0.3,0.6,0.6,1.3,0.8,1.9c0.1,0.3,0.2,0.7,0.3,1c0,0.2,0.1,0.3,0.1,0.5
						c0,0.2,0.1,0.3,0.1,0.5c0.1,0.3,0.1,0.6,0.2,0.9c0,0.3,0.1,0.6,0.1,0.9c0.1,0.6,0.1,1.2,0.2,1.7c0.1,1.1,0.1,1.9,0.1,2.6
						c0,0.3,0,0.5,0,0.6c0,0,0,0,0,0s-0.2-0.1-0.5,0.1c0-0.1,0-0.3,0-0.5c0-0.6,0-1.6,0-2.6c0-0.5-0.1-1.1-0.1-1.7
						c0-0.3-0.1-0.6-0.1-0.9c0-0.3-0.1-0.6-0.2-1c0-0.2-0.1-0.3-0.1-0.5c0-0.2-0.1-0.3-0.1-0.5c-0.1-0.3-0.2-0.7-0.3-1
						c-0.2-0.7-0.4-1.3-0.8-1.9c-1.3-2.6-3.5-4.6-6.1-5.7c-1.2-0.6-2.4-0.9-3.2-1C376,391.7,375.7,391.6,375.5,391.6z"/>
					<path id="XMLID_709_" style="fill:#86DD2A;" d="M379.4,412.8c0,0,0,0.1,0.1,0.2c0,0.1,0.1,0.2,0.2,0.4c0.1,0.2,0.3,0.4,0.5,0.5
						c0.2,0.2,0.6,0.3,1.1,0.3c0.5,0,1.1-0.3,1.7-0.8c0.1-0.1,0.3-0.2,0.4-0.3c0.1-0.1,0.3-0.2,0.4-0.4c0.3-0.3,0.6-0.5,0.8-0.8
						c0.5-0.6,1-1.2,1.5-1.8c0.2-0.3,0.4-0.6,0.7-0.9c0.2-0.3,0.5-0.5,0.7-0.6c0.5,0,0.9,0.4,1,1c0.2,0.5,0.2,1.2,0.1,1.9
						c0,0.2-0.1,0.4-0.1,0.6c0,0.2,0,0.4,0,0.5c0,0.2,0,0.3,0,0.5c0,0.1,0,0.3,0,0.4c0.1,0.6,0.2,1,0.4,1.3c0.2,0.3,0.6,0.5,0.9,0.5
						c0.2,0,0.4,0,0.6-0.1c0.2-0.1,0.3-0.1,0.5-0.2c0.2-0.1,0.3-0.1,0.4-0.2c0.1-0.1,0.2-0.2,0.3-0.2c0.2-0.1,0.3-0.2,0.3-0.2
						s-0.1,0.1-0.3,0.2c-0.1,0.1-0.2,0.1-0.3,0.2c-0.1,0.1-0.3,0.1-0.4,0.2c-0.2,0.1-0.3,0.1-0.5,0.2c-0.2,0.1-0.3,0-0.5,0
						c-0.3,0-0.6-0.2-0.8-0.5c-0.2-0.3-0.3-0.8-0.4-1.3c0-0.1,0-0.3,0-0.4c0-0.2,0-0.3,0-0.5c0-0.3,0.1-0.6,0.1-1
						c0.2-0.8,0.1-1.5-0.1-2.1c-0.1-0.3-0.3-0.6-0.5-0.7c-0.1-0.1-0.2-0.2-0.3-0.2c-0.1,0-0.1,0-0.2-0.1c-0.1,0-0.2,0-0.2,0
						c-0.2,0-0.4,0.1-0.5,0.3c-0.2,0.1-0.3,0.3-0.4,0.5c-0.2,0.3-0.5,0.6-0.7,1c-0.4,0.6-0.9,1.2-1.4,1.8c-0.3,0.3-0.5,0.5-0.8,0.8
						c-0.1,0.1-0.3,0.3-0.4,0.4c-0.1,0.1-0.3,0.2-0.4,0.3c-0.5,0.4-1.1,0.7-1.6,0.7c-0.5,0.1-0.8-0.1-1.1-0.2
						c-0.2-0.2-0.4-0.3-0.5-0.5C379.5,413,379.4,412.8,379.4,412.8z"/>
					<path id="XMLID_708_" style="fill:#86DD2A;" d="M378.9,408.3c0.1,0.1,0.2,0.2,0.3,0.3c0.1,0.1,0.2,0.2,0.4,0.3
						c0.1,0.1,0.3,0.2,0.4,0.3c0.1,0.1,0.3,0.2,0.5,0.2c0.2,0.1,0.3,0.1,0.5,0.2c0.1,0,0.2,0,0.3,0.1c0.1,0,0.2,0,0.3,0
						c0.2,0,0.4,0,0.6,0c0.2,0,0.4-0.1,0.6-0.1c0.2-0.1,0.4-0.1,0.6-0.2c0.3-0.1,0.4-0.2,0.6-0.3c0.3-0.1,0.4-0.2,0.6-0.3
						c0.2-0.1,0.4-0.2,0.6-0.3c0.2-0.1,0.4-0.2,0.6-0.3c0.2-0.1,0.4-0.2,0.6-0.3c0.2-0.1,0.4-0.2,0.6-0.2c0.1,0,0.2,0,0.3,0
						c0,0,0.1,0,0.1,0c0,0,0,0.1,0,0c0,0,0.1,0.1,0.1,0.1c0.3,0,0.4,0,0.6,0c0.2,0,0.4,0,0.6,0c0.5,0,0.8-0.1,1.3-0.1
						c1-0.1,1.5-0.1,2.5-0.2c0.8-0.1,1.7-0.2,2.5-0.4c0.4-0.1,0.9-0.3,1.3-0.7c0.2-0.2,0.4-0.4,0.6-0.6c0.2-0.3,0.3-0.6,0.4-1
						c-0.1,0.4-0.2,0.7-0.4,0.9c-0.2,0.2-0.4,0.4-0.6,0.6c-0.4,0.3-0.8,0.4-1.2,0.6c-0.8,0.2-1.7,0.3-2.5,0.3c-0.4,0-0.8,0-1.3,0.1
						c-0.5,0-0.8,0.1-1.3,0.1c-0.5,0-0.8,0.1-1.3,0.1c-0.4,0-0.8,0-1.2,0c0,0,0.1,0.1,0.1,0.1c0-0.1-0.1-0.2-0.1-0.2
						c-0.1,0-0.1,0-0.2-0.1c-0.1,0-0.2,0-0.3,0c-0.2,0-0.4,0.1-0.6,0.2c-0.2,0.1-0.4,0.2-0.6,0.3c-0.2,0.1-0.4,0.2-0.6,0.3
						c-0.2,0.1-0.4,0.2-0.6,0.3c-0.2,0.1-0.4,0.2-0.6,0.3c-0.2,0.1-0.4,0.2-0.6,0.3c-0.2,0.1-0.4,0.1-0.6,0.2
						c-0.2,0-0.4,0.1-0.6,0.1c-0.2,0-0.4,0-0.6,0c-0.1,0-0.2,0-0.3,0c-0.1,0-0.2,0-0.3-0.1c-0.2,0-0.3-0.1-0.5-0.1
						c-0.2-0.1-0.3-0.1-0.5-0.2c-0.2-0.1-0.3-0.2-0.4-0.2C379.4,408.7,379.1,408.5,378.9,408.3z"/>
					<path id="XMLID_707_" style="fill:#86DD2A;" d="M378.1,401.4c0.3,0.2,0.7,0.4,1.1,0.6c0.2,0.1,0.4,0.2,0.6,0.3
						c0.2,0.1,0.4,0.2,0.6,0.3c0.2,0.1,0.4,0.2,0.6,0.3c0.2,0.1,0.4,0.2,0.6,0.3c0.2,0.1,0.4,0.2,0.6,0.3c0.2,0.1,0.4,0.2,0.6,0.3
						c0.2,0.1,0.4,0.2,0.6,0.2c0.2,0.1,0.4,0.1,0.6,0.2c0.2,0.1,0.4,0.1,0.6,0.2c0.2,0.1,0.4,0.1,0.6,0.2c0.2,0.1,0.4,0.1,0.6,0.2
						c0.2,0.1,0.4,0.1,0.6,0.2c0.2,0.1,0.4,0.1,0.6,0.2c0.2,0.1,0.4,0.1,0.7,0.1c0,0,0,0,0,0c0,0,0,0,0,0c0.4,0,0.8-0.1,1.2-0.2
						c0.4-0.1,0.8-0.1,1.2-0.2c0.5-0.1,0.7-0.2,1.2-0.3c0.4-0.1,0.8-0.2,1.2-0.2c0.8-0.2,1.6-0.3,2.4-0.7c0.4-0.2,0.8-0.4,1.1-0.8
						c0.2-0.2,0.3-0.4,0.4-0.7c0.1-0.3,0.2-0.6,0.1-1c0,0.3-0.1,0.7-0.2,0.9c-0.1,0.3-0.3,0.4-0.4,0.6c-0.3,0.3-0.7,0.5-1.1,0.7
						c-0.8,0.3-1.6,0.5-2.4,0.6c-0.8,0.1-1.6,0.3-2.4,0.5c-0.4,0.1-0.8,0.1-1.2,0.2c-0.5,0.1-0.7,0.1-1.2,0.2c0,0,0,0,0,0
						c-0.2,0-0.4-0.1-0.6-0.1c-0.2-0.1-0.4-0.1-0.6-0.2c-0.2-0.1-0.4-0.1-0.6-0.2c-0.2-0.1-0.4-0.1-0.6-0.2
						c-0.2-0.1-0.4-0.1-0.6-0.2c-0.2-0.1-0.4-0.1-0.6-0.2c-0.2-0.1-0.4-0.1-0.6-0.2c-0.2-0.1-0.4-0.2-0.6-0.2
						c-0.2-0.1-0.4-0.2-0.6-0.2c-0.2-0.1-0.4-0.2-0.6-0.2c-0.2-0.1-0.4-0.2-0.6-0.2c-0.2-0.1-0.4-0.2-0.6-0.3
						c-0.2-0.1-0.4-0.2-0.6-0.3c-0.2-0.1-0.4-0.2-0.6-0.3C378.8,401.7,378.5,401.5,378.1,401.4z"/>
					<path id="XMLID_706_" style="fill:#86DD2A;" d="M376.1,397.2c0.2,0,0.5,0.1,0.7,0.1c0.2,0,0.5,0.1,0.7,0.1
						c0.2,0,0.5,0.1,0.7,0.1c0.2,0,0.5,0.1,0.7,0.1c0.5,0.1,0.9,0.2,1.4,0.3c0.5,0.1,0.9,0.2,1.4,0.3c0.6,0.1,0.8,0.2,1.4,0.4
						c0.2,0.1,0.5,0.1,0.7,0.2c0.2,0.1,0.4,0.2,0.7,0.3c0.4,0.2,0.9,0.5,1.3,0.7c0.2,0.1,0.4,0.3,0.6,0.5c0.2,0.2,0.4,0.3,0.5,0.5
						c0,0,0,0,0.1,0.1c0,0,0,0,0.1,0c0.4-0.1,0.7-0.2,1.1-0.3c0.3-0.1,0.7-0.3,1-0.5c0.2-0.1,0.3-0.2,0.4-0.3
						c0.1-0.1,0.3-0.3,0.4-0.4c0.1-0.1,0.1-0.2,0.2-0.2c0-0.1,0.1-0.2,0.1-0.3c0.1-0.2,0.1-0.4,0.2-0.6c0.2-0.8,0.3-1.6,0.1-2.6
						c0-0.2-0.1-0.5-0.2-0.7c-0.1-0.2-0.2-0.5-0.3-0.7c-0.1-0.2-0.3-0.5-0.4-0.7c-0.1-0.1-0.2-0.2-0.3-0.4c-0.1-0.1-0.2-0.2-0.3-0.3
						c0.1,0.1,0.2,0.2,0.3,0.3c0.1,0.1,0.1,0.2,0.2,0.3c0.1,0.2,0.3,0.5,0.4,0.7c0.1,0.2,0.2,0.5,0.3,0.7c0.1,0.2,0.1,0.5,0.2,0.7
						c0.2,0.9,0.1,1.7-0.2,2.5c-0.1,0.2-0.1,0.4-0.2,0.5c0,0.1-0.1,0.2-0.1,0.3c0,0.1-0.1,0.2-0.1,0.2c-0.1,0.2-0.2,0.3-0.3,0.4
						c-0.1,0.1-0.3,0.2-0.4,0.3c-0.3,0.2-0.6,0.4-0.9,0.5c-0.3,0.1-0.7,0.2-1,0.3c0,0,0.1,0,0.1,0.1c-0.2-0.2-0.4-0.4-0.6-0.6
						c-0.2-0.2-0.4-0.3-0.6-0.5c-0.4-0.3-0.9-0.5-1.3-0.7c-0.2-0.1-0.5-0.2-0.7-0.3c-0.2-0.1-0.5-0.2-0.7-0.2
						c-0.6-0.2-0.8-0.2-1.4-0.4c-0.5-0.1-0.9-0.2-1.4-0.3c-0.5-0.1-0.9-0.2-1.4-0.2c-0.2,0-0.5-0.1-0.7-0.1c-0.2,0-0.5-0.1-0.7-0.1
						c-0.2,0-0.5-0.1-0.7-0.1C376.6,397.2,376.4,397.2,376.1,397.2z"/>
				</g>
			</g>
			<g id="XMLID_803_">
				<g id="XMLID_804_">
					<path id="XMLID_705_" style="fill:#459B06;" d="M380.2,421.7c-0.1,0.2-0.2,0.2-0.2,0.2S380,421.8,380.2,421.7z"/>
					<g id="XMLID_810_">
						<g id="XMLID_815_">
							<path id="XMLID_816_" style="fill:#5AB502;" d="M366.6,408.7c-1.3-0.8-4.1-0.8-5.1-0.4c-1,0.4-2.4,3.2-2.4,5.8
								c1.1-2.1,3.3-3.5,5.6-3.5c1.9,0,1.4,1.8-0.2,1.7c-1.5-0.1-5.7,2.9-5.7,2.9c-0.1,2.3-0.1,3.5,0.3,5.9c0,0,0.7-3.2,2.9-4.9
								c2.2-1.7,3.9-0.5,3.7,0.3c-0.3,0.8-1.2,0.2-3.2,0.6c-2,0.4-3.5,5-3.5,5c0.4,1.3,0.6,1.9,1.1,3.2c0.5-2.3,1.5-4.6,3.3-6.1
								c1.5-1.2,0.9,2.2-0.8,2.3c-1.6,0.1-2.3,3.7-2.3,3.7s0,1.6,1.6,4.4c-0.8-6.3,2.2-4.7,1.4-3.7c-0.8,1-0.5,4.5-0.5,4.5
								c0.9,1.3,1.4,1.9,2.4,3c0,0,2.7-0.5,3.1-1c0.4-0.5,0.5-3.5-0.5-6.1c-0.9-2.6-1.4-5.9-0.6-5.7c0.8,0.2,0.4,1.7,1.4,4
								c1,2.2,1,2.7,2.2,5.8c0-2.9-0.1-4.2-0.9-6c-0.8-1.8-1.3-5.7-0.3-5.1c1.9,1.3,1.8,6.6,2.3,9.5c0.5-2,1-4.6,0.5-6.5
								c-0.3-1.3-1.1-4.9-0.4-4.8c0.7,0.1,1.3,3.5,1.1,4.6c-0.2,1.1,0,4.9,0,4.9s0.6-1.4,2.4-1.8c1.2-2.3-0.3-5.4-0.9-7.6
								c-0.6-2.2,1.1-0.4,1.6,1.4c0.5,1.8,0.8,2.8,1.2,5c0.3-1,2-2.4,1.8-3.8c-0.2-1.4-2.1-3.9-2-5.2c0.1-1.3,2.3,0.9,2.8,3.6
								c0.3,1.7,0.2,2.5,0,2.8c0.5-0.6,2.4-2.1,3.1-2.7c0.8-0.8-0.6-2.5-2.6-4.1c-2-1.6,1.1-1.3,2.5,0.4c1.5,1.7,0.9,3.3,0.9,3.3
								s3.3,0.1,3.4-3.3c0.2-3.8-5.7-5-8.7-4.3c-2,0.5-2-0.4-2-0.4s0,0,0-0.3c0-0.3,3-0.6,5.6-0.4c2.6,0.2,2.8-1.8,2.3-3.5
								c-1-3.1-6.8-4.6-10.1-4.6c1.9,1.4,2.9,5.3,1.4,7c-1.1,1.3-2.3-1.4-2.8-2.6c-0.5-1.2,1.9-2,0.8-3.8c-1.5-2.4-5.5-1-7.3,0.5
								c2.6,0,4.9,3,6,5c1,1.8-2,1.4-2.4-0.9c-0.4-2.3-1.8-3-3.6-3.5c-2.6-0.7-5.2,2.6-6.2,4.8c1.6-1.7,4.2-1.8,6.2-0.8
								C369.2,408.6,367.9,409.5,366.6,408.7z M374.9,413.9c0.3,0.1,0.5-0.4,0.7-0.1c0.1,0.5,1.4,1.1,0,1.2
								C375.4,415.2,374.7,414.5,374.9,413.9z M365.6,423.9c0.1-0.2,0.2-0.3,0.6,0.5c0.9,1.6,1.5,3.7,1.2,5.8c-0.1,0.7-0.8,0.8-1,0
								c-0.4-1.9-0.2-3.2-1-4.6C365.2,424.9,365.4,424.3,365.6,423.9z M368.1,410.3c1.6-1.2,3,0.5,2.8,1.6c-0.2,0.1-0.4,0.2-0.6,0.4
								C369.2,412,368.3,411.4,368.1,410.3z"/>
						</g>
						<g id="XMLID_811_">
							<path id="XMLID_812_" style="fill:#459B06;" d="M366.6,408.7c-1.3-0.8-4.1-0.8-5.1-0.4c-1,0.4-2.4,3.2-2.4,5.8
								c1.1-2.1,3.3-3.5,5.6-3.5c1.9,0,1.4,1.8-0.2,1.7c-1.5-0.1-5.7,2.9-5.7,2.9c-0.1,2.3-0.1,3.5,0.3,5.9c0,0,0.7-3.2,2.9-4.9
								c2.2-1.7,3.9-0.5,3.7,0.3c-0.3,0.8-1.2,0.2-3.2,0.6c-2,0.4-3.5,5-3.5,5c0.4,1.3,0.6,1.9,1.1,3.2c0.5-2.3,1.5-4.6,3.3-6.1
								c1.5-1.2,0.9,2.2-0.8,2.3c-1.6,0.1-2.3,3.7-2.3,3.7s0,1.6,1.6,4.4c-0.8-6.3,2.2-4.7,1.4-3.7c-0.8,1-0.5,4.5-0.5,4.5
								c0.9,1.3,1.4,1.9,2.4,3c0,0,0,0,0,0c-0.8-2.1-1.3-4.2-1.4-6.1c0.8-8.5,5.6-12.8,12.9-16.7c-0.1-0.1-0.1-0.2-0.1-0.2
								s0,0,0-0.3c0-0.3,3-0.6,5.6-0.4c2.6,0.2,2.8-1.8,2.3-3.5c-1-3.1-6.8-4.6-10.1-4.6c1.9,1.4,2.9,5.3,1.4,7
								c-1.1,1.3-2.3-1.4-2.8-2.6c-0.5-1.2,1.9-2,0.8-3.8c-1.5-2.4-5.5-1-7.3,0.5c2.6,0,4.9,3,6,5c1,1.8-2,1.4-2.4-0.9
								c-0.4-2.3-1.8-3-3.6-3.5c-2.6-0.7-5.2,2.6-6.2,4.8c1.6-1.7,4.2-1.8,6.2-0.8C369.2,408.6,367.9,409.5,366.6,408.7z
								 M368.1,410.3c1.6-1.2,3,0.5,2.8,1.6c-0.2,0.1-0.4,0.2-0.6,0.4C369.2,412,368.3,411.4,368.1,410.3z"/>
						</g>
					</g>
					<path id="XMLID_698_" style="fill:#86DD2A;" d="M377.2,410.9c-0.4-0.2-0.4-0.4-0.4-0.4s0,0,0-0.1c-0.2,0.1-0.4,0.2-0.7,0.4
						c-0.6,0.3-1.6,0.8-2.6,1.5c-0.5,0.3-1.1,0.7-1.7,1.1c-0.3,0.2-0.6,0.4-0.9,0.6c-0.3,0.2-0.6,0.5-0.9,0.7
						c-0.2,0.1-0.3,0.2-0.4,0.4c-0.2,0.1-0.3,0.3-0.5,0.4c-0.3,0.3-0.6,0.5-0.9,0.8c-0.6,0.6-1.1,1.2-1.6,1.9
						c-2,2.8-2.8,6.3-2.6,9.8c0.1,1.6,0.4,3,0.7,4c0.2,0.5,0.3,0.9,0.4,1.1c0.1,0.2,0.2,0.4,0.2,0.4s-0.1-0.1-0.2-0.4
						c-0.1-0.2-0.2-0.6-0.4-1.1c-0.3-1-0.6-2.4-0.7-4c-0.2-3.4,0.7-6.8,2.7-9.6c0.5-0.7,1-1.3,1.6-1.9c0.3-0.3,0.6-0.5,0.9-0.8
						c0.2-0.1,0.3-0.3,0.5-0.4c0.2-0.1,0.3-0.2,0.5-0.4c0.3-0.2,0.6-0.5,0.9-0.7c0.3-0.2,0.6-0.4,0.9-0.6c0.6-0.4,1.2-0.7,1.8-1.1
						c1.1-0.6,2.1-1.1,2.8-1.5C376.9,411.1,377.1,411,377.2,410.9z"/>
					<path id="XMLID_697_" style="fill:#86DD2A;" d="M385.4,417.4c0,0,0.1,0,0.1-0.1c0.1-0.1,0.2-0.2,0.3-0.4
						c0.1-0.2,0.2-0.5,0.3-0.8c0.1-0.3,0-0.8-0.3-1.3c-0.3-0.5-1-1-1.7-1.4c-0.2-0.1-0.4-0.2-0.6-0.3c-0.2-0.1-0.4-0.2-0.6-0.2
						c-0.4-0.2-0.9-0.3-1.3-0.4c-0.9-0.3-1.8-0.4-2.7-0.6c-0.5-0.1-0.9-0.1-1.3-0.2c-0.4-0.1-0.8-0.2-1-0.4c-0.3-0.5,0-1.1,0.4-1.6
						c0.5-0.5,1.2-0.9,2-1.1c0.2-0.1,0.4-0.1,0.6-0.2c0.2-0.1,0.4-0.2,0.6-0.2c0.2-0.1,0.3-0.2,0.5-0.3c0.1-0.1,0.3-0.2,0.4-0.3
						c0.5-0.4,1-0.8,1.2-1.2c0.2-0.4,0.2-0.8,0-1.2c-0.1-0.2-0.2-0.4-0.4-0.5c-0.2-0.2-0.3-0.3-0.5-0.4c-0.2-0.1-0.3-0.2-0.5-0.3
						c-0.2-0.1-0.3-0.2-0.4-0.2c-0.2-0.1-0.3-0.2-0.3-0.2s0.1,0.1,0.3,0.2c0.1,0.1,0.2,0.1,0.4,0.2c0.1,0.1,0.3,0.2,0.4,0.3
						c0.2,0.1,0.3,0.3,0.4,0.4c0.2,0.2,0.2,0.3,0.3,0.5c0.1,0.4,0.1,0.8-0.1,1.2c-0.2,0.4-0.6,0.8-1.2,1.1c-0.1,0.1-0.3,0.2-0.4,0.3
						c-0.2,0.1-0.3,0.2-0.5,0.2c-0.3,0.2-0.7,0.3-1.1,0.4c-0.9,0.2-1.7,0.7-2.2,1.2c-0.3,0.3-0.4,0.6-0.5,0.9c0,0.2-0.1,0.3-0.1,0.5
						c0,0.1,0,0.2,0,0.2c0,0.1,0.1,0.2,0.1,0.3c0.1,0.2,0.3,0.3,0.6,0.4c0.2,0.1,0.5,0.1,0.7,0.2c0.5,0.1,0.9,0.1,1.4,0.2
						c0.9,0.1,1.8,0.3,2.7,0.5c0.4,0.1,0.9,0.3,1.3,0.4c0.2,0.1,0.4,0.2,0.6,0.2c0.2,0.1,0.4,0.2,0.6,0.3c0.7,0.4,1.3,0.8,1.7,1.3
						c0.3,0.5,0.4,0.9,0.3,1.2c0,0.3-0.1,0.6-0.2,0.8C385.6,417.2,385.4,417.4,385.4,417.4z"/>
					<path id="XMLID_696_" style="fill:#86DD2A;" d="M380.9,420.4c0.1-0.2,0.1-0.4,0.2-0.5c0-0.2,0.1-0.4,0.1-0.6
						c0-0.2,0.1-0.4,0.1-0.6c0-0.2,0-0.4,0-0.6c0-0.2,0-0.4-0.1-0.6c0-0.1,0-0.2-0.1-0.3c0-0.1-0.1-0.2-0.1-0.3
						c-0.1-0.2-0.2-0.4-0.3-0.6c-0.1-0.2-0.3-0.4-0.4-0.6c-0.2-0.2-0.4-0.4-0.5-0.6c-0.3-0.2-0.4-0.3-0.7-0.5
						c-0.3-0.2-0.4-0.3-0.7-0.5c-0.3-0.2-0.4-0.3-0.7-0.5c-0.2-0.2-0.4-0.3-0.7-0.5c-0.2-0.2-0.4-0.3-0.6-0.5
						c-0.2-0.2-0.4-0.3-0.5-0.5c-0.1-0.1-0.1-0.2-0.2-0.3c0,0,0-0.1,0-0.1c0,0,0-0.1,0-0.1c0-0.1,0-0.1,0.1-0.1
						c-0.1-0.3-0.2-0.4-0.4-0.7c-0.1-0.2-0.2-0.4-0.4-0.6c-0.3-0.5-0.5-0.8-0.8-1.3c-0.6-1-1-1.5-1.6-2.5c-0.5-0.8-1.1-1.7-1.9-2.4
						c-0.4-0.4-0.8-0.7-1.4-1c-0.3-0.1-0.6-0.2-1-0.3c-0.4,0-0.8,0-1.2,0.2c0.4-0.1,0.8-0.2,1.2-0.1c0.4,0,0.7,0.2,0.9,0.3
						c0.5,0.3,0.9,0.6,1.3,1c0.7,0.8,1.2,1.6,1.7,2.5c0.3,0.4,0.5,0.9,0.8,1.3c0.3,0.5,0.5,0.8,0.8,1.3c0.3,0.5,0.5,0.8,0.8,1.3
						c0.3,0.4,0.5,0.9,0.7,1.3c0-0.1,0-0.1,0.1-0.1c-0.1,0.1-0.1,0.2-0.1,0.3c0,0.1,0,0.1,0,0.2c0,0.1,0.1,0.2,0.2,0.3
						c0.2,0.2,0.4,0.4,0.6,0.5c0.2,0.2,0.4,0.3,0.6,0.5c0.2,0.2,0.4,0.3,0.7,0.5c0.3,0.2,0.4,0.3,0.7,0.5c0.3,0.2,0.4,0.3,0.7,0.5
						c0.3,0.2,0.4,0.3,0.6,0.5c0.2,0.2,0.4,0.4,0.5,0.5c0.1,0.2,0.3,0.4,0.4,0.6c0.1,0.2,0.3,0.4,0.3,0.6c0.1,0.1,0.1,0.2,0.1,0.3
						c0,0.1,0.1,0.2,0.1,0.3c0.1,0.2,0.1,0.4,0.1,0.6c0,0.2,0,0.4,0,0.6c0,0.2,0,0.4,0,0.6C381.1,419.6,381,420,380.9,420.4z"/>
					<path id="XMLID_694_" style="fill:#86DD2A;" d="M374,425c0-0.5,0-1,0-1.4c0-0.2,0-0.5,0-0.7c0-0.2,0-0.5,0-0.7
						c0-0.2,0-0.5,0-0.8c0-0.3,0-0.5,0-0.8c0-0.3,0-0.5,0-0.8c0-0.3,0-0.5-0.1-0.8c0-0.3,0-0.5-0.1-0.8c0-0.3-0.1-0.5-0.1-0.8
						c0-0.3-0.1-0.5-0.1-0.8c0-0.3-0.1-0.5-0.1-0.8c0-0.3-0.1-0.5-0.1-0.8c0-0.3-0.1-0.5-0.1-0.8c0-0.3-0.1-0.5-0.1-0.8
						c-0.1-0.3-0.1-0.5-0.2-0.8c0,0,0,0,0,0c0,0,0,0,0,0c-0.3-0.4-0.6-0.8-0.9-1.2c-0.3-0.4-0.6-0.8-0.9-1.2
						c-0.4-0.5-0.6-0.7-0.9-1.2c-0.3-0.4-0.6-0.8-0.9-1.2c-0.6-0.8-1.3-1.5-2.1-2.2c-0.4-0.3-0.9-0.6-1.4-0.8
						c-0.3-0.1-0.6-0.1-0.9-0.1c-0.3,0-0.7,0.1-1.1,0.4c0.4-0.2,0.7-0.3,1.1-0.3c0.3,0,0.6,0,0.9,0.1c0.5,0.2,0.9,0.5,1.3,0.8
						c0.8,0.7,1.4,1.4,1.9,2.2c0.6,0.8,1.2,1.5,1.8,2.3c0.3,0.4,0.6,0.8,0.9,1.2c0.3,0.5,0.5,0.7,0.9,1.2c0,0,0,0,0,0
						c0.1,0.2,0.1,0.5,0.2,0.7c0.1,0.3,0.1,0.5,0.2,0.8c0.1,0.3,0.1,0.5,0.1,0.8c0,0.3,0.1,0.5,0.1,0.8c0,0.3,0.1,0.5,0.1,0.8
						c0,0.3,0.1,0.5,0.1,0.8c0,0.3,0.1,0.5,0.1,0.8c0,0.3,0.1,0.5,0.1,0.8c0,0.3,0,0.5,0.1,0.8c0,0.3,0,0.5,0.1,0.8
						c0,0.3,0,0.5,0.1,0.8c0,0.3,0,0.5,0.1,0.7c0,0.2,0,0.5,0,0.7c0,0.2,0,0.5,0,0.7C374,424.1,374.1,424.5,374,425z"/>
					<path id="XMLID_693_" style="fill:#86DD2A;" d="M370.7,429.4c-0.1-0.3-0.2-0.5-0.3-0.8c-0.1-0.3-0.2-0.5-0.3-0.8
						c-0.1-0.3-0.2-0.5-0.3-0.8c-0.1-0.3-0.2-0.5-0.2-0.8c-0.2-0.5-0.3-1.1-0.5-1.6c-0.2-0.5-0.3-1.1-0.4-1.6
						c-0.2-0.7-0.2-1-0.3-1.7c-0.1-0.3-0.1-0.6-0.1-0.8c0-0.3-0.1-0.6-0.1-0.9c0-0.6,0-1.2,0.1-1.7c0-0.3,0.1-0.6,0.2-0.9
						c0.1-0.3,0.2-0.6,0.3-0.8c0,0,0-0.1,0-0.1c0,0,0,0,0-0.1c-0.3-0.4-0.6-0.7-0.9-1c-0.3-0.3-0.7-0.5-1.1-0.7
						c-0.2-0.1-0.4-0.2-0.6-0.3c-0.2-0.1-0.4-0.1-0.7-0.1c-0.1,0-0.2,0-0.3,0c-0.1,0-0.2,0-0.4,0c-0.2,0-0.5,0-0.7,0.1
						c-0.9,0.2-1.9,0.6-2.8,1.3c-0.2,0.2-0.4,0.4-0.6,0.6c-0.2,0.2-0.4,0.5-0.6,0.7c-0.2,0.3-0.4,0.5-0.5,0.8
						c-0.1,0.2-0.1,0.3-0.2,0.5c-0.1,0.2-0.1,0.3-0.2,0.5c0.1-0.2,0.1-0.3,0.2-0.5c0.1-0.2,0.1-0.3,0.2-0.4c0.2-0.3,0.3-0.5,0.5-0.8
						c0.2-0.2,0.4-0.5,0.6-0.7c0.2-0.2,0.4-0.4,0.6-0.5c0.9-0.7,1.8-1,2.7-1.2c0.2,0,0.5-0.1,0.7-0.1c0.1,0,0.2,0,0.3,0
						c0.1,0,0.2,0,0.3,0c0.2,0,0.4,0.1,0.6,0.1c0.2,0.1,0.4,0.2,0.6,0.2c0.4,0.2,0.7,0.4,1,0.7c0.3,0.3,0.6,0.6,0.9,0.9
						c0-0.1,0-0.1,0-0.2c-0.1,0.3-0.2,0.6-0.3,0.9c-0.1,0.3-0.1,0.6-0.2,0.9c-0.1,0.6-0.1,1.2-0.1,1.8c0,0.3,0,0.6,0.1,0.9
						c0,0.3,0.1,0.6,0.1,0.9c0.1,0.7,0.2,1,0.4,1.7c0.1,0.5,0.3,1.1,0.5,1.6c0.2,0.5,0.3,1.1,0.5,1.6c0.1,0.3,0.2,0.5,0.3,0.8
						c0.1,0.3,0.2,0.5,0.3,0.8c0.1,0.3,0.2,0.5,0.3,0.8C370.5,428.9,370.6,429.1,370.7,429.4z"/>
				</g>
			</g>
			<g id="XMLID_801_">
				<path id="XMLID_692_" style="fill:#86DD2A;" d="M388.9,426.4l-0.5-0.1c2.6-12.2,8.2-18.6,8.3-18.7l0.5,0.3
					C397.1,408,391.5,414.3,388.9,426.4z"/>
			</g>
			<g id="XMLID_799_">
				<path id="XMLID_691_" style="fill:#86DD2A;" d="M392.5,428.2l-0.5,0.2c-5.3-11.4-4.6-19.8-4.6-19.9l0.5,0
					C387.9,408.6,387.3,416.9,392.5,428.2z"/>
			</g>
			<g id="XMLID_797_">
				<path id="XMLID_690_" style="fill:#86DD2A;" d="M390.8,426.6l-0.5-0.1c0.8-5.3,2.5-8.3,5.1-9.2c4-1.3,8.4,3.2,8.6,3.4l-0.4,0.6
					c0,0-4.4-4.6-8.1-3.5C393.2,418.6,391.6,421.6,390.8,426.6z"/>
			</g>
			<g id="XMLID_795_">
				<path id="XMLID_689_" style="fill:#86DD2A;" d="M388.9,426.4l-0.5,0c0.5-6.9-0.5-11.9-3.8-14c-4.5-2.9-7.8-1.3-7.8-1.2l0-0.7
					c0.3-0.2,4.6-1.3,8.1,1.5C388,414.5,389.4,419.3,388.9,426.4z"/>
			</g>
			<g id="XMLID_793_">
				<path id="XMLID_688_" style="fill:#86DD2A;" d="M383.5,428l0.2,0.6c1.3-2.3,3.2-3.7,5.6-4.1c2.7-0.5,5.1,0.5,5.1,0.5l0.2-0.1
					c-0.1,0-2.6-1.5-5.4-1C386.7,424.2,384.9,425.6,383.5,428z"/>
			</g>
			<g id="XMLID_774_">
				<g id="XMLID_775_">
					<path id="XMLID_687_" style="fill:#459B06;" d="M404.7,413.2c0.2,0,0.2-0.1,0.2-0.1S404.8,413.2,404.7,413.2z"/>
					<g id="XMLID_781_">
						<g id="XMLID_786_">
							<path id="XMLID_787_" style="fill:#5AB502;" d="M395.5,399.7c-0.4-1.8,0.1-3.9,1.8-4.9c-2,0.4-5.2,1.9-5.1,4.2
								c0.1,1.6,0.3,2.8,2.2,3.6c1.8,0.8,1.6,3.3,0.3,2.1c-1.4-1.3-3.5-3.8-3-5.9c-1.6,1.1-3.5,4.2-1.8,5.9c1.2,1.2,2.4-0.6,3.3,0
								c0.9,0.6,2.9,2.1,1.6,2.8c-1.7,0.9-4.7-0.6-5.4-2.5c-0.7,2.6-0.5,7.7,1.9,9.1c1.3,0.7,3,0.9,3.3-1.2c0.3-2.1,1.1-4.6,1.4-4.5
								c0.3,0.1,0.3,0.1,0.3,0.1s0.7,0.2-0.1,1.7c-1.1,2.3-1.2,7.4,1.9,7.9c2.8,0.5,3.4-2.2,3.4-2.2s-1.4,0.1-2.5-1.4
								c-1.1-1.5-0.8-4.1,0.2-2.1c0.9,1.9,2.1,3.4,2.9,2.9c0.6-0.4,2.2-1.7,2.8-2c-0.3,0.1-0.9,0-2.3-0.5c-2.2-0.9-3.5-3.2-2.5-3
								c1.1,0.2,2.8,2.2,3.9,2.6c1.1,0.4,2.6-0.7,3.4-0.8c-1.7-0.8-2.5-1.2-3.9-2c-1.4-0.8-2.6-2.5-0.9-1.6c1.7,0.9,4,2.7,6.1,2.2
								c0.7-1.4,1.9-1.6,1.9-1.6s-3-0.9-4-0.9c-1,0-3.6-1.2-3.6-1.8c0-0.6,2.9,0.7,3.9,1.2c1.4,0.7,3.7,0.8,5.4,0.8
								c-2.3-1-6.6-1.9-7.3-3.7c-0.4-0.9,2.7,0.2,4.1,1.2c1.4,1,2.4,1.3,4.7,1.9c-2.3-1.6-2.7-1.6-4.4-2.9c-1.6-1.2-3-1.2-3-1.9
								c0-0.7,2.6,0.3,4.5,1.5c1.9,1.2,4.4,1.8,4.9,1.5c0.5-0.3,1.4-2.3,1.4-2.3c-0.8-1-1.2-1.5-2-2.5c0,0-2.8-0.9-3.8-0.4
								c-1,0.5-1.7-2.3,3.3-0.4c-2-1.8-3.3-2.1-3.3-2.1s-3-0.1-3.5,1.2c-0.4,1.3-3.3,1.2-2.1,0.2c1.5-1.2,3.7-1.6,5.6-1.6
								c-0.9-0.6-1.4-0.9-2.4-1.5c0,0-4,0.3-4.8,1.9c-0.7,1.6-0.4,2.5-1.1,2.5c-0.7,0.1-1.4-1.6,0.4-3.1c1.8-1.5,4.5-1.5,4.5-1.5
								c-1.9-0.7-2.9-1-4.8-1.3c0,0-3.2,2.8-3.4,4.1c-0.2,1.3-1.8,1.4-1.4-0.2c0.4-1.9,2-3.4,3.9-3.9c-2.1-0.5-4.7,0.1-5.2,0.9
								c-0.5,0.7-1,3-0.6,4.2C397,400.9,396,401.8,395.5,399.7z M400.1,408.3c-0.4,1.1-0.6-0.1-1-0.3c-0.2-0.2,0.2-0.3,0.2-0.6
								C399.8,407.5,400.2,408.1,400.1,408.3z M410.7,401.9c1,0.9,2.2,1,3.6,1.7c0.6,0.3,0.4,0.9-0.2,0.8c-1.8-0.2-3.4-1.1-4.6-2.1
								c-0.6-0.5-0.5-0.6-0.3-0.6C409.6,401.6,410.1,401.5,410.7,401.9z M398.8,403.4c-0.1,0.1-0.3,0.3-0.4,0.4
								c-1,0-2.1-1.5-0.8-2.6C398.5,401.6,398.8,402.4,398.8,403.4z"/>
						</g>
						<g id="XMLID_782_">
							<path id="XMLID_783_" style="fill:#459B06;" d="M395.5,399.7c-0.4-1.8,0.1-3.9,1.8-4.9c-2,0.4-5.2,1.9-5.1,4.2
								c0.1,1.6,0.3,2.8,2.2,3.6c1.8,0.8,1.6,3.3,0.3,2.1c-1.4-1.3-3.5-3.8-3-5.9c-1.6,1.1-3.5,4.2-1.8,5.9c1.2,1.2,2.4-0.6,3.3,0
								c0.9,0.6,2.9,2.1,1.6,2.8c-1.7,0.9-4.7-0.6-5.4-2.5c-0.7,2.6-0.5,7.7,1.9,9.1c1.3,0.7,3,0.9,3.3-1.2c0.3-2.1,1.1-4.6,1.4-4.5
								c0.3,0.1,0.3,0.1,0.3,0.1s0.1,0,0.1,0.1c4.5-5.3,8.9-8.4,16.1-7.5c1.6,0.4,3.2,1.2,4.8,2.3c0,0,0,0,0,0c-0.8-1-1.2-1.5-2-2.5
								c0,0-2.8-0.9-3.8-0.4c-1,0.5-1.7-2.3,3.3-0.4c-2-1.8-3.3-2.1-3.3-2.1s-3-0.1-3.5,1.2c-0.4,1.3-3.3,1.2-2.1,0.2
								c1.5-1.2,3.7-1.6,5.6-1.6c-0.9-0.6-1.4-0.9-2.4-1.5c0,0-4,0.3-4.8,1.9c-0.7,1.6-0.4,2.5-1.1,2.5c-0.7,0.1-1.4-1.6,0.4-3.1
								c1.8-1.5,4.5-1.5,4.5-1.5c-1.9-0.7-2.9-1-4.8-1.3c0,0-3.2,2.8-3.4,4.1c-0.2,1.3-1.8,1.4-1.4-0.2c0.4-1.9,2-3.4,3.9-3.9
								c-2.1-0.5-4.7,0.1-5.2,0.9c-0.5,0.7-1,3-0.6,4.2C397,400.9,396,401.8,395.5,399.7z M398.8,403.4c-0.1,0.1-0.3,0.3-0.4,0.4
								c-1,0-2.1-1.5-0.8-2.6C398.5,401.6,398.8,402.4,398.8,403.4z"/>
						</g>
					</g>
					<path id="XMLID_680_" style="fill:#86DD2A;" d="M416.9,403.1c0.2,0.1,0.3,0.2,0.3,0.2S417,403.2,416.9,403.1
						c-0.2-0.1-0.5-0.3-0.8-0.5c-0.7-0.4-1.8-1-3.1-1.4c-2.8-0.8-5.8-0.8-8.5,0.3c-0.7,0.3-1.3,0.6-1.9,1c-0.3,0.2-0.6,0.4-0.8,0.6
						c-0.1,0.1-0.3,0.2-0.4,0.3c-0.1,0.1-0.3,0.2-0.4,0.3c-0.3,0.2-0.5,0.4-0.7,0.6c-0.2,0.2-0.5,0.4-0.7,0.6
						c-0.4,0.4-0.8,0.8-1.2,1.2c-0.7,0.8-1.3,1.4-1.7,1.9c-0.2,0.2-0.3,0.4-0.4,0.5c0,0,0,0,0,0s0.2,0.1,0.3,0.4
						c0.1-0.1,0.2-0.3,0.3-0.4c0.4-0.5,1-1.2,1.7-2c0.4-0.4,0.8-0.8,1.2-1.3c0.2-0.2,0.4-0.4,0.7-0.6c0.2-0.2,0.5-0.4,0.7-0.6
						c0.1-0.1,0.3-0.2,0.4-0.3c0.1-0.1,0.3-0.2,0.4-0.3c0.3-0.2,0.5-0.4,0.8-0.6c0.6-0.4,1.2-0.7,1.8-1c2.6-1.1,5.6-1.2,8.4-0.4
						c1.3,0.4,2.4,0.9,3.1,1.3C416.4,402.8,416.7,403,416.9,403.1z"/>
					<path id="XMLID_679_" style="fill:#86DD2A;" d="M400.2,416.7c0,0,0,0-0.1,0.1c-0.1,0.1-0.2,0.1-0.4,0.2
						c-0.2,0.1-0.4,0.1-0.7,0.1c-0.3,0-0.6-0.1-1-0.5c-0.4-0.4-0.7-1-0.8-1.7c0-0.2-0.1-0.4-0.1-0.5c0-0.2-0.1-0.4-0.1-0.6
						c0-0.4-0.1-0.8-0.1-1.2c0-0.8,0-1.6,0-2.3c0-0.4,0.1-0.8,0.1-1.1c0-0.4,0-0.7-0.2-0.9c-0.4-0.3-0.9-0.2-1.4,0.1
						c-0.5,0.3-1,0.8-1.3,1.4c-0.1,0.2-0.2,0.3-0.3,0.5c-0.1,0.2-0.2,0.3-0.3,0.4c-0.1,0.1-0.2,0.2-0.3,0.4
						c-0.1,0.1-0.2,0.2-0.3,0.3c-0.4,0.4-0.8,0.6-1.2,0.7c-0.4,0.1-0.7,0-1-0.2c-0.1-0.1-0.3-0.2-0.4-0.4c-0.1-0.2-0.2-0.3-0.3-0.5
						c-0.1-0.2-0.1-0.3-0.2-0.5c0-0.2-0.1-0.3-0.1-0.4c-0.1-0.2-0.1-0.3-0.1-0.3s0,0.1,0.1,0.3c0,0.1,0.1,0.2,0.1,0.4
						c0,0.1,0.1,0.3,0.2,0.4c0.1,0.2,0.2,0.3,0.3,0.4c0.1,0.2,0.2,0.2,0.4,0.4c0.3,0.2,0.6,0.2,1,0.1c0.4-0.1,0.7-0.4,1.1-0.8
						c0.1-0.1,0.2-0.2,0.3-0.3c0.1-0.1,0.2-0.2,0.3-0.4c0.2-0.3,0.4-0.5,0.5-0.8c0.4-0.7,0.9-1.2,1.4-1.6c0.3-0.2,0.6-0.3,0.8-0.3
						c0.1,0,0.3,0,0.4,0c0.1,0,0.1,0,0.2,0.1c0.1,0,0.1,0.1,0.2,0.1c0.1,0.1,0.2,0.3,0.2,0.5c0,0.2,0,0.4,0,0.6
						c0,0.4-0.1,0.8-0.1,1.2c-0.1,0.8-0.1,1.6-0.1,2.3c0,0.4,0,0.8,0.1,1.1c0,0.2,0,0.4,0.1,0.6c0,0.2,0.1,0.3,0.1,0.5
						c0.1,0.7,0.4,1.3,0.7,1.6c0.3,0.3,0.7,0.5,0.9,0.5c0.3,0,0.5,0,0.7,0C400,416.9,400.2,416.7,400.2,416.7z"/>
					<path id="XMLID_678_" style="fill:#86DD2A;" d="M403.5,413.6c-0.2,0-0.3,0-0.5,0c-0.2,0-0.3,0-0.5,0c-0.2,0-0.3,0-0.5-0.1
						c-0.2,0-0.3-0.1-0.5-0.1c-0.2-0.1-0.3-0.1-0.5-0.2c-0.1,0-0.2-0.1-0.3-0.1c-0.1-0.1-0.1-0.1-0.2-0.2c-0.2-0.1-0.3-0.2-0.5-0.4
						c-0.2-0.1-0.3-0.3-0.4-0.5c-0.1-0.2-0.3-0.4-0.4-0.6c-0.1-0.3-0.2-0.4-0.3-0.6c-0.1-0.3-0.2-0.4-0.3-0.7
						c-0.1-0.3-0.2-0.4-0.3-0.6c-0.1-0.2-0.2-0.4-0.3-0.6c-0.1-0.2-0.2-0.4-0.3-0.6c-0.1-0.2-0.2-0.4-0.3-0.5
						c-0.1-0.1-0.1-0.1-0.2-0.2c0,0-0.1,0-0.1,0c0,0-0.1,0-0.1,0c-0.1,0-0.1,0-0.1,0c-0.2-0.2-0.3-0.2-0.5-0.4
						c-0.2-0.1-0.3-0.3-0.5-0.4c-0.4-0.4-0.5-0.5-0.9-0.9c-0.7-0.7-1.1-1.1-1.8-1.8c-0.6-0.6-1.2-1.2-1.7-2
						c-0.2-0.4-0.4-0.8-0.5-1.3c0-0.3-0.1-0.5,0-0.9c0-0.3,0.2-0.7,0.4-1c-0.2,0.3-0.3,0.7-0.3,0.9c0,0.3,0,0.6,0.1,0.8
						c0.1,0.5,0.3,0.9,0.6,1.2c0.5,0.7,1.1,1.3,1.7,1.9c0.3,0.3,0.6,0.6,0.9,0.9c0.4,0.4,0.5,0.5,0.9,0.9c0.4,0.4,0.5,0.5,0.9,0.9
						c0.3,0.3,0.6,0.6,0.9,0.8c-0.1,0-0.1,0-0.1,0c0.1-0.1,0.2-0.1,0.2-0.1c0.1,0,0.1,0,0.2,0.1c0.1,0.1,0.2,0.1,0.2,0.2
						c0.1,0.2,0.2,0.4,0.3,0.6c0.1,0.2,0.2,0.4,0.3,0.6c0.1,0.2,0.2,0.4,0.3,0.6c0.1,0.3,0.1,0.4,0.3,0.7c0.1,0.3,0.1,0.4,0.3,0.7
						c0.1,0.2,0.2,0.4,0.3,0.6c0.1,0.2,0.2,0.4,0.3,0.6c0.1,0.2,0.3,0.3,0.4,0.5c0.1,0.1,0.3,0.3,0.4,0.4c0.1,0.1,0.1,0.1,0.2,0.2
						c0.1,0.1,0.1,0.1,0.2,0.1c0.2,0.1,0.3,0.1,0.5,0.2c0.2,0,0.3,0.1,0.5,0.1c0.2,0,0.3,0.1,0.5,0.1
						C402.8,413.6,403.1,413.7,403.5,413.6z"/>
					<path id="XMLID_677_" style="fill:#86DD2A;" d="M408.6,408.9c-0.4-0.1-0.8-0.1-1.2-0.2c-0.2,0-0.4-0.1-0.6-0.1
						c-0.2,0-0.4-0.1-0.6-0.1c-0.2-0.1-0.4-0.1-0.6-0.2c-0.2-0.1-0.4-0.1-0.6-0.2c-0.2-0.1-0.4-0.1-0.6-0.2
						c-0.2-0.1-0.4-0.1-0.6-0.2c-0.2-0.1-0.4-0.1-0.6-0.2c-0.2-0.1-0.4-0.1-0.6-0.2c-0.2-0.1-0.4-0.2-0.6-0.2
						c-0.2-0.1-0.4-0.2-0.6-0.2c-0.2-0.1-0.4-0.2-0.6-0.2c-0.2-0.1-0.4-0.2-0.6-0.3c-0.2-0.1-0.4-0.2-0.6-0.3
						c-0.2-0.1-0.4-0.2-0.6-0.3c0,0,0,0,0,0c0,0,0,0,0,0c-0.3-0.3-0.6-0.6-0.8-0.9c-0.3-0.3-0.5-0.6-0.8-1c-0.3-0.4-0.5-0.6-0.8-1
						c-0.3-0.3-0.5-0.6-0.8-1c-0.5-0.7-1-1.3-1.4-2.1c-0.2-0.4-0.3-0.8-0.4-1.3c0-0.2,0-0.5,0.1-0.8c0.1-0.3,0.3-0.6,0.5-0.8
						c-0.2,0.3-0.4,0.5-0.5,0.8c-0.1,0.3-0.1,0.5-0.1,0.7c0.1,0.5,0.2,0.9,0.4,1.2c0.4,0.7,0.9,1.4,1.5,2c0.5,0.6,1,1.3,1.6,1.9
						c0.3,0.3,0.5,0.6,0.8,1c0.3,0.4,0.5,0.6,0.8,0.9c0,0,0,0,0,0c0.2,0.1,0.4,0.2,0.6,0.3c0.2,0.1,0.4,0.2,0.6,0.3
						c0.2,0.1,0.4,0.2,0.6,0.3c0.2,0.1,0.4,0.2,0.6,0.3c0.2,0.1,0.4,0.2,0.6,0.3c0.2,0.1,0.4,0.2,0.6,0.3c0.2,0.1,0.4,0.1,0.6,0.2
						c0.2,0.1,0.4,0.1,0.6,0.2c0.2,0.1,0.4,0.1,0.6,0.2c0.2,0.1,0.4,0.1,0.6,0.2c0.2,0.1,0.4,0.1,0.6,0.2c0.2,0.1,0.4,0.1,0.6,0.2
						c0.2,0.1,0.4,0.1,0.6,0.2c0.2,0.1,0.4,0.1,0.6,0.2C407.8,408.7,408.2,408.8,408.6,408.9z"/>
					<path id="XMLID_676_" style="fill:#86DD2A;" d="M412.8,406.9c-0.2-0.1-0.4-0.2-0.6-0.4c-0.2-0.1-0.4-0.2-0.6-0.4
						c-0.2-0.1-0.4-0.2-0.6-0.4c-0.2-0.1-0.4-0.2-0.6-0.4c-0.4-0.2-0.8-0.5-1.2-0.7c-0.4-0.2-0.8-0.4-1.3-0.6
						c-0.5-0.3-0.8-0.4-1.3-0.6c-0.2-0.1-0.4-0.2-0.7-0.3c-0.2-0.1-0.5-0.1-0.7-0.2c-0.5-0.1-1-0.2-1.4-0.3c-0.2,0-0.5,0-0.7,0
						c-0.2,0-0.5,0-0.7,0.1c0,0-0.1,0-0.1,0c0,0,0,0,0,0c-0.3-0.3-0.5-0.6-0.6-0.9c-0.2-0.3-0.3-0.7-0.4-1c0-0.2-0.1-0.4-0.1-0.5
						c0-0.2,0-0.4,0-0.6c0-0.1,0-0.2,0-0.3c0-0.1,0-0.2,0.1-0.3c0.1-0.2,0.1-0.4,0.2-0.6c0.3-0.7,0.8-1.5,1.6-2
						c0.2-0.1,0.4-0.3,0.6-0.4c0.2-0.1,0.4-0.2,0.7-0.3c0.2-0.1,0.5-0.2,0.8-0.3c0.2,0,0.3-0.1,0.4-0.1c0.2,0,0.3,0,0.4-0.1
						c-0.2,0-0.3,0-0.4,0.1c-0.2,0-0.2,0.1-0.4,0.1c-0.3,0.1-0.5,0.2-0.7,0.3c-0.2,0.1-0.4,0.2-0.6,0.4c-0.2,0.1-0.4,0.3-0.6,0.4
						c-0.7,0.6-1.2,1.3-1.5,2c-0.1,0.2-0.1,0.4-0.2,0.5c0,0.1,0,0.2-0.1,0.3c0,0.1,0,0.2,0,0.3c0,0.2,0,0.4,0,0.5
						c0,0.2,0.1,0.3,0.1,0.5c0.1,0.3,0.2,0.7,0.4,1c0.2,0.3,0.4,0.6,0.6,0.9c-0.1,0-0.1,0-0.1,0c0.3,0,0.5-0.1,0.8-0.1
						c0.3,0,0.5,0,0.8,0c0.5,0.1,1,0.2,1.5,0.3c0.2,0.1,0.5,0.1,0.7,0.2c0.2,0.1,0.5,0.2,0.7,0.3c0.5,0.2,0.8,0.4,1.3,0.6
						c0.4,0.2,0.8,0.4,1.2,0.7c0.4,0.2,0.8,0.5,1.2,0.7c0.2,0.1,0.4,0.2,0.6,0.4c0.2,0.1,0.4,0.3,0.6,0.4c0.2,0.1,0.4,0.3,0.6,0.4
						C412.4,406.7,412.6,406.8,412.8,406.9z"/>
				</g>
			</g>
			<g id="XMLID_756_">
				<path id="XMLID_675_" style="fill:#459B06;" d="M366.4,431.1c-0.3,0.3-0.3,0.5-0.3,0.5S366.2,431.4,366.4,431.1z"/>
				<g id="XMLID_762_">
					<g id="XMLID_767_">
						<path id="XMLID_768_" style="fill:#5AB502;" d="M394.1,434.9c3.3,1.1,5.3,2.9,5.6,4.6c1-2.2,1.7-5.7-0.5-6.7
							c-2.2-1-3.6-1.8-7-1c-3.4,0.8-5.7-1.5-2.6-1.5c3,0,9.8,1,10.5,2.3c1.1-2.3,0.4-5.2-2.8-5.4c-3.2-0.2-3.3,1.9-5.3,2
							c-2,0.1-6.4,0.5-4.8-1.2c1.5-1.7,8.7-2.4,10.8-1.3c-0.5-2.6-4-6.5-7-6.6c-2.9-0.1-6.1,0.2-6.1,2.5c0,2.3,0.2,5.2-0.3,5.4
							c-0.5,0.1-0.5,0.1-0.5,0.1s-1.5,0.4-1-1.8c0.5-2.1,0.5-8.4-5.4-7.7c-5.9,0.7-6.6,4.7-6.6,4.7s2.7-1.1,5.1,0
							c2.5,1.1,3.1,4.3,0.5,2.7c-2.6-1.5-5.2-2.8-6.5-1.3c-1.1,1.2-3.1,5-3.9,6.4c0.4-0.5,1.5-1.4,4.2-2.2c4.3-1.2,8.2,0.2,6.3,1.1
							c-1.8,0.9-6.3,0.3-8.4,1.2c-2.1,1-3.1,5-4.1,6.8c3.2-2.3,4.7-2.9,7.5-3.8c2.8-1,6.3-0.6,3,0.6c-3.3,1.2-9.5,3.4-9.9,7.4
							c1.7,2.8,1.9,5.2,1.9,5.2s3.2-4.9,4-6.4c0.9-1.5,5.4-4.1,6.2-3.5c0.8,0.6-3.6,3.4-5.5,4.5c-1.9,1.1-4,7-3.5,9
							c3.3-5.9,7.6-10.2,9.9-9.5c2.3,0.8-2,3.6-4.4,5.2c-2.4,1.5-3.5,3.2-3.6,7c2.6-3.6,2.9-4.1,5.7-5.9c2.8-1.8,3.2-3.6,4.6-3.2
							c1.4,0.4-1.4,3.2-3.8,5.6c-2.4,2.4-1.9,6-0.8,6.7c1.1,0.7,7.4,1.4,7.4,1.4l3.9-2.3c0,0-0.2-2.9-1.8-4.2
							c-1.5-1.2,3-1.4,3.5,3.7c2.5-2,2.6-3.2,2.6-3.2s-1-3.2-3.9-4.1c-2.9-1-2.1-4.4-0.2-2.4c1.8,2,4.5,6.7,4.5,6.7l2.3-2.1
							c0,0-1.2-4.2-4-5.7c-2.8-1.5-4.6-1.7-4.2-2.6c0.4-0.9,3.3-0.5,5.5,2.1c2.3,2.6,2.8,5.3,2.8,5.3l2.9-4.3c0,0-3.8-4.5-5.8-5.5
							c-2-1-0.8-2.6,1.5-1.2c2.3,1.4,4.3,4,4.5,5.8c1.6-1.8,2.3-4.3,1.5-5.2c-0.8-0.8-3.7-2.7-5.8-3.2
							C390.7,435.3,390.7,433.8,394.1,434.9z M377.9,431.8c-0.5-1.5,1-0.5,1.8-0.8c0.5,0,0,0.5,0.3,0.8
							C379.2,432.3,377.9,432.1,377.9,431.8z M381.2,450.6c-1.8,1-1.5,2.5-2,4.3c-0.3,0.8-1.8,0.5-2-0.3c-0.9-2.4,0.9-4.5,3-5.6
							c1.1-0.6,1.2-0.4,1.3-0.2C381.7,449.3,382,450.1,381.2,450.6z M385.3,435.1c0-0.3,0-0.5,0-0.8c1.3-1,4.3-0.8,4.3,1.3
							C388.1,436.2,386.6,435.9,385.3,435.1z"/>
					</g>
					<g id="XMLID_763_">
						<path id="XMLID_764_" style="fill:#459B06;" d="M394.1,434.9c3.3,1.1,5.3,2.9,5.6,4.6c1-2.2,1.7-5.7-0.5-6.7
							c-2.2-1-3.6-1.8-7-1c-3.4,0.8-5.7-1.5-2.6-1.5c3,0,9.8,1,10.5,2.3c1.1-2.3,0.4-5.2-2.8-5.4c-3.2-0.2-3.3,1.9-5.3,2
							c-2,0.1-6.4,0.5-4.8-1.2c1.5-1.7,8.7-2.4,10.8-1.3c-0.5-2.6-4-6.5-7-6.6c-2.9-0.1-6.1,0.2-6.1,2.5c0,2.3,0.2,5.2-0.3,5.4
							c-0.5,0.1-0.5,0.1-0.5,0.1s-0.1,0-0.3,0c-3.1,8.1-0.3,16.6,0.2,24.8c0,1.8-0.6,3.5-1.1,5.3c0.1,0,0.1,0,0.1,0l3.9-2.3
							c0,0-0.2-2.9-1.8-4.2c-1.5-1.2,3-1.4,3.5,3.7c2.5-2,2.6-3.2,2.6-3.2s-1-3.2-3.9-4.1c-2.9-1-2.1-4.4-0.2-2.4
							c1.8,2,4.5,6.7,4.5,6.7l2.3-2.1c0,0-1.2-4.2-4-5.7c-2.8-1.5-4.6-1.7-4.2-2.6c0.4-0.9,3.3-0.5,5.5,2.1c2.3,2.6,2.8,5.3,2.8,5.3
							l2.9-4.3c0,0-3.8-4.5-5.8-5.5c-2-1-0.8-2.6,1.5-1.2c2.3,1.4,4.3,4,4.5,5.8c1.6-1.8,2.3-4.3,1.5-5.2c-0.8-0.8-3.7-2.7-5.8-3.2
							C390.7,435.3,390.7,433.8,394.1,434.9z M385.3,435.1c0-0.3,0-0.5,0-0.8c1.3-1,4.3-0.8,4.3,1.3
							C388.1,436.2,386.6,435.9,385.3,435.1z"/>
					</g>
				</g>
				<path id="XMLID_668_" style="fill:#86DD2A;" d="M383.5,457c-0.1,0.2-0.1,0.4-0.2,0.5c-0.1,0.2-0.1,0.3-0.2,0.4
					c-0.1,0.2-0.2,0.3-0.2,0.3s0.1-0.1,0.2-0.3c0.1-0.1,0.1-0.2,0.2-0.4C383.3,457.4,383.4,457.2,383.5,457c0.3-0.8,0.5-2,0.5-3.5
					c0-1.5-0.1-3.2-0.2-5c-0.2-1.8-0.4-3.8-0.7-5.7c-0.1-1-0.2-1.9-0.3-2.9c-0.1-1-0.2-1.9-0.2-2.8c-0.1-1.8,0.1-3.5,0.3-5
					c0.2-1.4,0.6-2.6,0.9-3.4c0.1-0.3,0.2-0.5,0.3-0.7c-0.1,0-0.3,0-0.5-0.1c-0.1,0.2-0.2,0.4-0.2,0.6c-0.3,0.8-0.6,2-0.9,3.5
					c-0.2,1.5-0.3,3.2-0.3,5c0,0.9,0.1,1.9,0.3,2.8c0.1,1,0.3,1.9,0.4,2.9c0.3,1.9,0.5,3.9,0.7,5.7c0.2,1.8,0.3,3.5,0.3,5
					C383.9,454.9,383.7,456.2,383.5,457z"/>
				<path id="XMLID_667_" style="fill:#86DD2A;" d="M373.2,421.3c0,0,0.1-0.1,0.3-0.2c0.2-0.1,0.5-0.3,0.8-0.5
					c0.4-0.2,0.8-0.4,1.4-0.5c0.6-0.1,1.3-0.2,2,0.1c0.7,0.2,1.3,0.8,1.8,1.5c0.2,0.4,0.4,0.7,0.6,1.1c0.2,0.4,0.4,0.8,0.5,1.2
					c0.4,0.8,0.7,1.7,1,2.6c0.2,0.4,0.4,0.9,0.6,1.3c0.2,0.4,0.5,0.8,1,0.8c0.1,0,0.2,0,0.3,0c0.1,0,0.2,0,0.3-0.1
					c0.1,0,0.2-0.1,0.3-0.1c0.1,0,0.2-0.1,0.3-0.1c0.4-0.2,0.8-0.5,1.1-0.8c0.6-0.7,1.1-1.5,1.4-2.3c0-0.1,0.1-0.2,0.1-0.3
					c0-0.1,0.1-0.2,0.2-0.3c0.1-0.2,0.2-0.4,0.4-0.6c0.3-0.4,0.6-0.7,0.9-0.9c0.6-0.6,1.3-1,2-1.2c0.7-0.2,1.4-0.3,1.9-0.2
					c0.6,0.1,1.1,0.3,1.4,0.5c0.4,0.2,0.6,0.4,0.8,0.6c0.2,0.1,0.3,0.2,0.3,0.2s-0.1-0.1-0.3-0.2c-0.2-0.1-0.4-0.3-0.8-0.5
					c-0.4-0.2-0.8-0.4-1.4-0.4c-0.6-0.1-1.2,0-1.9,0.3c-0.7,0.3-1.3,0.7-1.9,1.2c-0.3,0.3-0.6,0.6-0.8,0.9c-0.1,0.2-0.2,0.4-0.3,0.5
					c-0.1,0.1-0.1,0.2-0.1,0.3c0,0.1-0.1,0.2-0.1,0.3c-0.3,0.9-0.8,1.7-1.4,2.4c-0.3,0.3-0.7,0.6-1.1,0.9c-0.1,0.1-0.2,0.1-0.3,0.2
					c-0.1,0.1-0.2,0.1-0.4,0.1c-0.1,0-0.2,0.1-0.4,0.1c-0.1,0-0.3,0-0.4,0c-0.3,0-0.5-0.2-0.7-0.3c-0.2-0.2-0.3-0.4-0.4-0.6
					c-0.2-0.4-0.4-0.9-0.6-1.3c-0.3-0.9-0.7-1.7-1-2.6c-0.2-0.4-0.4-0.8-0.5-1.2c-0.2-0.4-0.4-0.8-0.6-1.1c-0.4-0.7-1-1.2-1.7-1.5
					c-0.7-0.2-1.3-0.2-1.9-0.1c-0.6,0.1-1,0.3-1.4,0.4c-0.4,0.2-0.7,0.3-0.9,0.4C373.3,421.3,373.2,421.3,373.2,421.3z"/>
				<path id="XMLID_666_" style="fill:#86DD2A;" d="M368.1,428.8c0.5-0.5,1.1-0.8,1.7-1.2c0.6-0.3,1.2-0.6,1.9-0.8
					c0.3-0.1,0.7-0.2,1-0.2c0.3-0.1,0.7-0.1,1-0.1c0.2,0,0.3,0,0.5,0c0.2,0,0.3,0,0.5,0c0.3,0,0.7,0.1,1,0.2c0.2,0,0.3,0.1,0.5,0.2
					l0.5,0.2l0.5,0.2l0.5,0.3l0.9,0.5c0.3,0.2,0.6,0.3,0.9,0.5c0.3,0.1,0.6,0.3,0.9,0.4c0.3,0.1,0.6,0.3,0.9,0.4
					c0.3,0.1,0.6,0.2,1,0.2c0.2,0,0.3,0,0.5,0c0.1,0,0.2,0,0.2-0.1c0,0,0.1,0,0.1,0c0,0,0,0,0,0l0.1-0.1l1.1,0c0.4,0,0.7,0,1.1,0
					l2.2,0.1l2.2,0.1c0.7,0,1.4,0.1,2.2,0.1c1.4,0.1,2.9,0.1,4.3,0.4c0.7,0.1,1.4,0.3,2.1,0.6c0.3,0.1,0.7,0.3,0.9,0.6
					c0.3,0.2,0.5,0.6,0.6,0.9c-0.1-0.3-0.3-0.7-0.6-0.9c-0.3-0.2-0.6-0.4-0.9-0.5c-0.7-0.3-1.4-0.4-2.1-0.5
					c-1.4-0.2-2.9-0.3-4.3-0.3c-0.7,0-1.5,0-2.2-0.1l-2.2-0.1l-2.2-0.1c-0.4,0-0.7,0-1.1,0l-1.1,0l0.1-0.1c-0.1,0.1-0.2,0.2-0.3,0.2
					c-0.1,0-0.2,0.1-0.3,0.1c-0.2,0-0.4,0-0.5,0c-0.4,0-0.7-0.2-1-0.3c-0.3-0.1-0.6-0.2-1-0.4c-0.3-0.1-0.6-0.3-0.9-0.4
					c-0.3-0.2-0.6-0.3-0.9-0.5l-0.9-0.5l-0.4-0.2l-0.5-0.2l-0.5-0.2c-0.2-0.1-0.3-0.1-0.5-0.2c-0.3-0.1-0.7-0.2-1-0.2
					c-0.2,0-0.3,0-0.5-0.1c-0.2,0-0.3,0-0.5,0c-0.3,0-0.7,0-1,0.1c-0.3,0-0.7,0.1-1,0.2c-0.7,0.2-1.3,0.4-1.9,0.7
					c-0.3,0.2-0.6,0.3-0.9,0.5C368.7,428.4,368.4,428.6,368.1,428.8z"/>
				<path id="XMLID_665_" style="fill:#86DD2A;" d="M367.3,443.6c0.4-0.7,0.9-1.3,1.3-1.9c0.5-0.6,1-1.2,1.6-1.8
					c0.6-0.6,1.1-1.1,1.8-1.6c0.6-0.5,1.3-1,1.9-1.4c0.3-0.2,0.7-0.4,1-0.6l0.5-0.3l0.5-0.3c0.4-0.2,0.7-0.4,1.1-0.5
					c0.4-0.2,0.7-0.3,1.1-0.5c0.4-0.2,0.7-0.3,1.1-0.5l0.5-0.2l0.6-0.2c0.4-0.1,0.7-0.3,1.1-0.4c0.4-0.1,0.8-0.2,1.2-0.3l0,0h0
					c0.4,0,0.7,0,1.1,0c0.4,0,0.7,0,1.1,0l1.1,0c0.4,0,0.7,0,1.1,0l2.2,0.1c0.7,0,1.4,0.1,2.2,0.1c1.4,0.1,2.9,0.1,4.3,0.4
					c0.7,0.1,1.4,0.3,2.1,0.6c0.3,0.1,0.7,0.3,0.9,0.6c0.3,0.2,0.5,0.6,0.6,0.9c-0.1-0.3-0.3-0.7-0.6-0.9c-0.3-0.2-0.6-0.4-0.9-0.5
					c-0.7-0.3-1.4-0.4-2.1-0.5c-1.4-0.2-2.9-0.3-4.3-0.3c-0.7,0-1.5,0-2.2-0.1l-2.2-0.1c-0.4,0-0.7,0-1.1,0l-1.1,0
					c-0.4,0-0.7,0-1.1,0l-1.1,0l0,0c-0.4,0.1-0.7,0.2-1.1,0.3c-0.4,0.1-0.7,0.2-1.1,0.4l-0.6,0.2l-0.5,0.2c-0.4,0.1-0.7,0.3-1.1,0.4
					c-0.4,0.2-0.7,0.3-1.1,0.5c-0.4,0.2-0.7,0.3-1.1,0.5l-0.5,0.3l-0.5,0.3c-0.3,0.2-0.7,0.4-1,0.6c-0.7,0.4-1.3,0.9-1.9,1.4
					c-0.6,0.5-1.2,1-1.8,1.5c-0.6,0.5-1.1,1.1-1.6,1.7C368.2,442.3,367.7,442.9,367.3,443.6z"/>
				<path id="XMLID_664_" style="fill:#86DD2A;" d="M370.5,452.3c0.2-0.3,0.4-0.6,0.7-0.9c0.2-0.3,0.5-0.6,0.7-0.9
					c0.2-0.3,0.5-0.6,0.7-0.8c0.3-0.3,0.5-0.6,0.8-0.8l0.8-0.8c0.3-0.3,0.5-0.5,0.8-0.8l0.8-0.8c0.3-0.3,0.5-0.5,0.8-0.7l1.7-1.5
					c0.3-0.2,0.6-0.5,0.8-0.7c0.3-0.2,0.5-0.5,0.8-0.8l0.4-0.4l0.4-0.4c0.2-0.3,0.5-0.6,0.7-0.9c0.2-0.3,0.4-0.6,0.6-0.9
					c0.2-0.3,0.4-0.6,0.5-1l0-0.1l0.1,0c0.7-0.1,1.3-0.1,2,0c0.7,0,1.3,0.1,2,0.3c0.6,0.1,1.3,0.3,1.9,0.6c0.3,0.1,0.6,0.3,0.9,0.5
					c0.3,0.2,0.5,0.4,0.8,0.6c0.3,0.2,0.5,0.4,0.8,0.6c0.3,0.2,0.5,0.4,0.7,0.6l0.4,0.3l0.3,0.4c0.2,0.2,0.4,0.5,0.7,0.7
					c0.1,0.1,0.2,0.3,0.3,0.4c0.1,0.1,0.2,0.3,0.3,0.4c0.2,0.3,0.4,0.6,0.5,0.8c0.1,0.1,0.2,0.3,0.2,0.4l0.2,0.5l0.2,0.5l0.1,0.5
					l-0.2-0.5l-0.2-0.5l-0.2-0.4c-0.1-0.1-0.2-0.3-0.2-0.4c-0.2-0.3-0.3-0.6-0.5-0.8c-0.1-0.1-0.2-0.3-0.3-0.4
					c-0.1-0.1-0.2-0.3-0.3-0.4c-0.2-0.3-0.4-0.5-0.7-0.7l-0.3-0.3l-0.4-0.3c-0.2-0.2-0.5-0.4-0.8-0.6c-0.3-0.2-0.5-0.4-0.8-0.6
					c-0.3-0.2-0.5-0.4-0.8-0.5c-0.3-0.2-0.6-0.3-0.8-0.5c-0.6-0.3-1.2-0.5-1.8-0.6c-0.6-0.1-1.3-0.2-1.9-0.2c-0.3,0-0.6,0-1,0
					c-0.3,0-0.7,0-1,0.1l0.1-0.1c-0.2,0.4-0.4,0.7-0.5,1c-0.2,0.3-0.4,0.6-0.6,0.9c-0.2,0.3-0.5,0.6-0.7,0.9l-0.4,0.4l-0.4,0.4
					c-0.3,0.3-0.5,0.5-0.8,0.8c-0.3,0.3-0.6,0.5-0.8,0.7l-1.7,1.5c-0.3,0.2-0.6,0.5-0.8,0.7l-0.8,0.8c-0.3,0.3-0.5,0.5-0.8,0.8
					l-0.8,0.8c-0.3,0.3-0.5,0.5-0.8,0.8c-0.3,0.3-0.5,0.5-0.8,0.8c-0.2,0.3-0.5,0.5-0.7,0.8C371,451.7,370.8,452,370.5,452.3z"/>
			</g>
			<g id="XMLID_737_">
				<g id="XMLID_738_">
					<path id="XMLID_663_" style="fill:#459B06;" d="M396.4,430.9c0,0.2,0.1,0.3,0.1,0.3S396.4,431.1,396.4,430.9z"/>
					<g id="XMLID_744_">
						<g id="XMLID_749_">
							<path id="XMLID_750_" style="fill:#5AB502;" d="M415.2,421.4c2.4-0.3,5,0.8,6,3.2c-0.2-2.6-1.5-7-4.4-7.3
								c-2-0.2-3.7-0.1-4.9,2.2c-1.3,2.2-4.5,1.5-2.8,0.1c1.9-1.6,5.4-3.8,8-2.8c-1.2-2.3-4.8-5.1-7.2-3.3c-1.8,1.4,0.4,3.1-0.6,4.2
								c-1,1.1-3.2,3.3-3.8,1.6c-0.8-2.3,1.6-5.9,4.1-6.5c-3.2-1.3-9.8-2-11.9,0.8c-1.1,1.5-1.7,3.7,1,4.4c2.7,0.8,5.7,2.2,5.5,2.6
								c-0.2,0.3-0.2,0.3-0.2,0.3s-0.4,0.8-2.2-0.4c-2.8-1.8-9.2-2.8-10.5,1.1c-1.1,3.5,2.2,4.7,2.2,4.7s0.1-1.8,2.2-3
								c2.1-1.1,5.3-0.3,2.7,0.6c-2.6,0.9-4.7,2.1-4.2,3.2c0.4,0.9,1.8,3.1,2.1,3.9c0-0.4,0.1-1.2,1.1-2.8c1.5-2.6,4.6-4,4.2-2.6
								c-0.4,1.3-3.3,3.2-4,4.5c-0.7,1.4,0.5,3.4,0.4,4.5c1.3-2.1,1.9-3,3.1-4.6c1.2-1.6,3.6-2.8,2.2-0.9c-1.5,2-4.2,4.7-3.8,7.4
								c1.6,1.1,1.8,2.7,1.8,2.7s1.6-3.7,1.8-5c0.2-1.2,2.1-4.4,2.9-4.3c0.8,0.1-1.4,3.5-2.2,4.7c-1.2,1.7-1.7,4.5-1.9,6.8
								c1.6-2.7,3.6-8.2,6-8.7c1.2-0.3-0.8,3.5-2.3,5c-1.5,1.6-2.1,2.8-3.2,5.7c2.4-2.7,2.5-3.2,4.4-5.1c1.9-1.9,2-3.6,2.9-3.5
								c0.9,0.1-0.8,3.3-2.7,5.5c-1.9,2.3-3,5.3-2.8,6c0.2,0.7,2.7,2.2,2.7,2.2c1.4-0.8,2.1-1.2,3.6-2.2c0,0,1.6-3.4,1.2-4.8
								c-0.4-1.3,3.2-1.8,0,4.3c2.6-2.2,3.3-3.9,3.3-3.9s0.6-3.9-1-4.6c-1.6-0.8-1-4.5,0.1-2.7c1.3,2.1,1.4,4.9,1.1,7.4
								c1-1.1,1.4-1.6,2.3-2.8c0,0,0.2-5.2-1.6-6.4c-1.9-1.2-3.1-0.9-3.1-1.8c0-1,2.2-1.5,3.9,1c1.6,2.5,1.1,6.1,1.1,6.1
								c1.2-2.3,1.7-3.5,2.5-5.9c0,0-3.1-4.6-4.7-5c-1.6-0.5-1.5-2.5,0.5-1.8c2.3,0.9,4,3.1,4.3,5.6c1-2.6,0.6-6-0.2-6.8
								c-0.8-0.8-3.7-1.8-5.3-1.5C413.4,423.1,412.4,421.7,415.2,421.4z M403.5,425.9c-1.3-0.6,0.3-0.8,0.5-1.3
								c0.3-0.2,0.4,0.3,0.7,0.3C404.6,425.7,403.6,426.1,403.5,425.9z M409.8,440.4c-1.3,1.1-1.6,2.6-2.8,4.3
								c-0.5,0.7-1.2,0.4-1-0.3c0.5-2.2,1.9-4.2,3.4-5.5c0.8-0.7,0.8-0.5,0.8-0.3C410.4,439.1,410.4,439.8,409.8,440.4z
								 M409.9,425.1c-0.1-0.2-0.3-0.4-0.5-0.6c0.1-1.3,2.2-2.5,3.4-0.6C412.2,424.9,411.2,425.2,409.9,425.1z"/>
						</g>
						<g id="XMLID_745_">
							<path id="XMLID_746_" style="fill:#459B06;" d="M415.2,421.4c2.4-0.3,5,0.8,6,3.2c-0.2-2.6-1.5-7-4.4-7.3
								c-2-0.2-3.7-0.1-4.9,2.2c-1.3,2.2-4.5,1.5-2.8,0.1c1.9-1.6,5.4-3.8,8-2.8c-1.2-2.3-4.8-5.1-7.2-3.3c-1.8,1.4,0.4,3.1-0.6,4.2
								c-1,1.1-3.2,3.3-3.8,1.6c-0.8-2.3,1.6-5.9,4.1-6.5c-3.2-1.3-9.8-2-11.9,0.8c-1.1,1.5-1.7,3.7,1,4.4c2.7,0.8,5.7,2.2,5.5,2.6
								c-0.2,0.3-0.2,0.3-0.2,0.3s0,0.1-0.1,0.2c6,6.6,9.2,12.8,6.8,21.8c-0.8,1.9-2.1,3.8-3.7,5.7c0,0,0,0,0,0
								c1.4-0.8,2.1-1.2,3.6-2.2c0,0,1.6-3.4,1.2-4.8c-0.4-1.3,3.2-1.8,0,4.3c2.6-2.2,3.3-3.9,3.3-3.9s0.6-3.9-1-4.6
								c-1.6-0.8-1-4.5,0.1-2.7c1.3,2.1,1.4,4.9,1.1,7.4c1-1.1,1.4-1.6,2.3-2.8c0,0,0.2-5.2-1.6-6.4c-1.9-1.2-3.1-0.9-3.1-1.8
								c0-1,2.2-1.5,3.9,1c1.6,2.5,1.1,6.1,1.1,6.1c1.2-2.3,1.7-3.5,2.5-5.9c0,0-3.1-4.6-4.7-5c-1.6-0.5-1.5-2.5,0.5-1.8
								c2.3,0.9,4,3.1,4.3,5.6c1-2.6,0.6-6-0.2-6.8c-0.8-0.8-3.7-1.8-5.3-1.5C413.4,423.1,412.4,421.7,415.2,421.4z M409.9,425.1
								c-0.1-0.2-0.3-0.4-0.5-0.6c0.1-1.3,2.2-2.5,3.4-0.6C412.2,424.9,411.2,425.2,409.9,425.1z"/>
						</g>
					</g>
					<path id="XMLID_58_" style="fill:#86DD2A;" d="M411.4,432.5c-0.2-0.9-0.5-1.7-0.9-2.5c-0.2-0.4-0.4-0.8-0.6-1.2
						c-0.1-0.2-0.2-0.4-0.3-0.6c-0.1-0.2-0.2-0.4-0.3-0.6c-0.2-0.4-0.4-0.7-0.7-1.1c-0.2-0.3-0.4-0.7-0.7-1
						c-0.4-0.6-0.9-1.2-1.3-1.8c-0.8-1.1-1.6-1.9-2.1-2.5c-0.2-0.3-0.4-0.5-0.5-0.6c0,0.1,0,0.1,0,0.1s-0.1,0.3-0.6,0.3
						c0.1,0.1,0.3,0.3,0.5,0.5c0.6,0.6,1.4,1.5,2.3,2.5c0.5,0.5,0.9,1.1,1.4,1.7c0.2,0.3,0.5,0.6,0.7,1c0.2,0.3,0.5,0.7,0.7,1
						c0.1,0.2,0.2,0.4,0.3,0.5c0.1,0.2,0.2,0.4,0.3,0.6c0.2,0.4,0.4,0.8,0.6,1.2c0.4,0.8,0.7,1.6,0.9,2.5c1,3.6,0.6,7.4-0.9,10.8
						c-0.7,1.6-1.5,2.9-2.2,3.8c-0.3,0.4-0.6,0.8-0.8,1c-0.2,0.2-0.3,0.3-0.3,0.3s0.1-0.1,0.3-0.3c0.2-0.2,0.5-0.5,0.8-1
						c0.7-0.9,1.6-2.2,2.3-3.8C411.9,440,412.3,436.1,411.4,432.5z"/>
					<path id="XMLID_55_" style="fill:#86DD2A;" d="M392.6,424.6c0,0,0-0.1-0.1-0.2c-0.1-0.1-0.1-0.3-0.2-0.6c0-0.3-0.1-0.6,0-0.9
						c0.1-0.4,0.3-0.8,0.8-1.2c0.5-0.4,1.4-0.7,2.3-0.8c0.2,0,0.5-0.1,0.7-0.1c0.2,0,0.5,0,0.7,0c0.5,0,1,0,1.5,0.1
						c1,0.1,2,0.2,3,0.5c0.5,0.1,1,0.2,1.4,0.3c0.5,0.1,0.9,0.1,1.1,0c0.5-0.4,0.5-1.1,0.2-1.8c-0.3-0.7-0.9-1.4-1.6-1.9
						c-0.2-0.2-0.4-0.3-0.6-0.4c-0.2-0.2-0.3-0.3-0.5-0.5c-0.2-0.2-0.3-0.3-0.4-0.5c-0.1-0.2-0.2-0.3-0.3-0.4
						c-0.4-0.6-0.7-1.1-0.8-1.6c-0.1-0.5,0.1-0.9,0.5-1.3c0.2-0.1,0.3-0.3,0.6-0.4c0.2-0.1,0.4-0.2,0.7-0.3c0.2-0.1,0.4-0.1,0.6-0.2
						c0.2,0,0.4,0,0.5-0.1c0.3,0,0.4,0,0.4,0s-0.1,0-0.4,0.1c-0.1,0-0.3,0.1-0.5,0.1c-0.2,0-0.4,0.1-0.6,0.2
						c-0.2,0.1-0.4,0.2-0.6,0.3c-0.2,0.1-0.4,0.3-0.5,0.4c-0.3,0.3-0.4,0.7-0.3,1.2c0.1,0.5,0.4,1,0.8,1.6c0.1,0.1,0.2,0.3,0.3,0.4
						c0.1,0.1,0.3,0.3,0.4,0.4c0.3,0.3,0.6,0.6,1,0.8c0.8,0.6,1.4,1.3,1.7,2c0.2,0.4,0.2,0.7,0.2,1.1c0,0.2,0,0.4-0.1,0.5
						c0,0.1-0.1,0.2-0.1,0.2c-0.1,0.1-0.1,0.2-0.2,0.2c-0.2,0.1-0.5,0.2-0.7,0.2c-0.3,0-0.5,0-0.8-0.1c-0.5-0.1-1-0.2-1.5-0.3
						c-1-0.2-2-0.4-2.9-0.5c-0.5,0-1-0.1-1.5-0.1c-0.2,0-0.5,0-0.7,0c-0.2,0-0.5,0-0.7,0c-0.9,0.1-1.7,0.3-2.2,0.7
						c-0.5,0.3-0.7,0.8-0.8,1.1c-0.1,0.4-0.1,0.7-0.1,0.9C392.5,424.3,392.6,424.6,392.6,424.6z"/>
					<path id="XMLID_54_" style="fill:#86DD2A;" d="M396.1,429.3c0-0.2,0-0.4,0-0.6c0-0.2,0.1-0.4,0.1-0.6c0-0.2,0.1-0.4,0.2-0.6
						c0.1-0.2,0.2-0.4,0.2-0.6c0.1-0.2,0.2-0.4,0.3-0.6c0.1-0.1,0.1-0.2,0.2-0.3c0.1-0.1,0.1-0.2,0.2-0.3c0.1-0.2,0.4-0.4,0.6-0.5
						c0.2-0.2,0.4-0.3,0.7-0.5c0.3-0.1,0.5-0.3,0.8-0.4c0.3-0.1,0.5-0.2,0.9-0.3c0.4-0.1,0.5-0.1,0.9-0.2c0.3-0.1,0.5-0.1,0.9-0.2
						c0.3-0.1,0.6-0.1,0.8-0.2c0.3-0.1,0.5-0.2,0.8-0.3c0.3-0.1,0.5-0.2,0.7-0.3c0.1-0.1,0.2-0.1,0.3-0.2c0,0,0.1-0.1,0.1-0.1
						c0,0,0-0.1,0-0.1c0-0.1,0-0.1,0-0.2c0.2-0.2,0.4-0.3,0.6-0.5c0.2-0.2,0.4-0.4,0.6-0.5c0.5-0.4,0.8-0.6,1.3-1
						c1-0.8,1.6-1.2,2.6-2c0.9-0.6,1.8-1.3,2.8-1.8c0.5-0.2,1.1-0.4,1.8-0.5c0.3,0,0.7,0,1.1,0.1c0.4,0.1,0.8,0.3,1.2,0.6
						c-0.4-0.3-0.8-0.5-1.2-0.6c-0.4-0.1-0.7-0.1-1-0.1c-0.6,0.1-1.2,0.3-1.7,0.5c-1,0.5-1.8,1.2-2.7,1.8c-0.4,0.3-0.8,0.7-1.3,1
						c-0.5,0.4-0.8,0.6-1.3,1c-0.5,0.4-0.8,0.6-1.3,1c-0.4,0.3-0.8,0.7-1.2,1c0-0.1,0-0.1,0-0.2c0.1,0.2,0.1,0.2,0,0.3
						c0,0.1-0.1,0.1-0.1,0.2c-0.1,0.1-0.2,0.2-0.3,0.3c-0.2,0.1-0.5,0.2-0.8,0.3c-0.3,0.1-0.6,0.2-0.8,0.3c-0.3,0.1-0.6,0.1-0.9,0.2
						c-0.4,0.1-0.5,0.1-0.9,0.2c-0.4,0.1-0.5,0.1-0.9,0.2c-0.3,0.1-0.5,0.1-0.8,0.3c-0.3,0.1-0.5,0.2-0.8,0.3
						c-0.2,0.1-0.5,0.3-0.7,0.4c-0.2,0.2-0.4,0.3-0.6,0.5c-0.1,0.1-0.2,0.2-0.3,0.3c-0.1,0.1-0.1,0.2-0.2,0.3
						c-0.2,0.2-0.2,0.4-0.4,0.6c-0.1,0.2-0.2,0.4-0.3,0.6c-0.1,0.2-0.1,0.4-0.2,0.6C396.2,428.4,396.1,428.9,396.1,429.3z"/>
					<path id="XMLID_39_" style="fill:#86DD2A;" d="M401.3,436.6c0.1-0.5,0.3-1,0.5-1.5c0.1-0.2,0.2-0.5,0.3-0.7
						c0.1-0.3,0.2-0.5,0.3-0.8c0.1-0.2,0.2-0.5,0.3-0.8c0.1-0.2,0.2-0.5,0.3-0.8c0.1-0.2,0.2-0.5,0.3-0.8c0.1-0.2,0.2-0.5,0.3-0.8
						c0.1-0.2,0.2-0.5,0.4-0.8c0.2-0.3,0.2-0.4,0.4-0.8c0.1-0.2,0.3-0.5,0.4-0.7c0.1-0.3,0.3-0.5,0.4-0.7c0.1-0.2,0.3-0.5,0.4-0.7
						c0.1-0.2,0.3-0.5,0.4-0.7c0.1-0.2,0.3-0.5,0.4-0.7c0.2-0.2,0.3-0.5,0.5-0.7c0,0,0,0,0,0c0,0,0,0,0,0c0.4-0.3,0.9-0.6,1.3-0.9
						c0.5-0.3,0.9-0.6,1.4-0.9c0.6-0.3,0.8-0.5,1.4-0.8c0.5-0.3,0.9-0.6,1.4-0.8c0.9-0.5,1.9-1.1,2.9-1.4c0.5-0.2,1.1-0.3,1.7-0.2
						c0.3,0,0.6,0.1,1,0.3c0.3,0.2,0.7,0.4,1,0.8c-0.3-0.3-0.6-0.6-1-0.7c-0.3-0.1-0.6-0.2-0.9-0.2c-0.6,0-1.1,0.1-1.6,0.3
						c-1,0.4-1.9,1-2.8,1.5c-0.9,0.6-1.8,1.1-2.7,1.7c-0.5,0.3-0.9,0.6-1.4,0.9c-0.5,0.4-0.8,0.5-1.3,0.9c0,0,0,0,0,0
						c-0.2,0.2-0.3,0.4-0.5,0.7c-0.2,0.2-0.3,0.5-0.5,0.7c-0.1,0.2-0.3,0.5-0.4,0.7c-0.1,0.2-0.3,0.5-0.4,0.7
						c-0.1,0.2-0.3,0.5-0.4,0.7c-0.1,0.2-0.3,0.5-0.4,0.7c-0.2,0.3-0.2,0.4-0.4,0.7c-0.1,0.2-0.3,0.5-0.4,0.7
						c-0.1,0.2-0.2,0.5-0.4,0.7c-0.1,0.2-0.2,0.5-0.4,0.7c-0.1,0.2-0.2,0.5-0.3,0.7c-0.1,0.2-0.2,0.5-0.3,0.7
						c-0.1,0.2-0.2,0.5-0.3,0.7c-0.1,0.2-0.2,0.5-0.3,0.7C401.7,435.6,401.5,436.1,401.3,436.6z"/>
					<path id="XMLID_7_" style="fill:#86DD2A;" d="M403,442.3c0.2-0.2,0.4-0.5,0.6-0.7c0.2-0.2,0.4-0.5,0.6-0.7
						c0.2-0.2,0.4-0.5,0.6-0.7c0.2-0.2,0.4-0.5,0.6-0.7c0.4-0.5,0.7-1,1.1-1.5c0.4-0.5,0.7-1,1-1.5c0.4-0.6,0.6-0.9,1-1.6
						c0.2-0.3,0.3-0.5,0.4-0.8c0.1-0.3,0.3-0.6,0.4-0.8c0.2-0.6,0.4-1.2,0.6-1.8c0.1-0.3,0.1-0.6,0.2-1c0-0.3,0.1-0.7,0-1
						c0,0,0-0.1,0-0.1c0,0,0,0,0.1,0c0.4-0.3,0.8-0.5,1.3-0.6c0.4-0.2,0.9-0.3,1.4-0.4c0.2,0,0.5,0,0.7,0c0.2,0,0.5,0,0.7,0.1
						c0.1,0,0.2,0.1,0.4,0.1c0.1,0,0.2,0.1,0.4,0.1c0.2,0.1,0.5,0.2,0.7,0.4c0.9,0.6,1.7,1.3,2.3,2.4c0.2,0.3,0.3,0.5,0.4,0.8
						c0.1,0.3,0.2,0.6,0.3,0.9c0.1,0.3,0.2,0.7,0.2,1c0,0.2,0,0.3,0.1,0.6c0,0.2,0,0.4,0,0.6c0-0.2,0-0.3,0-0.6c0-0.2,0-0.3-0.1-0.5
						c-0.1-0.3-0.1-0.7-0.2-1c-0.1-0.3-0.2-0.6-0.3-0.9c-0.1-0.3-0.3-0.5-0.4-0.8c-0.6-1-1.4-1.7-2.3-2.2c-0.2-0.1-0.4-0.2-0.7-0.3
						c-0.1-0.1-0.2-0.1-0.3-0.1c-0.1,0-0.2-0.1-0.3-0.1c-0.2-0.1-0.5-0.1-0.7-0.1c-0.2,0-0.5,0-0.7,0c-0.4,0.1-0.9,0.2-1.3,0.3
						c-0.4,0.2-0.8,0.4-1.2,0.6c0-0.1,0-0.1,0.1-0.2c0,0.4,0,0.7,0,1c0,0.3-0.1,0.7-0.2,1c-0.2,0.6-0.4,1.3-0.6,1.8
						c-0.1,0.3-0.3,0.6-0.4,0.9c-0.1,0.3-0.3,0.5-0.5,0.8c-0.4,0.6-0.6,0.9-1,1.5c-0.4,0.5-0.7,1-1.1,1.5c-0.4,0.5-0.7,1-1.1,1.4
						c-0.2,0.2-0.4,0.5-0.6,0.7c-0.2,0.2-0.4,0.5-0.6,0.7c-0.2,0.2-0.4,0.5-0.6,0.7C403.4,441.8,403.2,442,403,442.3z"/>
				</g>
			</g>
		</g>
	</g>
	<g id="XMLID_748_">
		<path id="XMLID_780_" style="fill:#CC8E11;" d="M215.6,484.7c-2.4,1-3.8,2-6.2,2.6c-1.1,0.3-1.9,0.4-3.2,0.4c0,0-0.1,0-0.1,0
			c0,0-0.1,0-0.2-0.1c-0.2,0-0.4-0.1-0.6-0.1c0.1,0-0.3-0.1-0.3-0.2c-0.3-0.2-0.7-0.3-1-0.5c-1-0.3-2.2,0.4-2.4,1.4
			c-0.9,4.2,4.7,5.2,7.7,4.8c3.2-0.4,7.6-1.3,9.7-4.1C220.3,487,217.9,483.8,215.6,484.7z"/>
		<path id="XMLID_734_" style="fill:#FFBF6E;" d="M168.7,459.4c0,0,4.6,1,13.8-1.9c9.2-2.9,21.1-8.1,28.4-2.6
			c7.3,5.5,14.3,21.5-0.9,27c-15.3,5.5-0.3,11.3,4,4.2c0,0-2.8,7-9.8,4.9c-7-2.1-5-9.2,2.7-11.9c7.7-2.8,3.7-2.5,3.7-2.5
			s-17.7,3.2-22.9,3.6l-10-0.5"/>
		<path id="XMLID_778_" style="fill:#CC8E11;" d="M157.2,452c0,0-6.5,2-7.5,9c-1,6.9-2.4,15.3-8.6,14.9c-6.1-0.4-12,6.2,1.4,5.6
			c13.5-0.6,13.9-5.2,13.9-5.2"/>
		<g id="XMLID_773_">
			<path id="XMLID_777_" style="fill:#FFBF6E;" d="M171.6,477.1l-6.7,3.1c0,0-6.1,1.4-5.9,5.7c0.2,3.9,10.2,1.8,9.8-2.7l9.6-3.1"/>
			<path id="XMLID_776_" style="fill:#FFBF6E;" d="M157.3,475.9l-6.7,3.1c0,0-6.1,1.4-5.9,5.7c0.2,3.9,10.2,1.8,9.8-2.7l9.6-3.1"/>
		</g>
		<path id="XMLID_772_" style="fill:#FFBF6E;" d="M164.7,448.7c-5.9,0.4-10,2.9-12.4,13.1c-2.4,10.2-5.3,19.8,3.8,20
			c4.5,0.1,7.8,0.5,10.8-0.8c4.7-2,6.7-8.7,8.3-13.1C177.6,461,180.8,447.5,164.7,448.7z"/>
		<g id="XMLID_757_">
			<path id="XMLID_761_" style="fill:#613E35;" d="M183.2,476.2c-0.3-0.3-0.6-0.6-0.7-1.1c-0.1-0.4-0.1-0.9,0.1-1.4
				c0.2-0.4,0.5-0.8,0.9-1.1c0.4-0.3,0.8-0.4,1.3-0.6c0.9-0.2,1.8-0.2,2.6-0.1c0.9,0.1,1.7,0.4,2.5,0.7l-0.4-0.1
				c1.5-0.1,2.9-0.2,4.4-0.3l-0.5,1.8c-0.3-0.2-0.5-0.3-0.7-0.5c-0.2-0.2-0.5-0.4-0.7-0.6c-0.4-0.4-0.9-0.8-1.2-1.2
				c-0.7-0.9-1.5-1.9-1.8-3.2c-0.1-0.3-0.1-0.6-0.1-0.9c0-0.3,0-0.6,0-1c0-0.3,0.1-0.6,0.3-0.9c0.1-0.3,0.3-0.6,0.4-0.8
				c0.2-0.2,0.4-0.5,0.6-0.7c0.2-0.2,0.4-0.4,0.7-0.6c0.2-0.2,0.5-0.3,0.7-0.5l0.8-0.4c-0.8,0.8-1.5,1.6-1.9,2.5
				c-0.1,0.2-0.2,0.5-0.2,0.7c0,0.2-0.1,0.5,0,0.7c0,0.2,0,0.4,0.1,0.7c0,0.2,0.1,0.4,0.2,0.7c0.4,0.9,0.9,1.7,1.7,2.4
				c0.3,0.4,0.7,0.7,1.1,1c0.2,0.2,0.4,0.3,0.6,0.5l0.6,0.4l2.4,1.7l-2.9,0.1c-1.5,0-2.9,0.1-4.4,0.1l-0.3,0l-0.2-0.1
				c-0.7-0.3-1.4-0.6-2.1-0.8c-0.7-0.2-1.4-0.3-2.1-0.3c-0.7,0-1.3,0.3-1.8,0.7C182.8,474.6,182.8,475.5,183.2,476.2z"/>
		</g>
		<path id="XMLID_755_" style="fill:#FFD38E;" d="M162.7,455.7c0,0-4.9,12.6-6.5,13.5c-1.6,0.8-6.7,3.7-6.5,8
			c0.2,4.3,4.7,5.7,8.8,5.5c4.1-0.2,11.3-0.6,11.7-4.2c0.5-3.6-4.8-5.8-6.9-8.5C161.2,467.3,162.7,455.7,162.7,455.7z"/>
		<g id="XMLID_741_">
			<path id="XMLID_743_" style="fill:#613E35;" d="M158.8,474.4c-3.1-0.1-6.3-0.7-5.3,2.2c1,2.9,1.8,4.5,3.7,4.5
				c1.8,0,3.8-1.6,4.8-3C163.3,476.2,162.7,474.5,158.8,474.4z"/>
			<path id="XMLID_742_" style="fill:#FFB642;" d="M158.4,475.3c0.2,0-3.1-0.3-3.6,0.2c-0.5,0.5,0.2,3.1,1.5,4.2
				C156.3,479.7,153.7,475.1,158.4,475.3z"/>
		</g>
		<path id="XMLID_740_" style="fill:#CC8E11;" d="M174.3,458.9c2,4.7-1.2,3.5-3.9,14.1c-2.7,10.6,13.9,9.8,19.8,7
			c5.9-2.7-4.9-4-8.4-7.2c-3.5-3.3-0.2-9.4-1.4-13.4c-1.2-4-4.5-5.6-4.5-5.6"/>
		<path id="XMLID_747_" style="fill:none;stroke:#613E35;stroke-miterlimit:10;" d="M153.9,459.9c0.1,0.2,0.6,1.3,1.8,1.6
			c1.3,0.3,2.8-0.4,3.5-1.8"/>
		<path id="XMLID_739_" style="fill:none;stroke:#613E35;stroke-miterlimit:10;" d="M170.2,459.9c-0.1,0.2-0.6,1.3-1.8,1.6
			c-1.3,0.3-2.8-0.4-3.5-1.8"/>
	</g>
</g>
<g id="services_x5F_decking_x5F_wall">
	<rect id="XMLID_362_" x="605.2" y="519.8" style="fill:#C5B496;" width="111.8" height="141.5"/>
	<rect id="XMLID_357_" x="465.5" y="519.8" style="fill:#C5B496;" width="111.8" height="141.5"/>
	<rect id="XMLID_354_" x="326.6" y="522.8" style="fill:#C5B496;" width="111.8" height="137.8"/>
	<rect id="XMLID_351_" x="189.2" y="522.8" style="fill:#C5B496;" width="111.8" height="138.4"/>
	<rect id="XMLID_350_" x="42.6" y="522.8" style="fill:#C5B496;" width="111.8" height="138.4"/>
	<rect id="XMLID_19_" x="45.1" y="643.8" style="fill:#C5B496;" width="108.8" height="17.3"/>
	<rect id="XMLID_21_" x="45.1" y="643.3" style="fill:#72695B;" width="108.8" height="0.5"/>
	<rect id="XMLID_68_" x="45.1" y="626" style="fill:#C5B496;" width="108.8" height="17.3"/>
	<rect id="XMLID_74_" x="45.1" y="625.4" style="fill:#72695B;" width="108.8" height="0.5"/>
	<rect id="XMLID_85_" x="45.1" y="608.1" style="fill:#C5B496;" width="108.8" height="17.3"/>
	<rect id="XMLID_108_" x="45.1" y="607.9" style="fill:#72695B;" width="108.8" height="0.5"/>
	<rect id="XMLID_111_" x="45.1" y="590.5" style="fill:#C5B496;" width="108.8" height="17.3"/>
	<rect id="XMLID_114_" x="45.1" y="590" style="fill:#72695B;" width="108.8" height="0.5"/>
	<rect id="XMLID_117_" x="45.1" y="572.7" style="fill:#C5B496;" width="108.8" height="17.3"/>
	<rect id="XMLID_120_" x="45.1" y="572.1" style="fill:#72695B;" width="108.8" height="0.5"/>
	<rect id="XMLID_123_" x="45.1" y="554.8" style="fill:#C5B496;" width="108.8" height="17.3"/>
	<rect id="XMLID_126_" x="44.8" y="554.2" style="fill:#72695B;" width="108.8" height="0.5"/>
	<rect id="XMLID_129_" x="45.6" y="536.9" style="fill:#C5B496;" width="108.8" height="17.3"/>
	<rect id="XMLID_132_" x="45.1" y="536.3" style="fill:#72695B;" width="108.8" height="0.5"/>
	<rect id="XMLID_135_" x="44.8" y="519" style="fill:#C5B496;" width="108.8" height="17.3"/>
	<rect id="XMLID_180_" x="189.1" y="643.8" style="fill:#C5B496;" width="108.8" height="17.3"/>
	<rect id="XMLID_177_" x="189.1" y="643.3" style="fill:#72695B;" width="108.8" height="0.5"/>
	<rect id="XMLID_174_" x="189.1" y="626" style="fill:#C5B496;" width="108.8" height="17.3"/>
	<rect id="XMLID_171_" x="188.1" y="625.4" style="fill:#72695B;" width="108.8" height="0.5"/>
	<rect id="XMLID_168_" x="188.3" y="608.1" style="fill:#C5B496;" width="108.8" height="17.3"/>
	<rect id="XMLID_165_" x="188.3" y="607.6" style="fill:#72695B;" width="108.8" height="0.5"/>
	<rect id="XMLID_162_" x="187.8" y="590.2" style="fill:#C5B496;" width="108.8" height="17.3"/>
	<rect id="XMLID_159_" x="188.4" y="589.7" style="fill:#72695B;" width="108.8" height="0.5"/>
	<rect id="XMLID_156_" x="188.3" y="572.4" style="fill:#C5B496;" width="108.8" height="17.3"/>
	<rect id="XMLID_153_" x="187.1" y="571.8" style="fill:#72695B;" width="108.8" height="0.5"/>
	<rect id="XMLID_150_" x="190.7" y="554.5" style="fill:#C5B496;" width="108.8" height="17.3"/>
	<rect id="XMLID_147_" x="187.6" y="553.9" style="fill:#72695B;" width="108.8" height="0.5"/>
	<rect id="XMLID_41_" x="188.8" y="536.6" style="fill:#C5B496;" width="108.8" height="17.3"/>
	<rect id="XMLID_37_" x="188.8" y="536.1" style="fill:#72695B;" width="108.8" height="0.5"/>
	<rect id="XMLID_34_" x="189.7" y="518.7" style="fill:#C5B496;" width="108.8" height="17.3"/>
	<rect id="XMLID_225_" x="328.9" y="643.9" style="fill:#C5B496;" width="108.8" height="17.3"/>
	<rect id="XMLID_222_" x="326.7" y="643.3" style="fill:#72695B;" width="108.8" height="0.5"/>
	<rect id="XMLID_219_" x="328.9" y="626" style="fill:#C5B496;" width="108.8" height="17.3"/>
	<rect id="XMLID_216_" x="326.7" y="625.4" style="fill:#72695B;" width="108.8" height="0.5"/>
	<rect id="XMLID_213_" x="328.9" y="608.1" style="fill:#C5B496;" width="108.8" height="17.3"/>
	<rect id="XMLID_210_" x="328.1" y="607.6" style="fill:#72695B;" width="108.8" height="0.5"/>
	<rect id="XMLID_207_" x="327.5" y="590.3" style="fill:#C5B496;" width="108.8" height="17.3"/>
	<rect id="XMLID_204_" x="328.1" y="589.7" style="fill:#72695B;" width="108.8" height="0.5"/>
	<rect id="XMLID_201_" x="328.1" y="572.4" style="fill:#C5B496;" width="108.8" height="17.3"/>
	<rect id="XMLID_198_" x="327.5" y="571.8" style="fill:#72695B;" width="108.8" height="0.5"/>
	<rect id="XMLID_195_" x="330" y="554.5" style="fill:#C5B496;" width="108.8" height="17.3"/>
	<rect id="XMLID_192_" x="327.5" y="553.9" style="fill:#72695B;" width="108.8" height="0.5"/>
	<rect id="XMLID_183_" x="327.5" y="536.7" style="fill:#C5B496;" width="108.8" height="17.3"/>
	<rect id="XMLID_57_" x="328.1" y="536.1" style="fill:#72695B;" width="108.8" height="0.5"/>
	<rect id="XMLID_40_" x="328.1" y="518.7" style="fill:#C5B496;" width="108.8" height="17.3"/>
	<rect id="XMLID_270_" x="466" y="643.9" style="fill:#C5B496;" width="108.8" height="17.3"/>
	<rect id="XMLID_267_" x="463.7" y="643.3" style="fill:#72695B;" width="108.8" height="0.5"/>
	<rect id="XMLID_264_" x="466" y="626" style="fill:#C5B496;" width="108.8" height="17.3"/>
	<rect id="XMLID_261_" x="463.7" y="625.5" style="fill:#72695B;" width="108.8" height="0.5"/>
	<rect id="XMLID_258_" x="466" y="608.1" style="fill:#C5B496;" width="108.8" height="17.3"/>
	<rect id="XMLID_255_" x="465.1" y="607.6" style="fill:#72695B;" width="108.8" height="0.5"/>
	<rect id="XMLID_252_" x="464.5" y="590.3" style="fill:#C5B496;" width="108.8" height="17.3"/>
	<rect id="XMLID_249_" x="465.1" y="589.7" style="fill:#72695B;" width="108.8" height="0.5"/>
	<rect id="XMLID_246_" x="465.1" y="572.4" style="fill:#C5B496;" width="108.8" height="17.3"/>
	<rect id="XMLID_243_" x="464.5" y="571.8" style="fill:#72695B;" width="108.8" height="0.5"/>
	<rect id="XMLID_240_" x="467" y="554.5" style="fill:#C5B496;" width="108.8" height="17.3"/>
	<rect id="XMLID_237_" x="464.5" y="553.9" style="fill:#72695B;" width="108.8" height="0.5"/>
	<rect id="XMLID_228_" x="464.5" y="536.7" style="fill:#C5B496;" width="108.8" height="17.3"/>
	<rect id="XMLID_69_" x="465.1" y="536.1" style="fill:#72695B;" width="108.8" height="0.5"/>
	<rect id="XMLID_65_" x="465.1" y="518.8" style="fill:#C5B496;" width="108.8" height="17.3"/>
	<rect id="XMLID_315_" x="605.7" y="643.9" style="fill:#C5B496;" width="108.8" height="17.3"/>
	<rect id="XMLID_312_" x="603.4" y="643.3" style="fill:#72695B;" width="108.8" height="0.5"/>
	<rect id="XMLID_309_" x="605.7" y="626" style="fill:#C5B496;" width="108.8" height="17.3"/>
	<rect id="XMLID_306_" x="603.4" y="625.4" style="fill:#72695B;" width="108.8" height="0.5"/>
	<rect id="XMLID_303_" x="605.7" y="608.1" style="fill:#C5B496;" width="108.8" height="17.3"/>
	<rect id="XMLID_300_" x="604.9" y="607.6" style="fill:#72695B;" width="108.8" height="0.5"/>
	<rect id="XMLID_297_" x="604.3" y="590.2" style="fill:#C5B496;" width="108.8" height="17.3"/>
	<rect id="XMLID_294_" x="604.9" y="589.7" style="fill:#72695B;" width="108.8" height="0.5"/>
	<rect id="XMLID_291_" x="604.9" y="572.3" style="fill:#C5B496;" width="108.8" height="17.3"/>
	<rect id="XMLID_288_" x="604.3" y="571.8" style="fill:#72695B;" width="108.8" height="0.5"/>
	<rect id="XMLID_285_" x="606.8" y="554.5" style="fill:#C5B496;" width="108.8" height="17.3"/>
	<rect id="XMLID_282_" x="604.3" y="553.9" style="fill:#72695B;" width="108.8" height="0.5"/>
	<rect id="XMLID_279_" x="604.3" y="536.6" style="fill:#C5B496;" width="108.8" height="17.3"/>
	<rect id="XMLID_276_" x="604.9" y="536.1" style="fill:#72695B;" width="108.8" height="0.5"/>
	<rect id="XMLID_273_" x="604.9" y="518.7" style="fill:#C5B496;" width="108.8" height="17.3"/>
	<rect id="XMLID_81_" x="290.4" y="518.7" style="fill:#8C7F6F;" width="1.9" height="142.4"/>
	<rect id="XMLID_87_" x="334" y="518.7" style="fill:#8C7F6F;" width="1.9" height="142.4"/>
	<rect id="XMLID_185_" x="430.2" y="518.8" style="fill:#8C7F6F;" width="1.9" height="142.3"/>
	<rect id="XMLID_189_" x="473.2" y="518.8" style="fill:#8C7F6F;" width="1.9" height="142.4"/>
	<rect id="XMLID_327_" x="569.2" y="518.8" style="fill:#8C7F6F;" width="1.9" height="142.4"/>
	<rect id="XMLID_344_" x="613.2" y="518.7" style="fill:#8C7F6F;" width="1.9" height="142.5"/>
	<rect id="XMLID_3_" x="46.1" y="519" style="fill:#8C7F6F;" width="1.9" height="142.2"/>
	<rect id="XMLID_75_" x="151.3" y="519" style="fill:#8C7F6F;" width="1.9" height="142.2"/>
	<rect id="XMLID_76_" x="194.2" y="518.7" style="fill:#8C7F6F;" width="1.9" height="142.3"/>
	<rect id="XMLID_347_" x="708.2" y="518.7" style="fill:#8C7F6F;" width="1.9" height="142.5"/>
	<g id="XMLID_2_">
		<rect id="XMLID_6_" x="4.9" y="518.1" style="fill:#B2A48D;" width="41.6" height="143"/>
		<path id="XMLID_5_" style="fill:#D8C5A9;" d="M4.9,518.1c1.6,1.1,9.3,6.3,21.3,6.1c11.3-0.1,18.6-5,20.3-6.1
			C32.6,518.1,18.7,518.1,4.9,518.1z"/>
		<path id="XMLID_8_" style="fill:#C5B496;" d="M14.5,522.7c0,46.2,0,92.3,0,138.5h22.3c0-46.2,0-92.3,0-138.5
			c-2.2,0.7-5.6,1.4-9.8,1.6C21.4,524.4,17,523.4,14.5,522.7z"/>
	</g>
	<g id="XMLID_4_">
		<rect id="XMLID_12_" x="153" y="518.1" style="fill:#B2A48D;" width="41.6" height="143"/>
		<path id="XMLID_10_" style="fill:#D8C5A9;" d="M153,518.1c1.6,1.1,9.3,6.3,21.3,6.1c11.3-0.1,18.6-5,20.3-6.1
			C180.7,518.1,166.8,518.1,153,518.1z"/>
		<path id="XMLID_9_" style="fill:#C5B496;" d="M162.7,522.7c0,46.2,0,92.3,0,138.5h22.3c0-46.2,0-92.3,0-138.5
			c-2.2,0.7-5.6,1.4-9.8,1.6C169.5,524.4,165.2,523.4,162.7,522.7z"/>
	</g>
	<g id="XMLID_14_">
		<rect id="XMLID_17_" x="292.4" y="518.1" style="fill:#B2A48D;" width="41.6" height="143.2"/>
		<path id="XMLID_16_" style="fill:#D8C5A9;" d="M292.4,518.1c1.6,1.1,9.3,6.3,21.3,6.1c11.3-0.1,18.6-5,20.3-6.1
			C320.1,518.1,306.2,518.1,292.4,518.1z"/>
		<path id="XMLID_15_" style="fill:#C5B496;" d="M302.1,522.7c0,46.2,0,92.4,0,138.6h22.3c0-46.2,0-92.4,0-138.6
			c-2.2,0.7-5.6,1.4-9.8,1.6C308.9,524.4,304.6,523.4,302.1,522.7z"/>
	</g>
	<g id="XMLID_20_">
		<rect id="XMLID_29_" x="431.8" y="517.9" style="fill:#B2A48D;" width="41.6" height="143.3"/>
		<path id="XMLID_26_" style="fill:#D8C5A9;" d="M431.8,517.9c1.6,1.1,9.3,6.3,21.3,6.2c11.3-0.1,18.6-5,20.3-6.2
			C459.5,517.9,445.6,517.9,431.8,517.9z"/>
		<path id="XMLID_23_" style="fill:#C5B496;" d="M441.5,522.4c0,46.2,0,92.5,0,138.7h22.3c0-46.2,0-92.5,0-138.7
			c-2.2,0.7-5.6,1.4-9.8,1.6C448.3,524.2,444,523.2,441.5,522.4z"/>
	</g>
	<g id="XMLID_30_">
		<rect id="XMLID_33_" x="571.2" y="517.9" style="fill:#B2A48D;" width="41.6" height="143.3"/>
		<path id="XMLID_32_" style="fill:#D8C5A9;" d="M571.2,517.9c1.6,1.1,9.3,6.3,21.3,6.2c11.3-0.1,18.6-5,20.3-6.2
			C598.9,517.9,585,517.9,571.2,517.9z"/>
		<path id="XMLID_31_" style="fill:#C5B496;" d="M580.9,522.4c0,46.2,0,92.5,0,138.7h22.3c0-46.2,0-92.5,0-138.7
			c-2.2,0.7-5.6,1.4-9.8,1.6C587.7,524.2,583.4,523.2,580.9,522.4z"/>
	</g>
	<g id="XMLID_56_">
		<rect id="XMLID_64_" x="710.6" y="517.7" style="fill:#B2A48D;" width="41.6" height="143.5"/>
		<path id="XMLID_63_" style="fill:#D8C5A9;" d="M710.6,517.7c1.6,1.1,9.3,6.3,21.3,6.2c11.3-0.1,18.6-5,20.3-6.2
			C738.3,517.7,724.4,517.7,710.6,517.7z"/>
		<path id="XMLID_62_" style="fill:#C5B496;" d="M720.3,522.3c0,46.3,0,92.6,0,138.9h22.3c0-46.3,0-92.6,0-138.9
			c-2.2,0.7-5.6,1.4-9.8,1.6C727.1,524,722.7,523,720.3,522.3z"/>
	</g>
</g>
</svg>
