<?xml version="1.0" encoding="utf-8"?>
<!-- Generator: Adobe Illustrator 19.0.0, SVG Export Plug-In . SVG Version: 6.00 Build 0)  -->
<svg version="1.1" id="slider-grass" xmlns="http://www.w3.org/2000/svg" xmlns:xlink="http://www.w3.org/1999/xlink" x="0px"
	 y="0px" viewBox="0 0 703.3 74.7" style="enable-background:new 0 0 703.3 74.7;" xml:space="preserve">
<g id="XMLID_1449_">
	<path id="XMLID_2237_" style="fill:#4EA017;" d="M122.1,50.5c-0.3-4-0.6-7.8-0.7-11.5c-0.1-3.6-0.1-7,0.1-9.9
		c0.2-2.9,0.6-5.3,0.9-7c0.1-0.8,0.3-1.5,0.4-2c0.1-0.5,0.2-0.7,0.2-0.7s-0.1,0.2-0.4,0.6c-0.2,0.4-0.6,1-1,1.8
		c-0.8,1.5-1.9,3.8-3,6.6c-1.1,2.8-2.1,6.2-3.1,9.9c-0.8,3-1.5,6.3-2.3,9.5c-0.1-3.5-0.2-6.7,0.1-9.4c0.2-2.2,0.6-4,0.9-5.3
		c0.2-0.6,0.3-1.1,0.4-1.5c0.1-0.3,0.2-0.5,0.2-0.5s-0.1,0.1-0.3,0.4c-0.2,0.3-0.6,0.7-1,1.2c-0.8,1.1-1.9,2.7-3,4.8
		c-1.1,2.1-2.2,4.6-3.2,7.3c-0.5,1.2-0.9,2.5-1.3,3.7c-0.1-6.6-0.1-13.1,0-18c0.1-2.7,0.5-5,1-6.5c0.2-0.8,0.5-1.4,0.7-1.8
		c0.2-0.4,0.3-0.6,0.3-0.6s-0.2,0.2-0.5,0.5c-0.3,0.3-0.7,0.8-1.2,1.5c-1,1.4-2.1,3.6-3.1,6.3c-0.7,1.9-1.4,4.1-2.1,6.4
		C98,26.4,93.4,17.4,89.8,10.7c-1.9-3.5-3.5-6.4-4.7-8.5c-0.6-1.1-1.3-1.8-1.9-2.1c-0.6-0.2-1-0.1-1-0.1c0,0,0.4-0.1,0.9,0.3
		c0.5,0.3,1,1.1,1.3,2.2c0.7,2.2,1.6,5.4,2.7,9.3c2.2,7.7,4.8,18,5.4,28.1c0.3,5,0.1,10-0.8,14.4c-0.3,1.7-0.7,3.3-1.1,4.8
		c-0.1-0.6-0.2-1.3-0.3-1.9c-0.6-3.2-1.3-6.3-1.8-9.1c-0.5-2.8-0.8-5.4-0.8-7.7c0-2.3,0.3-4.2,0.6-5.5c0.3-1.3,0.6-2.1,0.6-2.1
		s-0.5,0.6-1.3,1.8c-0.8,1.2-1.8,3-2.7,5.3c-0.9,2.3-1.6,5.2-2.2,8.2c-0.1,0.7-0.3,1.5-0.4,2.3c-0.6-3.1-1.1-6.2-1.5-9.1
		c-0.4-3.1-0.7-6-0.7-8.4c0-0.6,0-1.2,0-1.8c0-0.6,0-1.1,0.1-1.6c0-1,0.1-1.9,0.2-2.6c0.2-1.5,0.3-2.3,0.3-2.3s-0.4,0.8-1,2.1
		c-0.4,0.7-0.7,1.5-1.1,2.5c-0.2,0.5-0.4,1-0.6,1.6c-0.2,0.6-0.4,1.2-0.6,1.8c-0.9,2.5-1.6,5.4-2.3,8.7c-0.7,3.2-1.2,6.6-1.8,10
		c-0.2,1.3-0.4,2.6-0.6,3.9c-0.2-1.7-0.5-3.5-0.7-5.3c-1-7.7-1.9-15.4-2.5-21.2c-0.6-5.8-1-9.7-1-9.7s-0.8,3.8-1.9,9.5
		c-1.1,5.7-2.6,13.4-3.9,21.1c0,0,0,0,0,0c-0.6-2.2-1.2-4.4-1.8-6.6c-1-3.8-2.1-7.6-2.9-11.1c-0.8-3.5-1.4-6.9-1.8-9.8
		c-0.3-2.9-0.5-5.3-0.5-7.1c0-0.9,0-1.5,0-2c0-0.5,0-0.7,0-0.7s-0.1,0.2-0.2,0.7c-0.1,0.4-0.4,1.1-0.6,1.9c-0.5,1.7-1.1,4.1-1.6,7.1
		c-0.5,3-0.9,6.5-1.2,10.3c-0.2,2.2-0.3,4.5-0.3,6.9c-1.2-2.1-2.5-4-3.5-5.6c-1.4-2.2-2.4-4-3-5.4c-0.6-1.4-0.9-2.2-0.9-2.2
		s0,0.9,0.2,2.4c0.1,1.5,0.5,3.7,1.1,6.3c0.6,2.6,1.3,5.5,1.8,8.6c0.5,3.1,0.8,6.4,0.9,9.6c0.2,6.5-0.7,12.8-1.8,17.4
		c-0.4,1.8-0.9,3.4-1.3,4.6h78.7C123.4,68.4,122.7,59.5,122.1,50.5z"/>
	<path id="XMLID_2238_" style="fill:#78BB3B;" d="M399.8,73.7c-0.5-2.4-1-5.1-1.6-8.1c-0.6-2.9-1.2-5.9-1.6-8.8
		c-0.8-5.7-0.3-11.9,0.4-16.6c0.3-2.4,0.7-4.3,0.9-5.7c0.2-1.4,0.4-2.2,0.4-2.2s-0.4,0.7-1.2,1.8c-0.8,1.2-1.9,2.8-3.2,4.9
		c-0.4,0.6-0.8,1.3-1.2,1.9c-0.4-2.4-0.9-4.3-1.2-5.6c-0.4-1.4-0.6-2.2-0.6-2.2s-0.1,0.8-0.4,2.2c-0.2,1.4-0.6,3.4-1.1,5.7
		c-0.6,2.3-1.4,4.8-2.7,7.3c-1.3,2.4-3,4.9-4.9,7.2c-0.9,1.1-1.8,2.2-2.8,3.3c0.1-1.6,0.2-3.2,0.3-4.8c0.3-3.5,0.9-6.9,1.6-10.4
		c0.6-3.4,1.2-6.8,1.4-9.6c0.2-2.9,0-5.3-0.3-6.9c-0.1-0.8-0.3-1.4-0.4-1.9c-0.1-0.4-0.2-0.6-0.2-0.6s0,0.2-0.1,0.7
		c0,0.4-0.1,1.1-0.3,1.8c-0.3,1.6-0.9,3.7-2,6.1c-1.1,2.4-2.6,5.1-4.4,8c-0.5,0.8-1,1.6-1.5,2.4c0.2-4.3,0.4-8.5,0.5-11.9
		c0.1-1.4,0.1-2.7,0.1-3.8c0-1.1,0-2.1,0-3c0-1.6,0-2.6,0-2.6s-0.3,0.9-0.9,2.4c-0.3,0.8-0.6,1.7-1,2.7c-0.4,1.1-0.9,2.2-1.4,3.5
		c-1.6,4-3.8,9-6.1,14.3c-0.6-3.2-1.2-6.3-1.7-9.3c-0.6-3.9-1.1-7.6-1.4-10.8c-0.1-0.8-0.1-1.6-0.2-2.3c0-0.7-0.1-1.4-0.1-2.1
		c-0.1-1.3-0.1-2.5-0.1-3.4c0-1.9,0-3,0-3s-0.3,1-0.9,2.8c-0.3,0.9-0.6,2-0.9,3.3c-0.2,0.6-0.3,1.3-0.5,2.1
		c-0.2,0.7-0.3,1.5-0.5,2.3c-0.7,3.2-1.4,7-2,11.1c-0.4,2.7-0.7,5.5-1.1,8.3c-0.3-0.7-0.6-1.4-0.9-2.1c-1.2-3-2-5.9-2.4-8.5
		c-0.4-2.6-0.3-4.8-0.1-6.4c0.1-0.8,0.2-1.4,0.3-1.8c0.1-0.4,0.2-0.6,0.2-0.6s-0.1,0.2-0.4,0.5c-0.3,0.4-0.6,0.9-1,1.6
		c-0.8,1.4-1.8,3.6-2.4,6.5c-0.6,2.8-1,6.3-0.9,9.9c0,0.6,0,1.1,0.1,1.7c-0.4-0.8-0.7-1.6-1.1-2.3c-0.9-1.8-1.9-3.6-3-5.2
		c-2.1-3.2-4.5-5.9-6.7-7.9c-2.2-2-4.3-3.4-5.7-4.2c-0.7-0.5-1.3-0.7-1.7-0.9c-0.4-0.2-0.6-0.3-0.6-0.3s0.2,0.2,0.5,0.5
		c0.3,0.3,0.8,0.8,1.3,1.4c1.1,1.3,2.4,3.2,3.7,5.6c1.3,2.4,2.4,5.4,3.2,8.6c0.8,3.2,1.2,6.7,1.2,10.2c0.1,7-1.4,13.9-2.7,19
		c-0.5,1.8-0.9,3.3-1.3,4.6H400C399.9,74.2,399.9,74,399.8,73.7z"/>
	<path id="XMLID_2213_" style="fill:#31850D;" d="M250.7,46.7c-1.2-17.8-1.4-35.7-1.4-35.7s-5.1,17.2-9.2,34.8
		c-0.3,1.3-0.6,2.5-0.9,3.8c-0.3-7.7-0.9-15-1.5-20.7c-0.4-3.5-0.7-6.3-1-8.4c-0.3-2-0.4-3.2-0.4-3.2s-0.2,1.1-0.5,3.1
		c-0.3,2-0.8,4.8-1.4,8.2c-1.2,6.4-2.9,14.7-5.1,23c0-0.2-0.1-0.4-0.1-0.5c-2.7-15.4-4.3-31.1-4.3-31.1s-2.3,9.4-4.5,21.1l-2.5-38.1
		L208.4,53c-0.1-0.6-0.2-1.2-0.3-1.7c-1.4-7.2-1.9-14.9-2.1-20.7c-0.1-2.9-0.2-5.3-0.3-7c-0.1-1.7,0.4-2.5,0.4-2.5s-0.2,0.2-0.4,0.6
		c-0.3,0.4-0.6,1-0.8,1.9c-0.5,1.6-1.2,3.9-2.1,6.7c-1.3,4.5-3,10.2-4.3,16.5c-1.8-9.4-3.5-16.6-3.5-16.6s-1.4,10-3.6,21.3
		c-0.3-1.6-0.5-3.1-0.8-4.7c-0.8-4.6-1.4-9.2-1.7-13.5c-0.3-4.3-0.2-8.3,0.3-11.7c0.5-3.4,1.3-6.2,2.1-8.1c0.3-1,0.7-1.7,0.9-2.2
		c0.2-0.5,0.4-0.8,0.4-0.8s-0.2,0.2-0.6,0.6c-0.4,0.4-0.9,1-1.5,1.9c-1.3,1.7-2.9,4.3-4.4,7.7c-1.5,3.4-2.8,7.6-3.8,12.1
		c-0.5,2.5-1,5-1.3,7.6c-0.6-1.6-1.3-3.2-1.9-4.7c-1.6-3.7-3.2-7.1-4.8-9.9c-0.7-1.4-1.5-2.7-2.1-3.8c-0.6-1.1-1.2-2.1-1.7-2.9
		c-1-1.6-1.5-2.5-1.5-2.5s0.2,1,0.7,2.8c0.2,0.9,0.5,2,0.7,3.2c0.3,1.2,0.5,2.7,0.8,4.2c0.6,3.1,1,6.7,1.4,10.5
		c0.4,3.9,0.5,7.9,0.6,12c0,4.1-0.2,8.1-0.5,11.8c-0.4,3.7-0.8,7.2-1.3,10.1c-0.2,1.2-0.4,2.3-0.6,3.3H253
		C252.3,67.8,251.3,57.2,250.7,46.7z"/>
	<path id="XMLID_2260_" style="fill:#31850D;" d="M682.7,46.7c-1.2-17.8-1.4-35.7-1.4-35.7s-5.1,17.2-9.2,34.8
		c-0.3,1.3-0.6,2.5-0.9,3.8c-0.3-7.7-0.9-15-1.5-20.7c-0.4-3.5-0.7-6.3-1-8.4c-0.3-2-0.4-3.2-0.4-3.2s-0.2,1.1-0.5,3.1
		c-0.3,2-0.8,4.8-1.4,8.2c-1.2,6.4-2.9,14.7-5.1,23c0-0.2-0.1-0.4-0.1-0.5c-2.7-15.4-4.3-31.1-4.3-31.1s-2.3,9.4-4.5,21.1L650,3.2
		L640.4,53c-0.1-0.6-0.2-1.2-0.3-1.7c-1.4-7.2-1.9-14.9-2.1-20.7c-0.1-2.9-0.2-5.3-0.3-7c-0.1-1.7,0.4-2.5,0.4-2.5s-0.2,0.2-0.4,0.6
		c-0.3,0.4-0.6,1-0.8,1.9c-0.5,1.6-1.2,3.9-2.1,6.7c-1.3,4.5-3,10.2-4.3,16.5c-1.8-9.4-3.5-16.6-3.5-16.6s-1.4,10-3.6,21.3
		c-0.3-1.6-0.5-3.1-0.8-4.7c-0.8-4.6-1.4-9.2-1.7-13.5c-0.3-4.3-0.2-8.3,0.3-11.7c0.5-3.4,1.3-6.2,2.1-8.1c0.3-1,0.7-1.7,0.9-2.2
		c0.2-0.5,0.4-0.8,0.4-0.8s-0.2,0.2-0.6,0.6c-0.4,0.4-0.9,1-1.5,1.9c-1.3,1.7-2.9,4.3-4.4,7.7c-1.5,3.4-2.8,7.6-3.8,12.1
		c-0.5,2.5-1,5-1.3,7.6c-0.6-1.6-1.3-3.2-1.9-4.7c-1.6-3.7-3.2-7.1-4.8-9.9c-0.7-1.4-1.5-2.7-2.1-3.8c-0.6-1.1-1.2-2.1-1.7-2.9
		c-1-1.6-1.5-2.5-1.5-2.5s0.2,1,0.7,2.8c0.2,0.9,0.5,2,0.7,3.2c0.3,1.2,0.5,2.7,0.8,4.2c0.6,3.1,1,6.7,1.4,10.5
		c0.4,3.9,0.5,7.9,0.6,12c0,4.1-0.2,8.1-0.5,11.8c-0.4,3.7-0.8,7.2-1.3,10.1c-0.2,1.2-0.4,2.3-0.6,3.3h82.7
		C684.4,67.8,683.4,57.2,682.7,46.7z"/>
	<path id="XMLID_2221_" style="fill:#4EA017;" d="M354,50.5c-0.3-4-0.6-7.8-0.7-11.5c-0.1-3.6-0.1-7,0.1-9.9c0.2-2.9,0.6-5.3,0.9-7
		c0.1-0.8,0.3-1.5,0.4-2c0.1-0.5,0.2-0.7,0.2-0.7s-0.1,0.2-0.4,0.6c-0.2,0.4-0.6,1-1,1.8c-0.8,1.5-1.9,3.8-3,6.6
		c-1.1,2.8-2.1,6.2-3.1,9.9c-0.8,3-1.5,6.3-2.3,9.5c-0.1-3.5-0.2-6.7,0.1-9.4c0.2-2.2,0.6-4,0.9-5.3c0.2-0.6,0.3-1.1,0.4-1.5
		c0.1-0.3,0.2-0.5,0.2-0.5s-0.1,0.1-0.3,0.4c-0.2,0.3-0.6,0.7-1,1.2c-0.8,1.1-1.9,2.7-3,4.8c-1.1,2.1-2.2,4.6-3.2,7.3
		c-0.5,1.2-0.9,2.5-1.3,3.7c-0.1-6.6-0.1-13.1,0-18c0.1-2.7,0.5-5,1-6.5c0.2-0.8,0.5-1.4,0.7-1.8c0.2-0.4,0.3-0.6,0.3-0.6
		s-0.2,0.2-0.5,0.5c-0.3,0.3-0.7,0.8-1.2,1.5c-1,1.4-2.1,3.6-3.1,6.3c-0.7,1.9-1.4,4.1-2.1,6.4c-3.1-10.1-7.8-19.1-11.3-25.8
		c-1.9-3.5-3.5-6.4-4.7-8.5c-0.6-1.1-1.3-1.8-1.9-2.1c-0.6-0.2-1-0.1-1-0.1c0,0,0.4-0.1,0.9,0.3c0.5,0.3,1,1.1,1.3,2.2
		c0.7,2.2,1.6,5.4,2.7,9.3c2.2,7.7,4.8,18,5.4,28.1c0.3,5,0.1,10-0.8,14.4c-0.3,1.7-0.7,3.3-1.1,4.8c-0.1-0.6-0.2-1.3-0.3-1.9
		c-0.6-3.2-1.3-6.3-1.8-9.1c-0.5-2.8-0.8-5.4-0.8-7.7c0-2.3,0.3-4.2,0.6-5.5c0.3-1.3,0.6-2.1,0.6-2.1s-0.5,0.6-1.3,1.8
		c-0.8,1.2-1.8,3-2.7,5.3c-0.9,2.3-1.6,5.2-2.2,8.2c-0.1,0.7-0.3,1.5-0.4,2.3c-0.6-3.1-1.1-6.2-1.5-9.1c-0.4-3.1-0.7-6-0.7-8.4
		c0-0.6,0-1.2,0-1.8c0-0.6,0-1.1,0.1-1.6c0-1,0.1-1.9,0.2-2.6c0.2-1.5,0.3-2.3,0.3-2.3s-0.4,0.8-1,2.1c-0.4,0.7-0.7,1.5-1.1,2.5
		c-0.2,0.5-0.4,1-0.6,1.6c-0.2,0.6-0.4,1.2-0.6,1.8c-0.9,2.5-1.6,5.4-2.3,8.7c-0.7,3.2-1.2,6.6-1.8,10c-0.2,1.3-0.4,2.6-0.6,3.9
		c-0.2-1.7-0.5-3.5-0.7-5.3c-1-7.7-1.9-15.4-2.5-21.2c-0.6-5.8-1-9.7-1-9.7s-0.8,3.8-1.9,9.5c-1.1,5.7-2.6,13.4-3.9,21.1
		c0,0,0,0,0,0c-0.6-2.2-1.2-4.4-1.8-6.6c-1-3.8-2.1-7.6-2.9-11.1c-0.8-3.5-1.4-6.9-1.8-9.8c-0.4-2.9-0.5-5.3-0.5-7.1
		c0-0.9,0-1.5,0-2c0-0.5,0-0.7,0-0.7s-0.1,0.2-0.2,0.7c-0.1,0.4-0.4,1.1-0.6,1.9c-0.5,1.7-1.1,4.1-1.6,7.1c-0.5,3-0.9,6.5-1.2,10.3
		c-0.2,2.2-0.3,4.5-0.3,6.9c-1.2-2.1-2.5-4-3.5-5.6c-1.4-2.2-2.4-4-3-5.4c-0.6-1.4-0.9-2.2-0.9-2.2s0,0.9,0.2,2.4
		c0.1,1.5,0.5,3.7,1.1,6.3c0.6,2.6,1.3,5.5,1.8,8.6c0.5,3.1,0.8,6.4,0.9,9.6c0.2,6.5-0.7,12.8-1.8,17.4c-0.4,1.8-0.9,3.4-1.3,4.6
		h78.7C355.3,68.4,354.6,59.5,354,50.5z"/>
	<path id="XMLID_2222_" style="fill:#31850D;" d="M442.3,72c-0.2-3.2-0.6-6.7-1.2-10.3c-0.6-3.5-1.2-7.1-1.8-10.8
		c-0.6-3.5-0.9-7.1-1-10.4c0-3.3,0.3-6.4,0.9-9c0.6-2.6,1.4-4.8,2.2-6.2c0.3-0.7,0.7-1.3,0.9-1.7c0.2-0.4,0.3-0.6,0.3-0.6
		s-0.2,0.2-0.5,0.4c-0.3,0.3-0.9,0.7-1.4,1.3c-1.2,1.1-2.9,3-4.5,5.4c-1.6,2.5-3.2,5.6-4.4,9.2c-0.4,1.1-0.7,2.2-1.1,3.3
		c-0.4-2.4-0.8-4.8-1.2-7.1c-0.6-3.9-1.1-7.5-1.4-10.6c-0.3-3.1-0.3-5.7-0.2-7.6c0-0.9,0.1-1.6,0.1-2.1c0-0.5,0.1-0.8,0.1-0.8
		s-0.1,0.2-0.3,0.7c-0.2,0.5-0.5,1.1-0.8,2c-0.6,1.8-1.4,4.3-2.2,7.5c-0.7,3.2-1.4,6.9-2,10.9c-0.6,4-1.2,8.2-1.9,12.2
		c-0.5,2.7-1.1,5.3-1.8,7.8l-2.5-24.8l-3.8,10.7c0-0.4-0.1-0.8-0.1-1.3c-1.9-18.2-3.8-36.4-3.8-36.4s-2.7,14.2-5.7,30l-1.9-8.8
		l-4.2,24.3c-2.1-7.5-5.3-14.3-8.2-19.1c-1.4-2.4-2.7-4.3-3.7-5.6c-1-1.3-1.5-2-1.5-2s0.2,0.9,0.7,2.4c0.4,1.5,0.9,3.8,1.4,6.4
		c1,5.3,1.4,12.4,0.8,19.3c0,0.2-0.1,0.5-0.1,0.7c-0.2-0.4-0.5-0.9-0.7-1.3c-1.3-2.3-2.5-4.4-3.7-6.1c-0.6-0.9-1.1-1.6-1.6-2.3
		c-0.5-0.7-0.9-1.3-1.3-1.7c-0.7-0.9-1.1-1.5-1.1-1.5s0.1,0.7,0.3,1.8c0.1,0.6,0.2,1.3,0.3,2.1c0.1,0.8,0.2,1.7,0.3,2.7
		c0.2,2,0.3,4.3,0.4,6.7c0,2.4-0.1,5-0.3,7.5c-0.2,2.5-0.6,5-1,7.3c-0.5,2.3-1,4.4-1.5,6.1c-0.2,0.6-0.3,1.2-0.5,1.7h66.3
		C442.4,73.7,442.3,72.9,442.3,72z"/>
	<path id="XMLID_2239_" style="fill:#31850D;" d="M578.9,72c-0.2-3.2-0.6-6.7-1.2-10.3c-0.6-3.5-1.2-7.1-1.8-10.8
		c-0.6-3.5-0.9-7.1-1-10.4c0-3.3,0.3-6.4,0.9-9c0.6-2.6,1.4-4.8,2.2-6.2c0.3-0.7,0.7-1.3,0.9-1.7c0.2-0.4,0.3-0.6,0.3-0.6
		s-0.2,0.2-0.5,0.4c-0.3,0.3-0.9,0.7-1.4,1.3c-1.2,1.1-2.9,3-4.5,5.4c-1.6,2.5-3.2,5.6-4.4,9.2c-0.4,1.1-0.7,2.2-1.1,3.3
		c-0.4-2.4-0.8-4.8-1.2-7.1c-0.6-3.9-1.1-7.5-1.4-10.6c-0.3-3.1-0.3-5.7-0.2-7.6c0-0.9,0.1-1.6,0.1-2.1c0-0.5,0.1-0.8,0.1-0.8
		s-0.1,0.2-0.3,0.7c-0.2,0.5-0.5,1.1-0.8,2c-0.6,1.8-1.4,4.3-2.2,7.5c-0.7,3.2-1.4,6.9-2,10.9c-0.6,4-1.2,8.2-1.9,12.2
		c-0.5,2.7-1.1,5.3-1.8,7.8l-2.5-24.8l-3.8,10.7c0-0.4-0.1-0.8-0.1-1.3c-1.9-18.2-3.8-36.4-3.8-36.4s-2.7,14.2-5.7,30l-1.9-8.8
		l-4.2,24.3c-2.1-7.5-5.3-14.3-8.2-19.1c-1.4-2.4-2.7-4.3-3.7-5.6c-1-1.3-1.5-2-1.5-2s0.2,0.9,0.7,2.4c0.4,1.5,0.9,3.8,1.4,6.4
		c1,5.3,1.4,12.4,0.8,19.3c0,0.2-0.1,0.5-0.1,0.7c-0.2-0.4-0.5-0.9-0.7-1.3c-1.3-2.3-2.5-4.4-3.7-6.1c-0.6-0.9-1.1-1.6-1.6-2.3
		c-0.5-0.7-0.9-1.3-1.3-1.7c-0.7-0.9-1.1-1.5-1.1-1.5s0.1,0.7,0.3,1.8c0.1,0.6,0.2,1.3,0.3,2.1c0.1,0.8,0.2,1.7,0.3,2.7
		c0.2,2,0.3,4.3,0.4,6.7c0,2.4-0.1,5-0.3,7.5c-0.2,2.5-0.6,5-1,7.3c-0.5,2.3-1,4.4-1.5,6.1c-0.2,0.6-0.3,1.2-0.5,1.7H579
		C579,73.7,579,72.9,578.9,72z"/>
	<path id="XMLID_2223_" style="fill:#78BB3B;" d="M536.7,72.2c-0.8-4.4-1.7-10.2-1.4-15.9c0.1-2.9,0.6-5.7,1.3-8.3
		c0.4-1.3,0.9-2.5,1.4-3.7c0.5-1.1,1.1-2.2,1.7-3.1c1.2-1.9,2.5-3.3,3.4-4.2c0.2-0.2,0.5-0.4,0.6-0.6c0.2-0.2,0.4-0.3,0.5-0.4
		c0.3-0.2,0.4-0.4,0.4-0.4s-0.2,0.1-0.5,0.2c-0.2,0.1-0.4,0.2-0.6,0.3c-0.2,0.1-0.5,0.3-0.8,0.4c-1.2,0.7-2.8,1.8-4.5,3.4
		c-0.8,0.8-1.7,1.8-2.6,2.9c-0.7,1-1.5,2-2.1,3.1c0-1.9,0-3.8,0-5.6c0.1-3.2,0.4-6.1,0.8-8.6c0.4-2.5,1-4.5,1.5-6
		c0.2-0.7,0.5-1.2,0.6-1.6c0.2-0.4,0.2-0.6,0.2-0.6s-0.1,0.2-0.3,0.5c-0.2,0.3-0.6,0.8-1,1.5c-0.8,1.3-1.8,3.2-2.8,5.7
		c-1,2.4-1.9,5.4-2.7,8.6c-0.6,2.4-1.1,4.9-1.6,7.4l-1.9-10.3l-3.6,17.4c-0.4-2.2-0.7-4.3-1-6.3c-0.3-2.9-0.5-5.6-0.4-8
		c0-0.6,0-1.2,0.1-1.7c0.1-0.5,0.1-1,0.2-1.5c0.1-0.5,0.1-0.9,0.2-1.4c0.1-0.4,0.2-0.8,0.2-1.1c0.3-1.4,0.5-2.2,0.5-2.2
		s-0.4,0.7-1.2,1.9c-0.2,0.3-0.4,0.6-0.6,1c-0.2,0.4-0.4,0.8-0.6,1.3c-0.2,0.5-0.5,0.9-0.7,1.5c-0.2,0.5-0.4,1.1-0.7,1.7
		c-0.7,1.6-1.2,3.5-1.7,5.5c-0.2-1.9-0.4-3.7-0.7-5.5c-0.4-3.5-0.8-6.7-1-9.4c-0.2-2.8-0.3-5.1-0.3-6.7c0-1.6,0-2.6,0-2.6
		s-0.3,0.9-0.8,2.5c-0.4,1.6-1.1,3.9-1.7,6.6c-0.6,2.8-1.2,6-1.8,9.5c-0.6,3.5-1.2,7.2-1.9,10.7c-0.3,1.4-0.6,2.8-0.9,4.2
		c-0.1-0.6-0.2-1.1-0.2-1.7c-0.5-3.6-0.8-7.2-1.1-10.6c-0.2-3.4-0.3-6.5-0.3-9.3c0.1-2.7,0.2-5,0.4-6.6c0.2-1.6,0.3-2.5,0.3-2.5
		s-0.3,0.9-0.8,2.4c-0.5,1.5-1.1,3.8-1.7,6.5c-0.4,1.8-0.8,3.7-1.1,5.8c-0.1-0.7-0.2-1.3-0.3-1.9c-0.4-2.5-0.9-4.6-1.2-6
		c-0.3-1.4-0.5-2.3-0.5-2.3s-0.1,0.8-0.2,2.3c-0.2,1.5-0.4,3.5-0.8,6c-0.6,4.1-1.6,9.4-2.8,14.8c-0.2-1.1-0.3-2.1-0.5-3.2
		c-0.4-3-0.6-6-0.7-8.9c-0.1-2.9-0.1-5.6,0.1-7.9c0-0.6,0.1-1.1,0.1-1.7c0-0.5,0.1-1,0.1-1.5c0.1-0.9,0.1-1.8,0.2-2.5
		c0.2-1.4,0.2-2.1,0.2-2.1s-0.3,0.7-1,1.9c-0.3,0.6-0.7,1.4-1.1,2.3c-0.2,0.4-0.4,0.9-0.6,1.4c-0.2,0.5-0.4,1-0.7,1.6
		c-0.9,2.2-1.9,4.8-2.8,7.7c-0.8,2.4-1.5,4.9-2.1,7.5c-1.2-3-2.1-6-2.6-8.8c-0.6-3.2-0.5-6.2-0.1-8.8c0.4-2.6,1.3-4.7,2-6.1
		c0.4-0.7,0.7-1.2,1-1.6c0.2-0.4,0.4-0.6,0.4-0.6s-0.2,0.1-0.5,0.4c-0.4,0.3-0.8,0.7-1.4,1.3c-1.2,1.2-2.7,3.1-4,5.7
		c-1.3,2.6-2.3,6-2.8,9.7c-0.3,2.6-0.4,5.3-0.2,7.9c-1.4-1.8-2.8-3.4-4.2-4.8c-1.7-1.7-3.4-2.9-4.6-3.7c-0.6-0.4-1.1-0.6-1.4-0.8
		c-0.3-0.2-0.5-0.2-0.5-0.2s0.1,0.1,0.4,0.4c0.3,0.3,0.6,0.7,1,1.2c0.9,1,1.9,2.6,2.9,4.7c1,2,1.9,4.5,2.8,7.3
		c0.9,2.8,1.9,5.8,2.6,8.6c1.5,5.7,1.7,11.3,1.3,15.3c0,0.4-0.1,0.8-0.1,1.1h56.1C537.1,73.9,536.9,73.1,536.7,72.2z"/>
	<path id="XMLID_2218_" style="fill:#4EA017;" d="M60.6,68.4c-0.5-2.7-0.9-5.7-1.3-9c-0.3-3.3-0.5-6.7-0.3-10.3
		c0.2-3.7,0.5-7.5,0.6-11.1c0.2-3.6,0.1-7.1-0.2-10.1c-0.3-2.9-0.9-5.3-1.4-6.9c-0.2-0.8-0.5-1.4-0.7-1.8c-0.2-0.4-0.2-0.6-0.2-0.6
		s0,0.2,0,0.7c0,0.4,0.1,1.1,0,1.9c0,1.6-0.3,3.9-0.9,6.6c-0.6,2.7-1.6,5.7-2.9,8.9c-0.3,0.8-0.7,1.6-1,2.5
		c-0.3-2.5-0.7-4.8-1.1-6.8c-0.6-2.6-1.4-4.8-2-6.2c-0.3-0.7-0.6-1.3-0.7-1.6c-0.2-0.4-0.3-0.6-0.3-0.6s0,0.2,0,0.6
		c0,0.4,0.1,1,0.1,1.8c0,1.5,0,3.7-0.4,6.2c-0.3,2.5-1,5.4-1.9,8.4c-0.9,3-2.1,6.2-3.3,9.3c-0.6,1.5-1.2,3-1.9,4.5
		c-0.1-1.4-0.1-2.9-0.1-4.3c0-7.5,0.3-15.2,0.2-21c0-1.4,0-2.8-0.1-3.9c0-1.2-0.1-2.2-0.1-3c-0.1-1.7-0.2-2.6-0.2-2.6
		s-0.3,0.9-0.7,2.5c-0.2,0.8-0.5,1.8-0.9,2.9c-0.3,1.1-0.7,2.3-1.2,3.7c-1.8,5.4-4.5,12.4-7.1,19.8c-1,3.1-2,6.2-2.8,9.3
		c-0.1-2.6-0.2-5.3-0.3-8c-0.1-3.8-0.2-7.4,0.3-10.7c0.5-3.4,1.4-6.6,2.3-9.3c0.9-2.7,1.8-5,2.4-6.6c0.6-1.6,1-2.5,1-2.5
		s-0.6,0.7-1.8,2c-1.1,1.3-2.7,3.2-4.5,5.6c-1.8,2.4-3.8,5.3-5.6,8.8c-0.9,1.7-1.7,3.7-2.4,5.6c-0.2,0.4-0.3,0.8-0.4,1.3
		c-0.1-0.6-0.1-1.3-0.2-1.9c-0.3-3-0.5-5.7-0.5-8.1c-0.1-1.2-0.1-2.3-0.1-3.3c0-1,0-1.8,0-2.5c0-1.4,0-2.2,0-2.2s-0.3,0.7-0.9,2
		c-0.3,0.6-0.6,1.4-1,2.4c-0.4,0.9-0.8,2-1.2,3.1c-0.9,2.3-1.8,5-2.7,7.9c0,0.1,0,0.2-0.1,0.2c-0.8-2-1.6-3.9-2.5-5.7
		c-1.6-3.4-3.2-6.4-4.7-8.9c-0.4-0.6-0.7-1.2-1.1-1.8c-0.4-0.6-0.7-1.1-1-1.6c-0.6-1-1.2-1.9-1.7-2.6C0.5,19.7,0,18.9,0,18.9
		s0.3,0.9,0.7,2.6c0.2,0.8,0.5,1.8,0.7,2.9c0.1,0.6,0.3,1.2,0.4,1.8c0.1,0.6,0.3,1.3,0.4,2c0.6,2.8,1.1,6.1,1.5,9.6
		c0.4,3.5,0.6,7.2,0.7,10.9c0,3.7-0.1,7.4-0.4,10.8c-0.3,3.4-0.7,6.5-1.2,9.2c-0.1,0.7-0.2,1.3-0.3,1.9c-0.1,0.6-0.2,1.2-0.4,1.7
		c-0.2,0.8-0.3,1.6-0.5,2.2h60C61.4,72.9,61,70.8,60.6,68.4z"/>
	<path id="XMLID_2236_" style="fill:#4EA017;" d="M192.5,68.4c-0.5-2.7-0.9-5.7-1.3-9c-0.3-3.3-0.5-6.7-0.3-10.3
		c0.2-3.7,0.5-7.5,0.6-11.1c0.2-3.6,0.1-7.1-0.2-10.1c-0.3-2.9-0.9-5.3-1.4-6.9c-0.2-0.8-0.5-1.4-0.7-1.8c-0.2-0.4-0.2-0.6-0.2-0.6
		s0,0.2,0,0.7c0,0.4,0.1,1.1,0,1.9c0,1.6-0.3,3.9-0.9,6.6c-0.6,2.7-1.6,5.7-2.9,8.9c-0.3,0.8-0.7,1.6-1,2.5
		c-0.3-2.5-0.7-4.8-1.1-6.8c-0.6-2.6-1.4-4.8-2-6.2c-0.3-0.7-0.6-1.3-0.7-1.6c-0.2-0.4-0.3-0.6-0.3-0.6s0,0.2,0,0.6
		c0,0.4,0.1,1,0.1,1.8c0,1.5,0,3.7-0.4,6.2c-0.3,2.5-1,5.4-1.9,8.4c-0.9,3-2.1,6.2-3.3,9.3c-0.6,1.5-1.2,3-1.9,4.5
		c-0.1-1.4-0.1-2.9-0.1-4.3c0-7.5,0.3-15.2,0.2-21c0-1.4,0-2.8-0.1-3.9c0-1.2-0.1-2.2-0.1-3c-0.1-1.7-0.2-2.6-0.2-2.6
		s-0.3,0.9-0.7,2.5c-0.2,0.8-0.5,1.8-0.9,2.9c-0.3,1.1-0.7,2.3-1.2,3.7c-1.8,5.4-4.5,12.4-7.1,19.8c-1,3.1-2,6.2-2.8,9.3
		c-0.1-2.6-0.2-5.3-0.3-8c-0.1-3.8-0.2-7.4,0.3-10.7c0.5-3.4,1.4-6.6,2.3-9.3c0.9-2.7,1.8-5,2.4-6.6c0.6-1.6,1-2.5,1-2.5
		s-0.6,0.7-1.8,2c-1.1,1.3-2.7,3.2-4.5,5.6c-1.8,2.4-3.8,5.3-5.6,8.8c-0.9,1.7-1.7,3.7-2.4,5.6c-0.2,0.4-0.3,0.8-0.4,1.3
		c-0.1-0.6-0.1-1.3-0.2-1.9c-0.3-3-0.5-5.7-0.5-8.1c-0.1-1.2-0.1-2.3-0.1-3.3c0-1,0-1.8,0-2.5c0-1.4,0-2.2,0-2.2s-0.3,0.7-0.9,2
		c-0.3,0.6-0.6,1.4-1,2.4c-0.4,0.9-0.8,2-1.2,3.1c-0.9,2.3-1.8,5-2.7,7.9c0,0.1,0,0.2-0.1,0.2c-0.8-2-1.6-3.9-2.5-5.7
		c-1.6-3.4-3.2-6.4-4.7-8.9c-0.4-0.6-0.7-1.2-1.1-1.8c-0.4-0.6-0.7-1.1-1-1.6c-0.6-1-1.2-1.9-1.7-2.6c-0.9-1.4-1.5-2.2-1.5-2.2
		s0.3,0.9,0.7,2.6c0.2,0.8,0.5,1.8,0.7,2.9c0.1,0.6,0.3,1.2,0.4,1.8c0.1,0.6,0.3,1.3,0.4,2c0.6,2.8,1.1,6.1,1.5,9.6
		c0.4,3.5,0.6,7.2,0.7,10.9c0,3.7-0.1,7.4-0.4,10.8c-0.3,3.4-0.7,6.5-1.2,9.2c-0.1,0.7-0.2,1.3-0.3,1.9c-0.1,0.6-0.2,1.2-0.4,1.7
		c-0.2,0.8-0.3,1.6-0.5,2.2h60C193.3,72.9,192.9,70.8,192.5,68.4z"/>
	<path id="XMLID_2254_" style="fill:#4EA017;" d="M484.7,68.4c-0.5-2.7-0.9-5.7-1.3-9c-0.3-3.3-0.5-6.7-0.3-10.3
		c0.2-3.7,0.5-7.5,0.6-11.1c0.2-3.6,0.1-7.1-0.2-10.1c-0.3-2.9-0.9-5.3-1.4-6.9c-0.2-0.8-0.5-1.4-0.7-1.8c-0.2-0.4-0.2-0.6-0.2-0.6
		s0,0.2,0,0.7c0,0.4,0.1,1.1,0,1.9c0,1.6-0.3,3.9-0.9,6.6c-0.6,2.7-1.6,5.7-2.9,8.9c-0.3,0.8-0.7,1.6-1,2.5
		c-0.3-2.5-0.7-4.8-1.1-6.8c-0.6-2.6-1.4-4.8-2-6.2c-0.3-0.7-0.6-1.3-0.7-1.6c-0.2-0.4-0.3-0.6-0.3-0.6s0,0.2,0,0.6
		c0,0.4,0.1,1,0.1,1.8c0,1.5,0,3.7-0.4,6.2c-0.3,2.5-1,5.4-1.9,8.4c-0.9,3-2.1,6.2-3.3,9.3c-0.6,1.5-1.2,3-1.9,4.5
		c-0.1-1.4-0.1-2.9-0.1-4.3c0-7.5,0.3-15.2,0.2-21c0-1.4,0-2.8-0.1-3.9c0-1.2-0.1-2.2-0.1-3c-0.1-1.7-0.2-2.6-0.2-2.6
		s-0.3,0.9-0.7,2.5c-0.2,0.8-0.5,1.8-0.9,2.9c-0.3,1.1-0.7,2.3-1.2,3.7c-1.8,5.4-4.5,12.4-7.1,19.8c-1,3.1-2,6.2-2.8,9.3
		c-0.1-2.6-0.2-5.3-0.3-8c-0.1-3.8-0.2-7.4,0.3-10.7c0.5-3.4,1.4-6.6,2.3-9.3c0.9-2.7,1.8-5,2.4-6.6c0.6-1.6,1-2.5,1-2.5
		s-0.6,0.7-1.8,2c-1.1,1.3-2.7,3.2-4.5,5.6c-1.8,2.4-3.8,5.3-5.6,8.8c-0.9,1.7-1.7,3.7-2.4,5.6c-0.2,0.4-0.3,0.8-0.4,1.3
		c-0.1-0.6-0.1-1.3-0.2-1.9c-0.3-3-0.5-5.7-0.5-8.1c-0.1-1.2-0.1-2.3-0.1-3.3c0-1,0-1.8,0-2.5c0-1.4,0-2.2,0-2.2s-0.3,0.7-0.9,2
		c-0.3,0.6-0.6,1.4-1,2.4c-0.4,0.9-0.8,2-1.2,3.1c-0.9,2.3-1.8,5-2.7,7.9c0,0.1,0,0.2-0.1,0.2c-0.8-2-1.6-3.9-2.5-5.7
		c-1.6-3.4-3.2-6.4-4.7-8.9c-0.4-0.6-0.7-1.2-1.1-1.8c-0.4-0.6-0.7-1.1-1-1.6c-0.6-1-1.2-1.9-1.7-2.6c-0.9-1.4-1.5-2.2-1.5-2.2
		s0.3,0.9,0.7,2.6c0.2,0.8,0.5,1.8,0.7,2.9c0.1,0.6,0.3,1.2,0.4,1.8c0.1,0.6,0.3,1.3,0.4,2c0.6,2.8,1.1,6.1,1.5,9.6
		c0.4,3.5,0.6,7.2,0.7,10.9c0,3.7-0.1,7.4-0.4,10.8c-0.3,3.4-0.7,6.5-1.2,9.2c-0.1,0.7-0.2,1.3-0.3,1.9c-0.1,0.6-0.2,1.2-0.4,1.7
		c-0.2,0.8-0.3,1.6-0.5,2.2h60C485.6,72.9,485.2,70.8,484.7,68.4z"/>
	<path id="XMLID_2214_" style="fill:#4EA017;" d="M615.6,72.1c0.7-2.6,1.8-5.8,3.1-9.4c1.3-3.6,2.6-7.6,3.6-11.7
		c2-8.1,2.8-16.4,2.8-22.4c0-3-0.1-5.6-0.2-7.3c-0.1-1.7-0.2-2.7-0.2-2.7s-0.2,1-0.5,2.7c-0.3,1.7-0.9,4.2-1.6,7
		c-1.6,5.7-4.3,13.1-8,19.8c-0.2,0.3-0.3,0.5-0.5,0.8c0.5-2.7,1.1-5.5,1.6-8.2c0.6-3.6,1-7.1,0.9-10.1c-0.1-3-0.6-5.4-1.1-7
		c-0.2-0.8-0.5-1.4-0.7-1.8c-0.2-0.4-0.3-0.6-0.3-0.6s0,0.2,0,0.7c0,0.4,0,1.1-0.1,1.9c-0.2,1.6-0.7,3.8-1.7,6.3
		c-1,2.4-2.5,5.1-4.4,7.9c-0.1,0.2-0.3,0.5-0.5,0.7l-1.6-20.8l-9.8,25.3c0-2.5,0.1-4.9,0.2-7.3c0.2-3.6,0.4-7,0.8-9.8
		c0.1-1.4,0.3-2.8,0.4-3.9c0.1-1.2,0.3-2.2,0.4-3c0.2-1.7,0.4-2.6,0.4-2.6s-0.4,0.9-1.1,2.5c-0.3,0.8-0.7,1.7-1.2,2.8
		c-0.5,1.1-1,2.3-1.5,3.7c-1.1,2.7-2.2,6-3.4,9.5c-0.4,1.1-0.7,2.2-1,3.3c-0.9-7.1-1.9-13.9-2.8-19.1c-0.5-3.1-0.5-5.6-0.2-7.3
		c0.2-0.9,0.4-1.5,0.6-2c0.2-0.4,0.3-0.7,0.3-0.7s-0.2,0.2-0.6,0.5c-0.3,0.4-0.9,0.9-1.4,1.8c-1.1,1.6-2.1,4.4-2.8,7.6
		c-1.3,6.3-3.2,14.6-5.3,22.8c-0.4,1.5-0.8,3-1.2,4.5c0-0.2-0.1-0.4-0.1-0.5c-0.9-3.7-1.7-7.5-2.4-11c-0.7-3.5-1.2-6.7-1.2-9.5
		c0-2.8,0.6-5,1.4-6.5c0.2-0.4,0.4-0.7,0.5-1c0.2-0.3,0.3-0.5,0.5-0.7c0.3-0.4,0.4-0.6,0.4-0.6s-0.2,0.1-0.6,0.4
		c-0.2,0.1-0.4,0.3-0.6,0.6c-0.2,0.2-0.5,0.5-0.8,0.8c-1.2,1.3-2.5,3.5-3.4,6.5c-0.9,2.9-1.3,6.5-1.6,10.2c-0.1,1.6-0.2,3.2-0.3,4.9
		c-1-1.2-2-2.3-3.1-3.4c-2.8-2.7-5.4-5.1-7.9-6.8c-0.6-0.4-1.2-0.9-1.8-1.2c-0.6-0.4-1.1-0.7-1.6-1c-0.5-0.3-1-0.6-1.4-0.9
		c-0.4-0.3-0.9-0.5-1.3-0.7c-1.5-0.8-2.4-1.2-2.4-1.2s0.6,0.8,1.7,2.1c0.3,0.3,0.6,0.7,0.9,1.1c0.3,0.4,0.6,0.9,0.9,1.3
		c0.3,0.5,0.7,1,1.1,1.5c0.4,0.5,0.7,1.1,1.1,1.7c1.5,2.4,2.9,5.3,4.2,8.5c1.2,3.2,2.2,6.7,2.8,10.1c0.6,3.5,0.8,6.9,0.8,10
		c-0.1,3.2-0.4,6-0.9,8.3c-0.1,0.6-0.2,1.1-0.3,1.7c-0.1,0.5-0.3,1-0.4,1.5c-0.1,0.5-0.2,0.9-0.4,1.3c-0.1,0.4-0.3,0.7-0.4,1.1
		c0,0,0,0.1,0,0.1H615C615.2,73.8,615.4,73,615.6,72.1z"/>
	<path id="XMLID_2265_" style="fill:#31850D;" d="M107.3,72.1c0.7-2.6,1.8-5.8,3.1-9.4c1.3-3.6,2.6-7.6,3.6-11.7
		c2-8.1,2.8-16.4,2.8-22.4c0-3-0.1-5.6-0.2-7.3c-0.1-1.7-0.2-2.7-0.2-2.7s-0.2,1-0.5,2.7c-0.3,1.7-0.9,4.2-1.6,7
		c-1.6,5.7-4.3,13.1-8,19.8c-0.2,0.3-0.3,0.5-0.5,0.8c0.5-2.7,1.1-5.5,1.6-8.2c0.6-3.6,1-7.1,0.9-10.1c-0.1-3-0.6-5.4-1.1-7
		c-0.2-0.8-0.5-1.4-0.7-1.8c-0.2-0.4-0.3-0.6-0.3-0.6s0,0.2,0,0.7c0,0.4,0,1.1-0.1,1.9c-0.2,1.6-0.7,3.8-1.7,6.3
		c-1,2.4-2.5,5.1-4.4,7.9c-0.1,0.2-0.3,0.5-0.5,0.7l-1.6-20.8L88,42.9c0-2.5,0.1-4.9,0.2-7.3c0.2-3.6,0.4-7,0.8-9.8
		c0.1-1.4,0.3-2.8,0.4-3.9c0.1-1.2,0.3-2.2,0.4-3c0.2-1.7,0.4-2.6,0.4-2.6s-0.4,0.9-1.1,2.5c-0.3,0.8-0.7,1.7-1.2,2.8
		c-0.5,1.1-1,2.3-1.5,3.7c-1.1,2.7-2.2,6-3.4,9.5c-0.4,1.1-0.7,2.2-1,3.3C81,30.8,80,24,79.2,18.7c-0.5-3.1-0.5-5.6-0.2-7.3
		c0.2-0.9,0.4-1.5,0.6-2C79.9,8.9,80,8.7,80,8.7s-0.2,0.2-0.6,0.5c-0.3,0.4-0.9,0.9-1.4,1.8c-1.1,1.6-2.1,4.4-2.8,7.6
		c-1.3,6.3-3.2,14.6-5.3,22.8c-0.4,1.5-0.8,3-1.2,4.5c0-0.2-0.1-0.4-0.1-0.5c-0.9-3.7-1.7-7.5-2.4-11c-0.7-3.5-1.2-6.7-1.2-9.5
		c0-2.8,0.6-5,1.4-6.5c0.2-0.4,0.4-0.7,0.5-1c0.2-0.3,0.3-0.5,0.5-0.7c0.3-0.4,0.4-0.6,0.4-0.6s-0.2,0.1-0.6,0.4
		c-0.2,0.1-0.4,0.3-0.6,0.6c-0.2,0.2-0.5,0.5-0.8,0.8c-1.2,1.3-2.5,3.5-3.4,6.5c-0.9,2.9-1.3,6.5-1.6,10.2c-0.1,1.6-0.2,3.2-0.3,4.9
		c-1-1.2-2-2.3-3.1-3.4c-2.8-2.7-5.4-5.1-7.9-6.8c-0.6-0.4-1.2-0.9-1.8-1.2c-0.6-0.4-1.1-0.7-1.6-1c-0.5-0.3-1-0.6-1.4-0.9
		c-0.4-0.3-0.9-0.5-1.3-0.7c-1.5-0.8-2.4-1.2-2.4-1.2s0.6,0.8,1.7,2.1c0.3,0.3,0.6,0.7,0.9,1.1c0.3,0.4,0.6,0.9,0.9,1.3
		c0.3,0.5,0.7,1,1.1,1.5c0.4,0.5,0.7,1.1,1.1,1.7c1.5,2.4,2.9,5.3,4.2,8.5c1.2,3.2,2.2,6.7,2.8,10.1c0.6,3.5,0.8,6.9,0.8,10
		c-0.1,3.2-0.4,6-0.9,8.3c-0.1,0.6-0.2,1.1-0.3,1.7c-0.1,0.5-0.3,1-0.4,1.5c-0.1,0.5-0.2,0.9-0.4,1.3c-0.1,0.4-0.3,0.7-0.4,1.1
		c0,0,0,0.1,0,0.1h54.5C106.9,73.8,107.1,73,107.3,72.1z"/>
	<path id="XMLID_2232_" style="fill:#4EA017;" d="M703.2,25.5c0-0.8,0-1.6,0-2.3c0-0.7-0.1-1.4-0.1-2.1c0-1.3-0.1-2.4-0.2-3.4
		c-0.1-1.9-0.2-2.9-0.2-2.9s-0.2,1.1-0.5,2.9c-0.1,0.9-0.3,2-0.6,3.3c-0.1,0.6-0.3,1.3-0.4,2c-0.2,0.7-0.3,1.4-0.5,2.2
		c-0.7,3.1-1.7,6.6-2.8,10.4c-1.2,3.7-2.7,7.6-4.3,11.4c-0.4,0.9-0.8,1.7-1.2,2.6c0-0.9,0.1-1.8,0.1-2.7c0.3-4.5,0.9-9.1,1.8-13.3
		c0.9-4.2,2.2-8.1,3.4-11.4c1.2-3.3,2.5-6,3.4-7.8c0.5-0.9,0.9-1.6,1.1-2.1c0.3-0.5,0.4-0.8,0.4-0.8s-0.2,0.2-0.5,0.7
		c-0.4,0.4-0.9,1-1.5,1.9c-1.3,1.6-3.1,4-5.1,7.1c-1.8,2.8-3.6,6.1-5.4,9.7c0-3.8,0-7.3-0.1-10.4c0-1.6-0.1-3-0.2-4.3
		c-0.1-1.3-0.1-2.4-0.2-3.3c-0.2-1.8-0.2-2.8-0.2-2.8s-0.2,1-0.4,2.8c-0.1,0.9-0.3,2-0.5,3.2c-0.2,1.2-0.5,2.6-0.8,4.1
		c-0.6,3-1.4,6.5-2.4,10.2c-1,3.7-2.1,7.6-3.4,11.5c-0.3,0.9-0.6,1.8-0.9,2.7c-0.3-4-0.4-7.7-0.5-10.8c-0.2-5.2-0.2-8.7-0.2-8.7
		s-1,3.4-2.2,8.4c-0.9,3.7-2,8.3-3.1,13.3c0-0.1,0-0.2,0-0.3c-0.4-3.8-0.8-7.5-0.9-10.9c-0.1-3.4,0.1-6.6,0.8-9.3
		c0.6-2.7,1.7-4.8,2.6-6.1c0.4-0.7,0.9-1.2,1.1-1.5c0.3-0.3,0.4-0.5,0.4-0.5s-0.2,0.1-0.6,0.4c-0.4,0.3-0.9,0.6-1.5,1.2
		c-1.3,1.1-2.9,3-4.3,5.7c-1.4,2.6-2.6,6-3.4,9.6c-0.9,3.6-1.4,7.6-2,11.3c-0.2,1.4-0.4,2.8-0.6,4.2c-1.3-3.6-2.8-7.3-4.6-10.8
		c-2.1-4.2-4.4-8-6.4-11.5c-2-3.5-3.6-6.9-4.5-10c-0.9-3.1-1-5.8-0.8-7.7c0.1-0.5,0.1-0.9,0.1-1.3c0.1-0.4,0.1-0.7,0.2-0.9
		c0.1-0.5,0.2-0.8,0.2-0.8s-0.1,0.3-0.3,0.7c-0.1,0.2-0.2,0.5-0.4,0.9c-0.2,0.3-0.3,0.8-0.4,1.2c-0.6,1.9-1.1,4.7-0.9,8.2
		c0.2,3.4,1.1,7.4,2.3,11.5c1.2,4.1,2.6,8.2,3.6,12.3c0.4,1.6,0.7,3.1,1,4.7c-1.9-2.6-4-5-6.2-7c-2.5-2.4-5.1-4.2-7.4-5.6
		c-2.3-1.4-4.4-2.2-5.9-2.6c-0.7-0.3-1.3-0.4-1.7-0.5c-0.4-0.1-0.6-0.2-0.6-0.2s0.2,0.1,0.5,0.3c0.3,0.2,0.9,0.5,1.5,0.9
		c1.2,0.8,2.9,2.1,4.7,4c1.7,1.8,3.5,4.1,5.1,6.8c1.6,2.6,2.9,5.6,3.9,8.7c1,3.1,1.7,6.2,2,9.1c0.4,2.9,0.3,5.6,0.2,7.7
		c-0.2,2.2-0.6,3.9-0.9,5c-0.1,0.2-0.1,0.5-0.2,0.6h5.8h6.4h2.8h4.5h1.6h2.4h2.6h0.5h0.6h6.3h0h5.1h4.7c0.2-0.6,0.4-1.1,0.7-1.7
		c1.2-3.1,2.4-6.9,3.6-10.8c1.1-4,2.1-8.3,2.9-12.6c0.8-4.3,1.3-8.7,1.7-12.7C703.1,32.5,703.3,28.8,703.2,25.5z"/>
	<path id="XMLID_2216_" style="fill:#78BB3B;" d="M147.3,73.7c-0.5-2.4-1-5.1-1.6-8.1c-0.6-2.9-1.2-5.9-1.6-8.8
		c-0.8-5.7-0.3-11.9,0.4-16.6c0.3-2.4,0.7-4.3,0.9-5.7c0.2-1.4,0.4-2.2,0.4-2.2s-0.4,0.7-1.2,1.8c-0.8,1.2-1.9,2.8-3.2,4.9
		c-0.4,0.6-0.8,1.3-1.2,1.9c-0.4-2.4-0.9-4.3-1.2-5.6c-0.4-1.4-0.6-2.2-0.6-2.2s-0.1,0.8-0.4,2.2c-0.2,1.4-0.6,3.4-1.1,5.7
		c-0.6,2.3-1.4,4.8-2.7,7.3c-1.3,2.4-3,4.9-4.9,7.2c-0.9,1.1-1.8,2.2-2.8,3.3c0.1-1.6,0.2-3.2,0.3-4.8c0.3-3.5,0.9-6.9,1.6-10.4
		c0.6-3.4,1.2-6.8,1.4-9.6c0.2-2.9,0-5.3-0.3-6.9c-0.1-0.8-0.3-1.4-0.4-1.9c-0.1-0.4-0.2-0.6-0.2-0.6s0,0.2-0.1,0.7
		c0,0.4-0.1,1.1-0.3,1.8c-0.3,1.6-0.9,3.7-2,6.1c-1.1,2.4-2.6,5.1-4.4,8c-0.5,0.8-1,1.6-1.5,2.4c0.2-4.3,0.4-8.5,0.5-11.9
		c0.1-1.4,0.1-2.7,0.1-3.8c0-1.1,0-2.1,0-3c0-1.6,0-2.6,0-2.6s-0.3,0.9-0.9,2.4c-0.3,0.8-0.6,1.7-1,2.7c-0.4,1.1-0.9,2.2-1.4,3.5
		c-1.6,4-3.8,9-6.1,14.3c-0.6-3.2-1.2-6.3-1.7-9.3c-0.6-3.9-1.1-7.6-1.4-10.8c-0.1-0.8-0.1-1.6-0.2-2.3c0-0.7-0.1-1.4-0.1-2.1
		c-0.1-1.3-0.1-2.5-0.1-3.4c0-1.9,0-3,0-3s-0.3,1-0.9,2.8c-0.3,0.9-0.6,2-0.9,3.3c-0.2,0.6-0.3,1.3-0.5,2.1
		c-0.2,0.7-0.3,1.5-0.5,2.3c-0.7,3.2-1.4,7-2,11.1c-0.4,2.7-0.7,5.5-1.1,8.3c-0.3-0.7-0.6-1.4-0.9-2.1c-1.2-3-2-5.9-2.4-8.5
		c-0.4-2.6-0.3-4.8-0.1-6.4c0.1-0.8,0.2-1.4,0.3-1.8c0.1-0.4,0.2-0.6,0.2-0.6s-0.1,0.2-0.4,0.5c-0.3,0.4-0.6,0.9-1,1.6
		c-0.8,1.4-1.8,3.6-2.4,6.5c-0.6,2.8-1,6.3-0.9,9.9c0,0.6,0,1.1,0.1,1.7c-0.4-0.8-0.7-1.6-1.1-2.3c-0.9-1.8-1.9-3.6-3-5.2
		c-2.1-3.2-4.5-5.9-6.7-7.9c-2.2-2-4.3-3.4-5.7-4.2c-0.7-0.5-1.3-0.7-1.7-0.9c-0.4-0.2-0.6-0.3-0.6-0.3s0.2,0.2,0.5,0.5
		c0.3,0.3,0.8,0.8,1.3,1.4c1.1,1.3,2.4,3.2,3.7,5.6c1.3,2.4,2.4,5.4,3.2,8.6c0.8,3.2,1.2,6.7,1.2,10.2c0.1,7-1.4,13.9-2.7,19
		c-0.5,1.8-0.9,3.3-1.3,4.6h65.3C147.4,74.2,147.3,74,147.3,73.7z"/>
	<path id="XMLID_2269_" style="fill:#78BB3B;" d="M231,74.7c2.8-14.3,5-28,2.4-42.4c1.3,3,11.4,17.9,13.1,20.7
		c0.5-2.6,1.4-16.8,3.7-28.3c1.2,7.1,4.6,12.9,8.3,19.1c-0.4-7.1-0.7-14.2-0.6-21.2c2.8,7.8,6.1,15.4,9.4,23
		c2-10.1,3.7-20.5,3.5-30.9c3.2,9.7,4.7,19.8,5.9,29.9c2.7-6.3,4.2-12.8,2.8-19.5c3.6,6.2,4.9,13.1,4.6,20.2
		C288,36.6,294.4,29,303,24.5c-13,13.7-10.7,33.4-5.9,50C289.6,74.5,231,74.5,231,74.7z"/>
</g>
</svg>
